<?xml version="1.0" encoding="UTF-8" standalone="no"?>
<svg
   xmlns:dc="http://purl.org/dc/elements/1.1/"
   xmlns:cc="http://creativecommons.org/ns#"
   xmlns:rdf="http://www.w3.org/1999/02/22-rdf-syntax-ns#"
   xmlns:svg="http://www.w3.org/2000/svg"
   xmlns="http://www.w3.org/2000/svg"
   id="svg4155"
   version="1.1"
   viewBox="0 0 4786.3115 3358.9563"
   height="3358.9563pt"
   width="4786.3115pt">
  <defs
     id="defs4222">
    <marker
       orient="auto"
       refY="0"
       refX="0"
       id="marker5102"
       style="overflow:visible">
      <path
         id="path5104"
         d="M 0,5.65 0,-5.65"
         style="fill:none;fill-opacity:0.75;fill-rule:evenodd;stroke:#000000;stroke-width:1pt;stroke-opacity:1"
         transform="scale(0.8,0.8)" />
    </marker>
    <marker
       orient="auto"
       refY="0"
       refX="0"
       id="StopL"
       style="overflow:visible">
      <path
         id="path4464"
         d="M 0,5.65 0,-5.65"
         style="fill:none;fill-opacity:0.75;fill-rule:evenodd;stroke:#000000;stroke-width:1pt;stroke-opacity:1"
         transform="scale(0.8,0.8)" />
    </marker>
    <marker
       orient="auto"
       refY="0"
       refX="0"
       id="marker4904"
       style="overflow:visible">
      <path
         id="path4906"
         style="fill:#000000;fill-opacity:1;fill-rule:evenodd;stroke:#000000;stroke-width:0.625;stroke-linejoin:round;stroke-opacity:1"
         d="M 8.7185878,4.0337352 -2.2072895,0.01601326 8.7185884,-4.0017078 c -1.7454984,2.3720609 -1.7354408,5.6174519 -6e-7,8.035443 z"
         transform="scale(0.6,0.6)" />
    </marker>
    <marker
       orient="auto"
       refY="0"
       refX="0"
       id="Arrow2Mstart"
       style="overflow:visible">
      <path
         id="path4319"
         style="fill:#000000;fill-opacity:1;fill-rule:evenodd;stroke:#000000;stroke-width:0.625;stroke-linejoin:round;stroke-opacity:1"
         d="M 8.7185878,4.0337352 -2.2072895,0.01601326 8.7185884,-4.0017078 c -1.7454984,2.3720609 -1.7354408,5.6174519 -6e-7,8.035443 z"
         transform="scale(0.6,0.6)" />
    </marker>
    <marker
       orient="auto"
       refY="0"
       refX="0"
       id="marker4719"
       style="overflow:visible">
      <path
         id="path4313"
         style="fill:#000000;fill-opacity:1;fill-rule:evenodd;stroke:#000000;stroke-width:0.625;stroke-linejoin:round;stroke-opacity:1"
         d="M 8.7185878,4.0337352 -2.2072895,0.01601326 8.7185884,-4.0017078 c -1.7454984,2.3720609 -1.7354408,5.6174519 -6e-7,8.035443 z"
         transform="matrix(1.1,0,0,1.1,1.1,0)" />
    </marker>
    <marker
       orient="auto"
       refY="0"
       refX="0"
       id="marker9784"
       style="overflow:visible">
      <path
         id="path9786"
         style="fill:#000000;fill-opacity:1;fill-rule:evenodd;stroke:#000000;stroke-width:0.625;stroke-linejoin:round;stroke-opacity:1"
         d="M 8.7185878,4.0337352 -2.2072895,0.01601326 8.7185884,-4.0017078 c -1.7454984,2.3720609 -1.7354408,5.6174519 -6e-7,8.035443 z"
         transform="matrix(1.1,0,0,1.1,1.1,0)" />
    </marker>
    <marker
       style="overflow:visible"
       id="marker9711"
       refX="0"
       refY="0"
       orient="auto">
      <path
         transform="scale(0.4,0.4)"
         style="fill:none;fill-opacity:0.75;fill-rule:evenodd;stroke:#000000;stroke-width:1pt;stroke-opacity:1"
         d="M 0,5.65 0,-5.65"
         id="path9713" />
    </marker>
    <marker
       style="overflow:visible"
       id="StopM"
       refX="0"
       refY="0"
       orient="auto">
      <path
         transform="scale(0.4,0.4)"
         style="fill:none;fill-opacity:0.75;fill-rule:evenodd;stroke:#000000;stroke-width:1pt;stroke-opacity:1"
         d="M 0,5.65 0,-5.65"
         id="path6484" />
    </marker>
    <marker
       style="overflow:visible"
       id="TriangleOutS"
       refX="0"
       refY="0"
       orient="auto">
      <path
         transform="scale(0.2,0.2)"
         style="fill:#000000;fill-opacity:1;fill-rule:evenodd;stroke:#000000;stroke-width:1pt;stroke-opacity:1"
         d="m 5.77,0 -8.65,5 0,-10 8.65,5 z"
         id="path6460" />
    </marker>
    <marker
       style="overflow:visible"
       id="DiamondS"
       refX="0"
       refY="0"
       orient="auto">
      <path
         transform="scale(0.2,0.2)"
         style="fill:#000000;fill-opacity:1;fill-rule:evenodd;stroke:#000000;stroke-width:1pt;stroke-opacity:1"
         d="M 0,-7.0710768 -7.0710894,0 0,7.0710589 7.0710462,0 0,-7.0710768 Z"
         id="path6397" />
    </marker>
    <marker
       orient="auto"
       refY="0"
       refX="0"
       id="DistanceStart"
       style="overflow:visible">
      <g
         style="fill:#000000;fill-opacity:1;stroke:#000000;stroke-opacity:1"
         id="g2300">
        <path
           id="path2306"
           d="M 0,0 2,0"
           style="fill:#000000;fill-opacity:1;stroke:#000000;stroke-width:1.14999998;stroke-linecap:square;stroke-opacity:1" />
        <path
           id="path2302"
           d="M 0,0 13,4 9,0 13,-4 0,0 Z"
           style="fill:#000000;fill-opacity:1;fill-rule:evenodd;stroke:#000000;stroke-opacity:1" />
        <path
           id="path2304"
           d="M 0,-4 0,40"
           style="fill:#000000;fill-opacity:1;stroke:#000000;stroke-width:1;stroke-linecap:square;stroke-opacity:1" />
      </g>
    </marker>
    <marker
       style="overflow:visible"
       id="Arrow2Lstart"
       refX="0"
       refY="0"
       orient="auto">
      <path
         transform="matrix(1.1,0,0,1.1,1.1,0)"
         d="M 8.7185878,4.0337352 -2.2072895,0.01601326 8.7185884,-4.0017078 c -1.7454984,2.3720609 -1.7354408,5.6174519 -6e-7,8.035443 z"
         style="fill:#000000;fill-opacity:1;fill-rule:evenodd;stroke:#000000;stroke-width:0.625;stroke-linejoin:round;stroke-opacity:1"
         id="path6330" />
    </marker>
    <marker
       style="overflow:visible"
       id="marker9319"
       refX="0"
       refY="0"
       orient="auto">
      <path
         transform="matrix(-1.1,0,0,-1.1,-1.1,0)"
         d="M 8.7185878,4.0337352 -2.2072895,0.01601326 8.7185884,-4.0017078 c -1.7454984,2.3720609 -1.7354408,5.6174519 -6e-7,8.035443 z"
         style="fill:#000000;fill-opacity:1;fill-rule:evenodd;stroke:#000000;stroke-width:0.625;stroke-linejoin:round;stroke-opacity:1"
         id="path9321" />
    </marker>
    <marker
       style="overflow:visible"
       id="Arrow2Lend"
       refX="0"
       refY="0"
       orient="auto">
      <path
         transform="matrix(-1.1,0,0,-1.1,-1.1,0)"
         d="M 8.7185878,4.0337352 -2.2072895,0.01601326 8.7185884,-4.0017078 c -1.7454984,2.3720609 -1.7354408,5.6174519 -6e-7,8.035443 z"
         style="fill:#000000;fill-opacity:1;fill-rule:evenodd;stroke:#000000;stroke-width:0.625;stroke-linejoin:round;stroke-opacity:1"
         id="path6333" />
    </marker>
  </defs>
  <g
     style="fill:#c8c8c8;fill-opacity:1;stroke-width:1.60000002;stroke-miterlimit:4;stroke-dasharray:none"
     id="g4947"
     transform="translate(792.82766,915.32638)">
    <path
       id="path4158"
       d="m 793.90693,611.72264 0,304.8242 -263.98439,152.41016 -263.98437,-152.41016 0,-304.8242 263.98437,-152.41408 z m 0,0"
       style="fill:#c8c8c8;fill-opacity:1;stroke:#000000;stroke-width:1.60000002;stroke-linecap:round;stroke-linejoin:round;stroke-miterlimit:4;stroke-dasharray:none;stroke-opacity:1" />
    <path
       id="path4160"
       d="m 1321.8795,611.72264 0,304.8242 -263.9843,152.41016 -263.98827,-152.41016 0,-304.8242 263.98827,-152.41408 z m 0,0"
       style="fill:#c8c8c8;fill-opacity:1;stroke:#000000;stroke-width:1.60000002;stroke-linecap:round;stroke-linejoin:round;stroke-miterlimit:4;stroke-dasharray:none;stroke-opacity:1" />
    <path
       id="path4162"
       d="m 1849.8405,611.72264 0,304.8242 -263.9649,152.41016 -263.9961,-152.41016 0,-304.8242 263.9961,-152.41408 z m 0,0"
       style="fill:#c8c8c8;fill-opacity:1;stroke:#000000;stroke-width:1.60000002;stroke-linecap:round;stroke-linejoin:round;stroke-miterlimit:4;stroke-dasharray:none;stroke-opacity:1" />
    <path
       id="path4164"
       d="m 1057.8952,154.40233 0,304.83201 -263.98827,152.4102 -263.98439,-152.4102 0,-304.83201 L 793.90693,1.99996 Z m 0,0"
       style="fill:#c8c8c8;fill-opacity:1;stroke:#000000;stroke-width:1.60000002;stroke-linecap:round;stroke-linejoin:round;stroke-miterlimit:4;stroke-dasharray:none;stroke-opacity:1" />
    <path
       id="path4166"
       d="m 1585.8756,154.40233 0,304.83201 -263.9961,152.4102 -263.9843,-152.4102 0,-304.83201 263.9843,-152.40237 z m 0,0"
       style="fill:#c8c8c8;fill-opacity:1;stroke:#000000;stroke-width:1.60000002;stroke-linecap:round;stroke-linejoin:round;stroke-miterlimit:4;stroke-dasharray:none;stroke-opacity:1" />
    <path
       id="path4168"
       d="m 1057.8952,1068.9492 0,304.8242 -263.98827,152.4101 -263.98439,-152.4101 0,-304.8242 263.98439,-152.41406 z m 0,0"
       style="fill:#c8c8c8;fill-opacity:1;stroke:#000000;stroke-width:1.60000002;stroke-linecap:round;stroke-linejoin:round;stroke-miterlimit:4;stroke-dasharray:none;stroke-opacity:1" />
    <path
       id="path4170"
       d="m 1585.8756,1068.9492 0,304.8242 -263.9961,152.4101 -263.9843,-152.4101 0,-304.8242 263.9843,-152.41406 z m 0,0"
       style="fill:#c8c8c8;fill-opacity:1;stroke:#000000;stroke-width:1.60000002;stroke-linecap:round;stroke-linejoin:round;stroke-miterlimit:4;stroke-dasharray:none;stroke-opacity:1" />
  </g>
  <text
     id="text4495"
     y="1295.9136"
     x="1528.5565"
     style="font-style:normal;font-weight:normal;font-size:32px;line-height:125%;font-family:Sans;letter-spacing:0px;word-spacing:0px;fill:#000000;fill-opacity:1;stroke:none;stroke-width:1px;stroke-linecap:butt;stroke-linejoin:miter;stroke-opacity:1"
     xml:space="preserve"><tspan
       y="1295.9136"
       x="1528.5565"
       id="tspan4497" /></text>
  <metadata
     id="metadata4499">
    <rdf:RDF>
      <cc:Work
         rdf:about="">
        <dc:title></dc:title>
        <dc:format>image/svg+xml</dc:format>
        <dc:type
           rdf:resource="http://purl.org/dc/dcmitype/StillImage" />
      </cc:Work>
    </rdf:RDF>
  </metadata>
  <path
     id="border"
     style="fill:none;stroke:#000000;stroke-width:16;stroke-linecap:round;stroke-linejoin:round;stroke-miterlimit:4;stroke-dasharray:none;stroke-opacity:1"
     d="m 2642.6682,1527.0489 0,304.8242 -263.9649,152.4063 0,304.8203 -263.9961,152.4102 -263.9843,-152.4102 -263.9883,152.4102 -263.9844,-152.4102 0,-304.8202 -263.9844,-152.4064 0,-304.8242 263.9844,-152.4511 0,-304.8691 263.9844,-152.40239 263.9883,152.40239 263.9843,-152.40239 263.9961,152.40239 0,304.8691 z" />
  <path
     id="path8337"
     d="m 2642.738,612.52267 0,304.8242 -263.9844,152.41013 -263.9843,-152.41013 0,-304.8242 263.9843,-152.41408 z m 0,0"
     style="fill:none;stroke:#000000;stroke-width:1.60000002;stroke-linecap:round;stroke-linejoin:round;stroke-miterlimit:4;stroke-dasharray:none;stroke-opacity:1" />
  <path
     id="path8339"
     d="m 3170.7106,612.52267 0,304.8242 -263.9843,152.41013 -263.9883,-152.41013 0,-304.8242 263.9883,-152.41408 z m 0,0"
     style="fill:none;stroke:#000000;stroke-width:1.60000002;stroke-linecap:round;stroke-linejoin:round;stroke-miterlimit:4;stroke-dasharray:none;stroke-opacity:1" />
  <path
     id="path8343"
     d="m 2906.7263,155.20236 0,304.83201 -263.9883,152.4102 -263.9844,-152.4102 0,-304.83201 L 2642.738,2.7999876 Z m 0,0"
     style="fill:none;stroke:#000000;stroke-width:1.60000002;stroke-linecap:round;stroke-linejoin:round;stroke-miterlimit:4;stroke-dasharray:none;stroke-opacity:1" />
  <path
     id="path8347"
     d="m 2906.7263,1069.7492 0,304.8242 -263.9883,152.4101 -263.9844,-152.4101 0,-304.8242 263.9844,-152.41403 z m 0,0"
     style="fill:none;stroke:#000000;stroke-width:1.60000002;stroke-linecap:round;stroke-linejoin:round;stroke-miterlimit:4;stroke-dasharray:none;stroke-opacity:1" />
  <path
     id="path8349"
     d="m 3434.7067,1069.7492 0,304.8242 -263.9961,152.4101 -263.9843,-152.4101 0,-304.8242 263.9843,-152.41403 z m 0,0"
     style="fill:none;stroke:#000000;stroke-width:1.60000002;stroke-linecap:round;stroke-linejoin:round;stroke-miterlimit:4;stroke-dasharray:none;stroke-opacity:1" />
  <path
     style="fill:none;stroke:#000000;stroke-width:1.60000002;stroke-linecap:round;stroke-linejoin:round;stroke-miterlimit:4;stroke-dasharray:none;stroke-opacity:1"
     d="m 2906.6628,1984.3483 0,304.8242 -263.9844,152.4102 -263.9843,-152.4102 0,-304.8242 263.9843,-152.4141 z m 0,0"
     id="path8353" />
  <path
     style="fill:none;stroke:#000000;stroke-width:1.60000002;stroke-linecap:round;stroke-linejoin:round;stroke-miterlimit:4;stroke-dasharray:none;stroke-opacity:1"
     d="m 3434.6354,1984.3483 0,304.8242 -263.9843,152.4102 -263.9883,-152.4102 0,-304.8242 263.9883,-152.4141 z m 0,0"
     id="path8355" />
  <path
     style="fill:none;stroke:#000000;stroke-width:1.60000002;stroke-linecap:round;stroke-linejoin:round;stroke-miterlimit:4;stroke-dasharray:none;stroke-opacity:1"
     d="m 3170.6511,1527.028 0,304.832 -263.9883,152.4102 -263.9844,-152.4102 0,-304.832 263.9844,-152.4024 z m 0,0"
     id="path8359" />
  <path
     style="fill:none;stroke:#000000;stroke-width:1.60000002;stroke-linecap:round;stroke-linejoin:round;stroke-miterlimit:4;stroke-dasharray:none;stroke-opacity:1"
     d="m 3698.6315,1527.028 0,304.832 -263.9961,152.4102 -263.9843,-152.4102 0,-304.832 263.9843,-152.4024 z m 0,0"
     id="path8361" />
  <path
     style="fill:none;stroke:#000000;stroke-width:1.60000002;stroke-linecap:round;stroke-linejoin:round;stroke-miterlimit:4;stroke-dasharray:none;stroke-opacity:1"
     d="m 3170.6511,2441.5749 0,304.8242 -263.9883,152.4101 -263.9844,-152.4101 0,-304.8242 263.9844,-152.4141 z m 0,0"
     id="path8363" />
  <path
     id="path8369"
     d="m 1850.7092,2898.922 0,304.8242 -263.9844,152.4102 -263.9844,-152.4102 0,-304.8242 263.9844,-152.414 z m 0,0"
     style="fill:none;stroke:#000000;stroke-width:1.60000002;stroke-linecap:round;stroke-linejoin:round;stroke-miterlimit:4;stroke-dasharray:none;stroke-opacity:1" />
  <path
     id="path8371"
     d="m 2378.6818,2898.922 0,304.8242 -263.9843,152.4102 -263.9883,-152.4102 0,-304.8242 263.9883,-152.414 z m 0,0"
     style="fill:none;stroke:#000000;stroke-width:1.60000002;stroke-linecap:round;stroke-linejoin:round;stroke-miterlimit:4;stroke-dasharray:none;stroke-opacity:1" />
  <path
     id="path8373"
     d="m 2906.6428,2898.922 0,304.8242 -263.9649,152.4102 -263.9961,-152.4102 0,-304.8242 263.9961,-152.414 z m 0,0"
     style="fill:none;stroke:#000000;stroke-width:1.60000002;stroke-linecap:round;stroke-linejoin:round;stroke-miterlimit:4;stroke-dasharray:none;stroke-opacity:1" />
  <path
     id="path8375"
     d="m 2114.6975,2441.6017 0,304.832 -263.9883,152.4102 -263.9844,-152.4102 0,-304.832 263.9844,-152.4023 z m 0,0"
     style="fill:none;stroke:#000000;stroke-width:1.60000002;stroke-linecap:round;stroke-linejoin:round;stroke-miterlimit:4;stroke-dasharray:none;stroke-opacity:1" />
  <path
     id="path8377"
     d="m 2642.6779,2441.6017 0,304.832 -263.9961,152.4102 -263.9843,-152.4102 0,-304.832 263.9843,-152.4023 z m 0,0"
     style="fill:none;stroke:#000000;stroke-width:1.60000002;stroke-linecap:round;stroke-linejoin:round;stroke-miterlimit:4;stroke-dasharray:none;stroke-opacity:1" />
  <path
     style="fill:none;stroke:#000000;stroke-width:1.60000002;stroke-linecap:round;stroke-linejoin:round;stroke-miterlimit:4;stroke-dasharray:none;stroke-opacity:1"
     d="m 1058.7575,2441.5133 0,304.8242 -263.98434,152.4102 -263.98827,-152.4102 0,-304.8242 263.98827,-152.4141 z m 0,0"
     id="path8387" />
  <path
     style="fill:none;stroke:#000000;stroke-width:1.60000002;stroke-linecap:round;stroke-linejoin:round;stroke-miterlimit:4;stroke-dasharray:none;stroke-opacity:1"
     d="m 1586.7185,2441.5133 0,304.8242 -263.9649,152.4102 -263.9961,-152.4102 0,-304.8242 263.9961,-152.4141 z m 0,0"
     id="path8389" />
  <path
     style="fill:none;stroke:#000000;stroke-width:1.60000002;stroke-linecap:round;stroke-linejoin:round;stroke-miterlimit:4;stroke-dasharray:none;stroke-opacity:1"
     d="m 794.77316,1984.193 0,304.832 -263.98827,152.4102 -263.98439,-152.4102 0,-304.832 263.98439,-152.4024 z m 0,0"
     id="path8391" />
  <path
     style="fill:none;stroke:#000000;stroke-width:1.60000002;stroke-linecap:round;stroke-linejoin:round;stroke-miterlimit:4;stroke-dasharray:none;stroke-opacity:1"
     d="m 1322.7536,1984.193 0,304.832 -263.9961,152.4102 -263.98434,-152.4102 0,-304.832 263.98434,-152.4024 z m 0,0"
     id="path8393" />
  <path
     style="fill:none;stroke:#000000;stroke-width:1.60000002;stroke-linecap:round;stroke-linejoin:round;stroke-miterlimit:4;stroke-dasharray:none;stroke-opacity:1"
     d="m 1322.7536,2898.7399 0,304.8242 -263.9961,152.4101 -263.98434,-152.4101 0,-304.8242 263.98434,-152.4141 z m 0,0"
     id="path8397" />
  <path
     id="path8403"
     d="m 794.75676,1069.7938 0,304.8242 -263.9843,152.4102 -263.98827,-152.4102 0,-304.8242 263.98827,-152.41406 z m 0,0"
     style="fill:none;stroke:#000000;stroke-width:1.60000002;stroke-linecap:round;stroke-linejoin:round;stroke-miterlimit:4;stroke-dasharray:none;stroke-opacity:1" />
  <path
     id="path8405"
     d="m 1322.7178,1069.7938 0,304.8242 -263.9649,152.4102 -263.99614,-152.4102 0,-304.8242 263.99614,-152.41406 z m 0,0"
     style="fill:none;stroke:#000000;stroke-width:1.60000002;stroke-linecap:round;stroke-linejoin:round;stroke-miterlimit:4;stroke-dasharray:none;stroke-opacity:1" />
  <path
     id="path8409"
     d="m 1058.7529,612.47351 0,304.83201 -263.99614,152.41018 -263.9843,-152.41018 0,-304.83201 263.9843,-152.40237 z m 0,0"
     style="fill:none;stroke:#000000;stroke-width:1.60000002;stroke-linecap:round;stroke-linejoin:round;stroke-miterlimit:4;stroke-dasharray:none;stroke-opacity:1" />
  <path
     id="path8411"
     d="m 530.77246,1527.0204 0,304.8242 -263.98827,152.4101 -263.9843853,-152.4101 0,-304.8242 263.9843853,-152.4141 z m 0,0"
     style="fill:none;stroke:#000000;stroke-width:1.60000002;stroke-linecap:round;stroke-linejoin:round;stroke-miterlimit:4;stroke-dasharray:none;stroke-opacity:1" />
  <path
     id="path8413"
     d="m 1058.7529,1527.0204 0,304.8242 -263.99614,152.4101 -263.9843,-152.4101 0,-304.8242 263.9843,-152.4141 z m 0,0"
     style="fill:none;stroke:#000000;stroke-width:1.60000002;stroke-linecap:round;stroke-linejoin:round;stroke-miterlimit:4;stroke-dasharray:none;stroke-opacity:1" />
  <path
     style="fill:none;stroke:#000000;stroke-width:1.60000002;stroke-linecap:round;stroke-linejoin:round;stroke-miterlimit:4;stroke-dasharray:none;stroke-opacity:1"
     d="m 1322.8128,155.22182 0,304.8242 -263.9844,152.41016 -263.98435,-152.41016 0,-304.8242 L 1058.8284,2.8077376 Z m 0,0"
     id="path8417" />
  <path
     style="fill:none;stroke:#000000;stroke-width:1.60000002;stroke-linecap:round;stroke-linejoin:round;stroke-miterlimit:4;stroke-dasharray:none;stroke-opacity:1"
     d="m 1850.7854,155.22182 0,304.8242 -263.9843,152.41016 -263.9883,-152.41016 0,-304.8242 263.9883,-152.4140824 z m 0,0"
     id="path8419" />
  <path
     style="fill:none;stroke:#000000;stroke-width:1.60000002;stroke-linecap:round;stroke-linejoin:round;stroke-miterlimit:4;stroke-dasharray:none;stroke-opacity:1"
     d="m 2378.7464,155.22182 0,304.8242 -263.9649,152.41016 -263.9961,-152.41016 0,-304.8242 263.9961,-152.4140824 z m 0,0"
     id="path8421" />
  <path
     style="fill:none;stroke:#000000;stroke-width:1.60000002;stroke-linecap:round;stroke-linejoin:round;stroke-miterlimit:4;stroke-dasharray:none;stroke-opacity:1"
     d="m 1586.8011,612.44838 0,304.8242 -263.9883,152.41012 -263.9844,-152.41012 0,-304.8242 263.9844,-152.41406 z m 0,0"
     id="path8427" />
  <path
     style="fill:none;stroke:#000000;stroke-width:1.60000002;stroke-linecap:round;stroke-linejoin:round;stroke-miterlimit:4;stroke-dasharray:none;stroke-opacity:1"
     d="m 2114.7815,612.44838 0,304.8242 -263.9961,152.41012 -263.9843,-152.41012 0,-304.8242 263.9843,-152.41406 z m 0,0"
     id="path8429" />
  <g
     transform="translate(286.47597,-310.92378)"
     id="g8707">
    <path
       id="path8521"
       d="m 3440.3178,2637.5108 0,-0.4769 0.03,-0.4769 0,-0.4471 0.03,-0.447 0.03,-0.3875 0.03,-0.3875 0.06,-0.3874 0.089,-0.3279 0.089,-0.3577 0.1192,-0.298 0.1491,-0.2981 0.149,-0.2682 0.1788,-0.2683 0.2385,-0.2384 0.2384,-0.2384 0.2683,-0.2087 0.3278,-0.1788 0.3577,-0.1788 0.1788,-0.09 0.2086,-0.089 0.2087,-0.06 0.2086,-0.089 0.2385,-0.06 0.2384,-0.06 0.2384,-0.06 0.2683,-0.06 0.2682,-0.06 0.2981,-0.06 0.298,-0.06 0.3279,-0.03 0.298,-0.03 0.3577,-0.06 0.3279,-0.03 0.3874,-0.03 0.3577,-0.03 0.3875,-0.03 0.4172,-0.03 0.4173,-0.03 0.4471,0 0.4471,-0.03 0.447,0 0.4769,-0.03 0.5067,0 0.5067,0 0.5067,0 0.5663,0 3.8449,0 0,-4.6198 c -5.2159,0.4768 -16.9294,0.4768 -22.5626,0.4768 -5.7822,0 -17.5254,0 -22.7414,-0.4768 l 0,4.6198 3.8747,0 c 11.7135,0 12.1904,1.6094 12.1904,6.9744 l 0,78.2387 c 0,5.3649 -0.4769,6.9744 -12.1904,6.9744 l -3.8747,0 0,4.6198 c 5.216,-0.4769 16.9592,-0.4769 22.5924,-0.4769 5.7822,0 17.4957,0 22.7116,0.4769 l 0,-4.6198 -3.8449,0 c -11.7433,0 -12.2201,-1.6095 -12.2201,-6.9744 z"
       style="font-style:normal;font-variant:normal;font-weight:normal;font-stretch:normal;letter-spacing:normal;word-spacing:normal;text-anchor:start;fill:#000000;fill-opacity:1;fill-rule:evenodd;stroke:#000000;stroke-width:0;stroke-linecap:butt;stroke-linejoin:miter;stroke-miterlimit:10.43299961;stroke-dasharray:none;stroke-dashoffset:0;stroke-opacity:1" />
    <path
       id="path8523"
       d="m 3476.9186,2676.2576 0,39.8197 c 0,6.6466 -1.6095,6.6466 -11.5943,6.6466 l 0,4.6198 c 5.2159,-0.149 12.7567,-0.4769 16.7804,-0.4769 3.8746,0 11.5942,0.3279 16.6313,0.4769 l 0,-4.6198 c -9.9252,0 -11.5645,0 -11.5645,-6.6466 l 0,-27.3314 c 0,-15.4689 10.5213,-23.7547 20.0292,-23.7547 9.3588,0 10.9981,8.0176 10.9981,16.4823 l 0,34.6038 c 0,6.6466 -1.6393,6.6466 -11.5943,6.6466 l 0,4.6198 c 5.216,-0.149 12.7865,-0.4769 16.8102,-0.4769 3.8449,0 11.5346,0.3279 16.6313,0.4769 l 0,-4.6198 c -7.7494,0 -11.475,0 -11.5942,-4.4708 l 0,-28.3448 c 0,-12.7566 0,-17.3764 -4.6198,-22.6817 -2.0566,-2.5633 -7.0043,-5.4842 -15.5584,-5.4842 -10.8491,0 -17.8235,6.3783 -21.9962,15.5285 l 0,-15.5285 -20.9531,1.6095 0,4.6198 c 10.402,0 11.5943,1.0134 11.5943,8.2859 z"
       style="font-style:normal;font-variant:normal;font-weight:normal;font-stretch:normal;letter-spacing:normal;word-spacing:normal;text-anchor:start;fill:#000000;fill-opacity:1;fill-rule:evenodd;stroke:#000000;stroke-width:0;stroke-linecap:butt;stroke-linejoin:miter;stroke-miterlimit:10.43299961;stroke-dasharray:none;stroke-dashoffset:0;stroke-opacity:1" />
    <path
       id="path8525"
       d="m 3564.6055,2667.9717 21.2511,0 0,-4.6198 -21.2511,0 0,-27.3314 -3.7257,0 c -0.149,12.1605 -4.6198,28.0765 -19.1349,28.6428 l 0,3.3084 12.6076,0 0,40.9822 c 0,18.2408 13.7998,20.0291 19.1647,20.0291 10.5213,0 14.694,-10.5213 14.694,-20.0291 l 0,-8.4647 -3.7256,0 0,8.1368 c 0,10.9981 -4.4708,16.6313 -9.955,16.6313 -9.9251,0 -9.9251,-13.5017 -9.9251,-16.0352 z"
       style="font-style:normal;font-variant:normal;font-weight:normal;font-stretch:normal;letter-spacing:normal;word-spacing:normal;text-anchor:start;fill:#000000;fill-opacity:1;fill-rule:evenodd;stroke:#000000;stroke-width:0;stroke-linecap:butt;stroke-linejoin:miter;stroke-miterlimit:10.43299961;stroke-dasharray:none;stroke-dashoffset:0;stroke-opacity:1" />
    <path
       id="path8527"
       d="m 3612.9793,2693.0379 0.1193,-3.1296 c 0.8941,-22.1154 13.3825,-25.8113 18.4494,-25.8113 15.2603,0 16.7505,20.0291 16.7505,25.8113 l -35.1999,0 -0.1193,3.1296 41.4293,0 c 3.2786,0 3.666,0 3.666,-3.1296 0,-14.6641 -7.9878,-29.06 -26.5266,-29.06 -17.2274,0 -30.9378,15.2602 -30.9378,33.8587 0,19.8801 15.6179,34.276 32.6963,34.276 18.1216,0 24.7681,-16.4823 24.7681,-19.284 0,-1.4903 -1.1326,-1.8181 -1.8777,-1.8181 -1.371,0 -1.6393,0.8941 -1.9671,2.0863 -5.1861,15.2901 -18.5389,15.2901 -20.0291,15.2901 -7.4513,0 -13.3826,-4.441 -16.7506,-9.9251 -4.4708,-7.1235 -4.4708,-16.9592 -4.4708,-22.2943 z"
       style="font-style:normal;font-variant:normal;font-weight:normal;font-stretch:normal;letter-spacing:normal;word-spacing:normal;text-anchor:start;fill:#000000;fill-opacity:1;fill-rule:evenodd;stroke:#000000;stroke-width:0;stroke-linecap:butt;stroke-linejoin:miter;stroke-miterlimit:10.43299961;stroke-dasharray:none;stroke-dashoffset:0;stroke-opacity:1" />
    <path
       id="path8529"
       d="m 3687.0453,2678.0161 0,-16.2737 -20.6252,1.6095 0,4.6198 c 10.402,0 11.5942,1.0134 11.5942,8.2859 l 0,39.8197 c 0,6.6466 -1.6095,6.6466 -11.5942,6.6466 l 0,4.6198 c 5.812,-0.149 12.7566,-0.4769 16.9592,-0.4769 5.9014,0 12.9056,0 18.8667,0.4769 l 0,-4.6198 -3.1296,0 c -10.9981,0 -11.326,-1.6095 -11.326,-6.9744 l 0,-22.8606 c 0,-14.6642 6.2591,-27.8977 17.5851,-27.8977 1.0134,0 1.2816,0 1.6095,0.149 -0.4769,0.1192 -3.4574,1.9075 -3.4574,5.7524 0,4.2026 3.1295,6.3783 6.4379,6.3783 2.6527,0 6.3783,-1.7585 6.3783,-6.4975 0,-4.7688 -4.6198,-9.031 -10.9683,-9.031 -10.8789,0 -16.214,9.8953 -18.3302,16.2737 z"
       style="font-style:normal;font-variant:normal;font-weight:normal;font-stretch:normal;letter-spacing:normal;word-spacing:normal;text-anchor:start;fill:#000000;fill-opacity:1;fill-rule:evenodd;stroke:#000000;stroke-width:0;stroke-linecap:butt;stroke-linejoin:miter;stroke-miterlimit:10.43299961;stroke-dasharray:none;stroke-dashoffset:0;stroke-opacity:1" />
    <path
       id="path8531"
       d="m 3746.8346,2661.7424 -20.7743,1.6095 0,4.6198 c 9.6569,0 10.9981,0.8942 10.9981,8.1368 l 0,39.9688 c 0,6.6466 -1.6392,6.6466 -11.5942,6.6466 l 0,4.6198 c 4.739,-0.149 12.7566,-0.4769 16.3631,-0.4769 5.1861,0 10.3722,0.3279 15.4391,0.4769 l 0,-4.6198 c -9.8059,0 -10.4318,-0.7451 -10.4318,-6.4976 z"
       style="font-style:normal;font-variant:normal;font-weight:normal;font-stretch:normal;letter-spacing:normal;word-spacing:normal;text-anchor:start;fill:#000000;fill-opacity:1;fill-rule:evenodd;stroke:#000000;stroke-width:0;stroke-linecap:butt;stroke-linejoin:miter;stroke-miterlimit:10.43299961;stroke-dasharray:none;stroke-dashoffset:0;stroke-opacity:1" />
    <path
       id="path8533"
       d="m 3747.4605,2635.8715 -0.03,-0.4173 -0.03,-0.4471 -0.06,-0.4172 -0.06,-0.4173 -0.089,-0.3875 -0.1192,-0.3874 -0.1192,-0.3875 -0.1491,-0.3577 -0.1788,-0.3576 -0.1788,-0.3577 -0.1788,-0.3279 -0.2087,-0.298 -0.2384,-0.2981 -0.2385,-0.298 -0.2384,-0.2981 -0.2683,-0.2384 -0.298,-0.2682 -0.2683,-0.2385 -0.298,-0.2086 -0.3279,-0.2087 -0.3278,-0.2086 -0.3279,-0.1788 -0.3278,-0.1491 -0.3577,-0.149 -0.3279,-0.1192 -0.3576,-0.1192 -0.3875,-0.089 -0.3576,-0.09 -0.3875,-0.06 -0.3875,-0.03 -0.3874,-0.03 -0.3875,-0.03 c -4.59,0 -7.8686,4.0237 -7.8686,7.8686 0,4.0237 3.2786,7.8686 7.8686,7.8686 4.1727,0 7.8984,-3.0998 7.8984,-7.8686 z"
       style="font-style:normal;font-variant:normal;font-weight:normal;font-stretch:normal;letter-spacing:normal;word-spacing:normal;text-anchor:start;fill:#000000;fill-opacity:1;fill-rule:evenodd;stroke:#000000;stroke-width:0;stroke-linecap:butt;stroke-linejoin:miter;stroke-miterlimit:10.43299961;stroke-dasharray:none;stroke-dashoffset:0;stroke-opacity:1" />
    <path
       id="path8535"
       d="m 3831.6602,2695.5713 -0.06,-1.7585 -0.1192,-1.7585 -0.2087,-1.7287 -0.298,-1.6989 -0.3577,-1.6691 -0.4471,-1.6393 -0.5365,-1.6094 -0.5961,-1.5797 -0.6557,-1.5201 -0.7153,-1.4902 -0.8048,-1.4605 -0.8643,-1.4008 -0.924,-1.3711 -0.9835,-1.3114 -1.0134,-1.2816 -1.1028,-1.1922 -1.1326,-1.1624 -1.1922,-1.1028 -1.2518,-1.0432 -1.2817,-0.9538 -1.3412,-0.924 -1.371,-0.8345 -1.4307,-0.7749 -1.4306,-0.7154 -1.4903,-0.6259 -1.5201,-0.5365 -1.5498,-0.4768 -1.6095,-0.3875 -1.5797,-0.3279 -1.6393,-0.2086 -1.6691,-0.149 -1.6691,-0.03 -0.149,3.2487 c 6.5274,0 12.9057,3.2786 16.7804,9.6569 3.8746,6.3783 3.8746,14.992 3.8746,20.6252 0,5.365 0,13.3528 -3.2785,19.8801 -3.2488,6.7062 -9.7762,10.9981 -17.2275,10.9981 l 0,0 c -6.3783,0 -12.9056,-3.1295 -16.8995,-9.9251 -3.7257,-6.5572 -3.7257,-15.5881 -3.7257,-20.9531 0,-5.7822 0,-13.7998 3.5469,-20.3569 4.0237,-6.7956 10.9683,-9.9252 16.9293,-9.9252 l 0.149,-3.2487 c -18.5388,0 -32.9645,16.1544 -32.9645,34.723 0,19.1648 15.4391,33.4117 32.8155,33.4117 17.9726,0 32.9944,-14.545 32.9944,-33.4117 z"
       style="font-style:normal;font-variant:normal;font-weight:normal;font-stretch:normal;letter-spacing:normal;word-spacing:normal;text-anchor:start;fill:#000000;fill-opacity:1;fill-rule:evenodd;stroke:#000000;stroke-width:0;stroke-linecap:butt;stroke-linejoin:miter;stroke-miterlimit:10.43299961;stroke-dasharray:none;stroke-dashoffset:0;stroke-opacity:1" />
    <path
       id="path8537"
       d="m 3860.8693,2678.0161 0,-16.2737 -20.6252,1.6095 0,4.6198 c 10.3722,0 11.5644,1.0134 11.5644,8.2859 l 0,39.8197 c 0,6.6466 -1.6095,6.6466 -11.5644,6.6466 l 0,4.6198 c 5.812,-0.149 12.7566,-0.4769 16.9293,-0.4769 5.9313,0 12.9057,0 18.8667,0.4769 l 0,-4.6198 -3.1295,0 c -10.9683,0 -11.2962,-1.6095 -11.2962,-6.9744 l 0,-22.8606 c 0,-14.6642 6.2293,-27.8977 17.5553,-27.8977 1.0134,0 1.3114,0 1.6095,0.149 -0.4471,0.1192 -3.4276,1.9075 -3.4276,5.7524 0,4.2026 3.1295,6.3783 6.4081,6.3783 2.6825,0 6.4081,-1.7585 6.4081,-6.4975 0,-4.7688 -4.6198,-9.031 -10.9981,-9.031 -10.8491,0 -16.214,9.8953 -18.3004,16.2737 z"
       style="font-style:normal;font-variant:normal;font-weight:normal;font-stretch:normal;letter-spacing:normal;word-spacing:normal;text-anchor:start;fill:#000000;fill-opacity:1;fill-rule:evenodd;stroke:#000000;stroke-width:0;stroke-linecap:butt;stroke-linejoin:miter;stroke-miterlimit:10.43299961;stroke-dasharray:none;stroke-dashoffset:0;stroke-opacity:1" />
    <path
       id="path8539"
       d="m 3961.4619,2694.9752 0.03,-1.1326 0.03,-1.073 0.03,-1.0729 0.06,-1.0432 0.089,-1.0134 0.089,-1.0134 0.09,-0.9537 0.149,-0.9538 0.1192,-0.924 0.149,-0.8941 0.1789,-0.8644 0.1788,-0.8643 0.3875,-1.6393 0.447,-1.5201 0.5067,-1.4604 0.5365,-1.3711 0.5961,-1.2816 0.6259,-1.1922 0.6558,-1.1326 0.6855,-1.0432 0.7153,-0.9538 0.7451,-0.8941 0.775,-0.8346 0.7749,-0.7749 0.8047,-0.6855 0.8346,-0.6259 0.8345,-0.5663 0.8346,-0.4769 0.8345,-0.4471 0.8346,-0.3875 0.8643,-0.3576 0.8346,-0.2683 0.8345,-0.2384 0.8048,-0.1788 0.8047,-0.1491 0.8047,-0.089 0.775,-0.06 0.7451,-0.03 c 1.3114,0 10.6703,0.149 15.8862,5.514 -6.1101,0.447 -7.0042,4.888 -7.0042,6.8254 0,3.8746 2.6526,6.8552 6.8552,6.8552 3.815,0 6.7955,-2.5633 6.7955,-6.9745 0,-10.1039 -11.2663,-15.8861 -22.7115,-15.8861 -18.5389,0 -32.2493,16.0054 -32.2493,34.425 0,18.9859 14.7238,33.7097 31.9512,33.7097 19.8801,0 24.6489,-17.8533 24.6489,-19.284 0,-1.4903 -1.4902,-1.4903 -1.9075,-1.4903 -1.371,0 -1.6393,0.5663 -1.9672,1.4903 -4.2919,13.77 -13.919,15.5583 -19.4329,15.5583 -7.8388,0 -20.9531,-6.3783 -20.9531,-30.2821 z"
       style="font-style:normal;font-variant:normal;font-weight:normal;font-stretch:normal;letter-spacing:normal;word-spacing:normal;text-anchor:start;fill:#000000;fill-opacity:1;fill-rule:evenodd;stroke:#000000;stroke-width:0;stroke-linecap:butt;stroke-linejoin:miter;stroke-miterlimit:10.43299961;stroke-dasharray:none;stroke-dashoffset:0;stroke-opacity:1" />
    <path
       id="path8541"
       d="m 4026.3776,2693.0379 0.1491,-3.1296 c 0.8941,-22.1154 13.3825,-25.8113 18.4494,-25.8113 15.2901,0 16.7803,20.0291 16.7803,25.8113 l -35.2297,0 -0.1491,3.1296 41.4591,0 c 3.2488,0 3.6958,0 3.6958,-3.1296 0,-14.6641 -8.0176,-29.06 -26.5564,-29.06 -17.2274,0 -30.908,15.2602 -30.908,33.8587 0,19.8801 15.5881,34.276 32.6665,34.276 18.1216,0 24.7979,-16.4823 24.7979,-19.284 0,-1.4903 -1.1922,-1.8181 -1.9373,-1.8181 -1.3412,0 -1.6095,0.8941 -1.9373,2.0863 -5.1563,15.2901 -18.5389,15.2901 -20.0291,15.2901 -7.4513,0 -13.3528,-4.441 -16.7804,-9.9251 -4.4708,-7.1235 -4.4708,-16.9592 -4.4708,-22.2943 z"
       style="font-style:normal;font-variant:normal;font-weight:normal;font-stretch:normal;letter-spacing:normal;word-spacing:normal;text-anchor:start;fill:#000000;fill-opacity:1;fill-rule:evenodd;stroke:#000000;stroke-width:0;stroke-linecap:butt;stroke-linejoin:miter;stroke-miterlimit:10.43299961;stroke-dasharray:none;stroke-dashoffset:0;stroke-opacity:1" />
    <path
       id="path8543"
       d="m 4101.9935,2624.2773 -21.4002,1.6393 0,4.6198 c 10.402,0 11.5942,1.0133 11.5942,8.3156 l 0,77.2253 c 0,6.6466 -1.6094,6.6466 -11.5942,6.6466 l 0,4.6198 c 4.8881,-0.149 12.7566,-0.4769 16.4823,-0.4769 3.7257,0 10.9981,0.3279 16.4823,0.4769 l 0,-4.6198 c -9.955,0 -11.5644,0 -11.5644,-6.6466 z"
       style="font-style:normal;font-variant:normal;font-weight:normal;font-stretch:normal;letter-spacing:normal;word-spacing:normal;text-anchor:start;fill:#000000;fill-opacity:1;fill-rule:evenodd;stroke:#000000;stroke-width:0;stroke-linecap:butt;stroke-linejoin:miter;stroke-miterlimit:10.43299961;stroke-dasharray:none;stroke-dashoffset:0;stroke-opacity:1" />
    <path
       id="path8545"
       d="m 4143.0948,2624.2773 -21.3703,1.6393 0,4.6198 c 10.3722,0 11.5942,1.0133 11.5942,8.3156 l 0,77.2253 c 0,6.6466 -1.6392,6.6466 -11.5942,6.6466 l 0,4.6198 c 4.8881,-0.149 12.7566,-0.4769 16.4823,-0.4769 3.7256,0 10.9981,0.3279 16.4823,0.4769 l 0,-4.6198 c -9.955,0 -11.5943,0 -11.5943,-6.6466 z"
       style="font-style:normal;font-variant:normal;font-weight:normal;font-stretch:normal;letter-spacing:normal;word-spacing:normal;text-anchor:start;fill:#000000;fill-opacity:1;fill-rule:evenodd;stroke:#000000;stroke-width:0;stroke-linecap:butt;stroke-linejoin:miter;stroke-miterlimit:10.43299961;stroke-dasharray:none;stroke-dashoffset:0;stroke-opacity:1" />
    <path
       id="path8547"
       d="m 4188.816,2698.522 0.3577,0.06 0.3577,0.06 0.447,0.089 0.4471,0.1192 0.5067,0.1192 0.5365,0.1192 0.5663,0.1491 0.5961,0.1788 0.5961,0.1788 0.6259,0.2087 0.6557,0.2384 0.6558,0.2385 0.6557,0.298 0.6557,0.2981 0.6557,0.3278 0.6557,0.3577 0.6259,0.4173 0.6557,0.4172 0.5961,0.4471 0.5961,0.4769 0.5663,0.5365 0.5365,0.5663 0.5067,0.5961 0.4769,0.6259 0.4173,0.6557 0.2086,0.3577 0.1789,0.3576 0.1788,0.3875 0.149,0.3577 0.149,0.4172 0.1193,0.3875 0.149,0.4173 0.089,0.4173 0.089,0.447 0.089,0.4471 0.06,0.4769 0.03,0.4471 0.03,0.5067 0,0.4768 c 0,7.5408 -5.2159,13.5018 -16.7505,13.5018 -12.4884,0 -17.8533,-8.4647 -20.6848,-21.0723 -0.4173,-1.9075 -0.5663,-2.5334 -2.0566,-2.5334 -1.9373,0 -1.9373,1.0432 -1.9373,3.7256 l 0,19.6119 c 0,2.5036 0,3.5468 1.6095,3.5468 0.7451,0 0.8941,-0.1491 3.7256,-2.9805 0.2981,-0.2981 0.2981,-0.5663 2.9806,-3.3978 6.5273,6.2292 13.2335,6.3783 16.363,6.3783 17.0486,0 23.874,-9.9848 23.874,-20.6252 0,-7.8686 -4.4708,-12.3394 -6.2293,-14.1277 -4.888,-4.739 -10.7001,-5.961 -16.9592,-7.1234 -8.2858,-1.6393 -18.2408,-3.5767 -18.2408,-12.1904 0,-5.1861 3.8449,-11.2663 16.6016,-11.2663 16.363,0 17.1081,13.3527 17.3764,17.9725 0.2086,1.3412 1.4903,1.3412 1.8181,1.3412 1.9075,0 1.9075,-0.7451 1.9075,-3.5766 l 0,-14.992 c 0,-2.5335 0,-3.5468 -1.6094,-3.5468 -0.7452,0 -1.0432,0 -2.9806,1.7585 -0.4172,0.6259 -1.9075,1.9075 -2.5334,2.3844 -5.6332,-4.1429 -11.7433,-4.1429 -13.9786,-4.1429 -18.0918,0 -23.725,9.9251 -23.725,18.2408 0,5.1861 2.3546,9.3588 6.3783,12.6374 4.739,3.8448 8.9416,4.739 19.582,6.7955 z"
       style="font-style:normal;font-variant:normal;font-weight:normal;font-stretch:normal;letter-spacing:normal;word-spacing:normal;text-anchor:start;fill:#000000;fill-opacity:1;fill-rule:evenodd;stroke:#000000;stroke-width:0;stroke-linecap:butt;stroke-linejoin:miter;stroke-miterlimit:10.43299961;stroke-dasharray:none;stroke-dashoffset:0;stroke-opacity:1" />
  </g>
  <g
     transform="translate(-333.68208,-1721.9256)"
     id="g8723">
    <path
       id="path8549"
       d="m 4286.5473,2715.7495 0,0.4768 -0.03,0.4769 0,0.4471 -0.03,0.4471 0,0.3875 -0.06,0.3874 -0.06,0.3875 -0.06,0.3278 -0.089,0.3577 -0.1192,0.2981 -0.1193,0.298 -0.149,0.2683 -0.1788,0.2682 -0.2087,0.2384 -0.2384,0.2385 -0.2682,0.2086 -0.2981,0.1789 -0.3279,0.1788 -0.1788,0.089 -0.1788,0.089 -0.2087,0.06 -0.2086,0.089 -0.2384,0.06 -0.2087,0.06 -0.2682,0.06 -0.2385,0.06 -0.2682,0.06 -0.2683,0.06 -0.298,0.06 -0.2981,0.03 -0.3278,0.03 -0.2981,0.06 -0.3576,0.03 -0.3577,0.03 -0.3577,0.03 -0.3874,0.03 -0.3875,0.03 -0.3875,0.03 -0.4172,0 -0.4471,0.03 -0.4471,0 -0.4769,0.03 -0.4769,0 -0.4768,0 -0.5067,0 -0.5365,0 -3.5766,0 0,4.6198 85.6899,0 6.2293,-38.3295 -3.7256,0 c -3.6959,22.8606 -7.1235,33.7097 -32.6367,33.7097 l -19.7609,0 c -6.9744,0 -7.3023,-1.0134 -7.3023,-5.9015 l 0,-39.6707 13.3528,0 c 14.4555,0 16.065,4.739 16.065,17.3765 l 3.6958,0 0,-39.3727 -3.6958,0 c 0,12.8162 -1.6095,17.3764 -16.065,17.3764 l -13.3528,0 0,-35.6172 c 0,-4.8881 0.3279,-5.9313 7.3023,-5.9313 l 19.135,0 c 22.7413,0 26.7352,8.1667 29.1197,28.7919 l 3.7256,0 -4.2025,-33.3819 -83.5738,0 0,4.59 3.5766,0 c 11.4154,0 11.7432,1.6393 11.7432,6.9447 z"
       style="font-style:normal;font-variant:normal;font-weight:normal;font-stretch:normal;letter-spacing:normal;word-spacing:normal;text-anchor:start;fill:#000000;fill-opacity:1;fill-rule:evenodd;stroke:#000000;stroke-width:0;stroke-linecap:butt;stroke-linejoin:miter;stroke-miterlimit:10.43299961;stroke-dasharray:none;stroke-dashoffset:0;stroke-opacity:1" />
    <path
       id="path8551"
       d="m 4410.1495,2692.4716 0.8346,-1.073 0.8942,-1.1028 0.8941,-1.1326 0.8942,-1.1624 1.8181,-2.3248 0.9239,-1.1326 0.924,-1.1624 0.8942,-1.1028 0.8643,-1.1028 0.8644,-1.0432 0.8345,-1.0133 0.4173,-0.4769 0.3874,-0.4769 0.3875,-0.4769 0.3875,-0.4471 0.3875,-0.4172 0.3576,-0.4173 0.3279,-0.3875 0.3576,-0.3576 c 4.59,-5.3054 10.7001,-7.5408 17.6745,-7.6898 l 0,-4.6198 c -3.8448,0.2981 -8.3156,0.4173 -12.1903,0.4173 -4.4112,0 -12.2798,-0.2683 -14.2469,-0.4173 l 0,4.6198 c 3.1295,0.2683 4.3218,2.1758 4.3218,4.5602 0,2.3844 -1.4903,4.3218 -2.2354,5.2159 l -9.2098,11.5942 -11.5645,-14.992 c -1.3412,-1.4902 -1.3412,-1.8181 -1.3412,-2.7123 0,-2.2353 2.2354,-3.517 5.1861,-3.666 l 0,-4.6198 c -3.8449,0.149 -13.6508,0.4173 -16.0352,0.4173 -3.1295,0 -10.104,-0.1192 -14.0979,-0.4173 l 0,4.6198 c 10.3723,0 10.5511,0.149 17.4957,9.031 l 14.7238,19.1349 -13.9787,17.7043 c -7.1234,8.6137 -15.8862,8.882 -18.9859,8.882 l 0,4.6198 c 3.8449,-0.2683 8.4647,-0.4769 12.3394,-0.4769 4.2621,0 10.5212,0.3279 14.0978,0.4769 l 0,-4.6198 c -3.2487,-0.4173 -4.3217,-2.3546 -4.3217,-4.59 0,-3.2786 4.3217,-8.1667 13.3527,-18.8667 l 11.326,14.843 c 1.1624,1.6393 3.1295,4.0237 3.1295,4.888 0,1.3711 -1.371,3.6065 -5.3649,3.7257 l 0,4.6198 c 4.4112,-0.149 12.7566,-0.4769 16.0054,-0.4769 4.0237,0 9.8357,0.2086 14.2767,0.4769 l 0,-4.6198 c -8.0176,0 -10.6703,-0.2683 -14.1277,-4.59 z"
       style="font-style:normal;font-variant:normal;font-weight:normal;font-stretch:normal;letter-spacing:normal;word-spacing:normal;text-anchor:start;fill:#000000;fill-opacity:1;fill-rule:evenodd;stroke:#000000;stroke-width:0;stroke-linecap:butt;stroke-linejoin:miter;stroke-miterlimit:10.43299961;stroke-dasharray:none;stroke-dashoffset:0;stroke-opacity:1" />
    <path
       id="path8553"
       d="m 4471.5781,2667.9717 21.2213,0 0,-4.6198 -21.2213,0 0,-27.3314 -3.7257,0 c -0.149,12.1605 -4.6198,28.0765 -19.1647,28.6428 l 0,3.3084 12.6374,0 0,40.9822 c 0,18.2408 13.77,20.0291 19.1349,20.0291 10.5213,0 14.7238,-10.5213 14.7238,-20.0291 l 0,-8.4647 -3.7256,0 0,8.1368 c 0,10.9981 -4.4708,16.6313 -9.9848,16.6313 -9.8953,0 -9.8953,-13.5017 -9.8953,-16.0352 z"
       style="font-style:normal;font-variant:normal;font-weight:normal;font-stretch:normal;letter-spacing:normal;word-spacing:normal;text-anchor:start;fill:#000000;fill-opacity:1;fill-rule:evenodd;stroke:#000000;stroke-width:0;stroke-linecap:butt;stroke-linejoin:miter;stroke-miterlimit:10.43299961;stroke-dasharray:none;stroke-dashoffset:0;stroke-opacity:1" />
    <path
       id="path8555"
       d="m 4519.9221,2693.0379 0.1193,-3.1296 c 0.8941,-22.1154 13.3825,-25.8113 18.4494,-25.8113 15.2901,0 16.7803,20.0291 16.7803,25.8113 l -35.2297,0 -0.1193,3.1296 41.4293,0 c 3.2786,0 3.6958,0 3.6958,-3.1296 0,-14.6641 -8.0176,-29.06 -26.5564,-29.06 -17.2274,0 -30.908,15.2602 -30.908,33.8587 0,19.8801 15.5881,34.276 32.6963,34.276 18.0918,0 24.7681,-16.4823 24.7681,-19.284 0,-1.4903 -1.1624,-1.8181 -1.9075,-1.8181 -1.371,0 -1.6393,0.8941 -1.9671,2.0863 -5.1563,15.2901 -18.5389,15.2901 -20.0291,15.2901 -7.4513,0 -13.3528,-4.441 -16.7506,-9.9251 -4.4708,-7.1235 -4.4708,-16.9592 -4.4708,-22.2943 z"
       style="font-style:normal;font-variant:normal;font-weight:normal;font-stretch:normal;letter-spacing:normal;word-spacing:normal;text-anchor:start;fill:#000000;fill-opacity:1;fill-rule:evenodd;stroke:#000000;stroke-width:0;stroke-linecap:butt;stroke-linejoin:miter;stroke-miterlimit:10.43299961;stroke-dasharray:none;stroke-dashoffset:0;stroke-opacity:1" />
    <path
       id="path8557"
       d="m 4594.0179,2678.0161 0,-16.2737 -20.6252,1.6095 0,4.6198 c 10.3722,0 11.5942,1.0134 11.5942,8.2859 l 0,39.8197 c 0,6.6466 -1.6393,6.6466 -11.5942,6.6466 l 0,4.6198 c 5.812,-0.149 12.7566,-0.4769 16.9294,-0.4769 5.9312,0 12.9056,0 18.8667,0.4769 l 0,-4.6198 -3.1296,0 c -10.9683,0 -11.2962,-1.6095 -11.2962,-6.9744 l 0,-22.8606 c 0,-14.6642 6.2293,-27.8977 17.5553,-27.8977 1.0134,0 1.3114,0 1.6095,0.149 -0.4471,0.1192 -3.4276,1.9075 -3.4276,5.7524 0,4.2026 3.1295,6.3783 6.4081,6.3783 2.6825,0 6.3783,-1.7585 6.3783,-6.4975 0,-4.7688 -4.59,-9.031 -10.9683,-9.031 -10.8491,0 -16.214,9.8953 -18.3004,16.2737 z"
       style="font-style:normal;font-variant:normal;font-weight:normal;font-stretch:normal;letter-spacing:normal;word-spacing:normal;text-anchor:start;fill:#000000;fill-opacity:1;fill-rule:evenodd;stroke:#000000;stroke-width:0;stroke-linecap:butt;stroke-linejoin:miter;stroke-miterlimit:10.43299961;stroke-dasharray:none;stroke-dashoffset:0;stroke-opacity:1" />
    <path
       id="path8559"
       d="m 4653.7774,2661.7424 -20.7445,1.6095 0,4.6198 c 9.6271,0 10.9683,0.8942 10.9683,8.1368 l 0,39.9688 c 0,6.6466 -1.6094,6.6466 -11.5942,6.6466 l 0,4.6198 c 4.7688,-0.149 12.7864,-0.4769 16.3631,-0.4769 5.2159,0 10.3722,0.3279 15.4391,0.4769 l 0,-4.6198 c -9.8059,0 -10.4318,-0.7451 -10.4318,-6.4976 z"
       style="font-style:normal;font-variant:normal;font-weight:normal;font-stretch:normal;letter-spacing:normal;word-spacing:normal;text-anchor:start;fill:#000000;fill-opacity:1;fill-rule:evenodd;stroke:#000000;stroke-width:0;stroke-linecap:butt;stroke-linejoin:miter;stroke-miterlimit:10.43299961;stroke-dasharray:none;stroke-dashoffset:0;stroke-opacity:1" />
    <path
       id="path8561"
       d="m 4654.4033,2635.8715 0,-0.4173 -0.06,-0.4471 -0.03,-0.4172 -0.089,-0.4173 -0.089,-0.3875 -0.1192,-0.3874 -0.1192,-0.3875 -0.1491,-0.3577 -0.149,-0.3576 -0.1788,-0.3577 -0.2086,-0.3279 -0.2087,-0.298 -0.2384,-0.2981 -0.2385,-0.298 -0.2384,-0.2981 -0.2683,-0.2384 -0.2682,-0.2682 -0.2981,-0.2385 -0.298,-0.2086 -0.3279,-0.2087 -0.298,-0.2086 -0.3279,-0.1788 -0.3576,-0.1491 -0.3279,-0.149 -0.3577,-0.1192 -0.3576,-0.1192 -0.3577,-0.089 -0.3875,-0.09 -0.3874,-0.06 -0.3577,-0.03 -0.3874,-0.03 -0.3875,-0.03 c -4.6198,0 -7.8686,4.0237 -7.8686,7.8686 0,4.0237 3.2488,7.8686 7.8686,7.8686 4.1429,0 7.8686,-3.0998 7.8686,-7.8686 z"
       style="font-style:normal;font-variant:normal;font-weight:normal;font-stretch:normal;letter-spacing:normal;word-spacing:normal;text-anchor:start;fill:#000000;fill-opacity:1;fill-rule:evenodd;stroke:#000000;stroke-width:0;stroke-linecap:butt;stroke-linejoin:miter;stroke-miterlimit:10.43299961;stroke-dasharray:none;stroke-dashoffset:0;stroke-opacity:1" />
    <path
       id="path8563"
       d="m 4738.603,2695.5713 -0.06,-1.7585 -0.1192,-1.7585 -0.2087,-1.7287 -0.298,-1.6989 -0.3577,-1.6691 -0.4471,-1.6393 -0.5365,-1.6094 -0.5663,-1.5797 -0.6855,-1.5201 -0.7153,-1.4902 -0.8048,-1.4605 -0.8643,-1.4008 -0.924,-1.3711 -0.9537,-1.3114 -1.0432,-1.2816 -1.1028,-1.1922 -1.1326,-1.1624 -1.1922,-1.1028 -1.2518,-1.0432 -1.2817,-0.9538 -1.3412,-0.924 -1.371,-0.8345 -1.4009,-0.7749 -1.4604,-0.7154 -1.4903,-0.6259 -1.5201,-0.5365 -1.5498,-0.4768 -1.5797,-0.3875 -1.6095,-0.3279 -1.6393,-0.2086 -1.6393,-0.149 -1.6989,-0.03 -0.1192,3.2487 c 6.4976,0 12.8759,3.2786 16.7505,9.6569 3.8747,6.3783 3.8747,14.992 3.8747,20.6252 0,5.365 0,13.3528 -3.2785,19.8801 -3.2488,6.7062 -9.7762,10.9981 -17.2275,10.9981 l 0,0 c -6.3783,0 -12.8758,-3.1295 -16.8995,-9.9251 -3.7257,-6.5572 -3.7257,-15.5881 -3.7257,-20.9531 0,-5.7822 0,-13.7998 3.5469,-20.3569 4.0535,-6.7956 10.9981,-9.9252 16.9591,-9.9252 l 0.1192,-3.2487 c -18.5388,0 -32.9645,16.1544 -32.9645,34.723 0,19.1648 15.4689,33.4117 32.8453,33.4117 17.9726,0 32.9646,-14.545 32.9646,-33.4117 z"
       style="font-style:normal;font-variant:normal;font-weight:normal;font-stretch:normal;letter-spacing:normal;word-spacing:normal;text-anchor:start;fill:#000000;fill-opacity:1;fill-rule:evenodd;stroke:#000000;stroke-width:0;stroke-linecap:butt;stroke-linejoin:miter;stroke-miterlimit:10.43299961;stroke-dasharray:none;stroke-dashoffset:0;stroke-opacity:1" />
    <path
       id="path8565"
       d="m 4767.8121,2678.0161 0,-16.2737 -20.6252,1.6095 0,4.6198 c 10.3722,0 11.5942,1.0134 11.5942,8.2859 l 0,39.8197 c 0,6.6466 -1.6393,6.6466 -11.5942,6.6466 l 0,4.6198 c 5.812,-0.149 12.7566,-0.4769 16.9592,-0.4769 5.9014,0 12.8758,0 18.8368,0.4769 l 0,-4.6198 -3.0997,0 c -10.9981,0 -11.326,-1.6095 -11.326,-6.9744 l 0,-22.8606 c 0,-14.6642 6.2293,-27.8977 17.5553,-27.8977 1.0134,0 1.3114,0 1.6393,0.149 -0.4769,0.1192 -3.4574,1.9075 -3.4574,5.7524 0,4.2026 3.1295,6.3783 6.4379,6.3783 2.6527,0 6.3783,-1.7585 6.3783,-6.4975 0,-4.7688 -4.6198,-9.031 -10.9981,-9.031 -10.8491,0 -16.214,9.8953 -18.3004,16.2737 z"
       style="font-style:normal;font-variant:normal;font-weight:normal;font-stretch:normal;letter-spacing:normal;word-spacing:normal;text-anchor:start;fill:#000000;fill-opacity:1;fill-rule:evenodd;stroke:#000000;stroke-width:0;stroke-linecap:butt;stroke-linejoin:miter;stroke-miterlimit:10.43299961;stroke-dasharray:none;stroke-dashoffset:0;stroke-opacity:1" />
    <path
       id="path8567"
       d="m 4868.047,2694.9752 0,-1.1326 0.03,-1.073 0.06,-1.0729 0.06,-1.0432 0.06,-1.0134 0.1192,-1.0134 0.089,-0.9537 0.1192,-0.9538 0.149,-0.924 0.1491,-0.8941 0.1788,-0.8644 0.1788,-0.8643 0.3875,-1.6393 0.4471,-1.5201 0.5067,-1.4604 0.5365,-1.3711 0.5961,-1.2816 0.6259,-1.1922 0.6557,-1.1326 0.6855,-1.0432 0.7153,-0.9538 0.7452,-0.8941 0.7749,-0.8346 0.7749,-0.7749 0.8048,-0.6855 0.8345,-0.6259 0.8048,-0.5663 0.8345,-0.4769 0.8644,-0.4471 0.8345,-0.3875 0.8345,-0.3576 0.8346,-0.2683 0.8345,-0.2384 0.8346,-0.1788 0.8047,-0.1491 0.8048,-0.089 0.7749,-0.06 0.7451,-0.03 c 1.2817,0 10.6405,0.149 15.8564,5.514 -6.0803,0.447 -6.9744,4.888 -6.9744,6.8254 0,3.8746 2.6526,6.8552 6.8552,6.8552 3.8151,0 6.7956,-2.5633 6.7956,-6.9745 0,-10.1039 -11.2664,-15.8861 -22.7414,-15.8861 -18.509,0 -32.2194,16.0054 -32.2194,34.425 0,18.9859 14.7237,33.7097 31.9511,33.7097 19.8801,0 24.649,-17.8533 24.649,-19.284 0,-1.4903 -1.4903,-1.4903 -1.9076,-1.4903 -1.371,0 -1.6393,0.5663 -1.9671,1.4903 -4.292,13.77 -13.9191,15.5583 -19.433,15.5583 -7.8686,0 -20.9531,-6.3783 -20.9531,-30.2821 z"
       style="font-style:normal;font-variant:normal;font-weight:normal;font-stretch:normal;letter-spacing:normal;word-spacing:normal;text-anchor:start;fill:#000000;fill-opacity:1;fill-rule:evenodd;stroke:#000000;stroke-width:0;stroke-linecap:butt;stroke-linejoin:miter;stroke-miterlimit:10.43299961;stroke-dasharray:none;stroke-dashoffset:0;stroke-opacity:1" />
    <path
       id="path8569"
       d="m 4932.9628,2693.0379 0.149,-3.1296 c 0.8942,-22.1154 13.3527,-25.8113 18.4494,-25.8113 15.2603,0 16.7506,20.0291 16.7506,25.8113 l -35.2,0 -0.149,3.1296 41.459,0 c 3.2488,0 3.6661,0 3.6661,-3.1296 0,-14.6641 -7.9878,-29.06 -26.5267,-29.06 -17.2274,0 -30.9378,15.2602 -30.9378,33.8587 0,19.8801 15.6179,34.276 32.6963,34.276 18.1216,0 24.7682,-16.4823 24.7682,-19.284 0,-1.4903 -1.1624,-1.8181 -1.9076,-1.8181 -1.3412,0 -1.6095,0.8941 -1.9373,2.0863 -5.1861,15.2901 -18.5389,15.2901 -20.0291,15.2901 -7.4513,0 -13.3826,-4.441 -16.7803,-9.9251 -4.4708,-7.1235 -4.4708,-16.9592 -4.4708,-22.2943 z"
       style="font-style:normal;font-variant:normal;font-weight:normal;font-stretch:normal;letter-spacing:normal;word-spacing:normal;text-anchor:start;fill:#000000;fill-opacity:1;fill-rule:evenodd;stroke:#000000;stroke-width:0;stroke-linecap:butt;stroke-linejoin:miter;stroke-miterlimit:10.43299961;stroke-dasharray:none;stroke-dashoffset:0;stroke-opacity:1" />
    <path
       id="path8571"
       d="m 5008.5488,2624.2773 -21.3703,1.6393 0,4.6198 c 10.402,0 11.5942,1.0133 11.5942,8.3156 l 0,77.2253 c 0,6.6466 -1.6393,6.6466 -11.5942,6.6466 l 0,4.6198 c 4.888,-0.149 12.7566,-0.4769 16.4822,-0.4769 3.7257,0 10.9982,0.3279 16.4823,0.4769 l 0,-4.6198 c -9.9549,0 -11.5942,0 -11.5942,-6.6466 z"
       style="font-style:normal;font-variant:normal;font-weight:normal;font-stretch:normal;letter-spacing:normal;word-spacing:normal;text-anchor:start;fill:#000000;fill-opacity:1;fill-rule:evenodd;stroke:#000000;stroke-width:0;stroke-linecap:butt;stroke-linejoin:miter;stroke-miterlimit:10.43299961;stroke-dasharray:none;stroke-dashoffset:0;stroke-opacity:1" />
    <path
       id="path8573"
       d="m 5049.7396,2624.2773 -21.43,1.6393 0,4.6198 c 10.4021,0 11.5943,1.0133 11.5943,8.3156 l 0,77.2253 c 0,6.6466 -1.7883,6.6466 -11.5943,6.6466 l 0,4.6198 c 5.0371,-0.149 12.7865,-0.4769 16.3631,-0.4769 3.8747,0 11.0279,0.3279 16.6909,0.4769 l 0,-4.6198 c -10.1337,0 -11.624,0 -11.624,-6.6466 z"
       style="font-style:normal;font-variant:normal;font-weight:normal;font-stretch:normal;letter-spacing:normal;word-spacing:normal;text-anchor:start;fill:#000000;fill-opacity:1;fill-rule:evenodd;stroke:#000000;stroke-width:0;stroke-linecap:butt;stroke-linejoin:miter;stroke-miterlimit:10.43299961;stroke-dasharray:none;stroke-dashoffset:0;stroke-opacity:1" />
    <path
       id="path8575"
       d="m 5095.3416,2698.522 0.298,0.06 0.5961,0.06 0.2981,0.089 0.5961,0.1192 0.298,0.1192 0.5961,0.1192 0.5961,0.1491 0.5961,0.1788 0.5961,0.1788 0.5962,0.2087 0.5961,0.2384 0.5961,0.2385 0.8941,0.298 0.5961,0.2981 0.5961,0.3278 0.5961,0.3577 0.5961,0.4173 0.8942,0.4172 0.5961,0.4471 0.5961,0.4769 0.2981,0.5365 0.5961,0.5663 0.5961,0.5961 0.5961,0.6259 0.298,0.6557 0.2981,0.3577 0,0.3576 0.298,0.3875 0,0.3577 0.2981,0.4172 0,0.3875 0.298,0.4173 0,0.4173 0,0.447 0.2981,0.4471 0,0.4769 0,0.4471 0,0.5067 0,0.4768 c 0,7.5408 -5.0669,13.5018 -16.6909,13.5018 -12.5182,0 -17.8832,-8.4647 -20.5656,-21.0723 -0.5961,-1.9075 -0.5961,-2.5334 -2.0864,-2.5334 -2.0864,0 -2.0864,1.0432 -2.0864,3.7256 l 0,19.6119 c 0,2.5036 0,3.5468 1.4903,3.5468 0.8941,0 1.1922,-0.1491 3.8747,-2.9805 0.298,-0.2981 0.298,-0.5663 2.9805,-3.3978 6.5571,6.2292 13.1143,6.3783 16.3929,6.3783 16.9889,0 23.8441,-9.9848 23.8441,-20.6252 0,-7.8686 -4.4708,-12.3394 -6.2591,-14.1277 -4.7688,-4.739 -10.7298,-5.961 -16.9889,-7.1234 -8.3455,-1.6393 -18.1812,-3.5767 -18.1812,-12.1904 0,-5.1861 3.8747,-11.2663 16.6909,-11.2663 16.3929,0 16.989,13.3527 17.287,17.9725 0.2981,1.3412 1.4903,1.3412 1.7883,1.3412 1.7883,0 1.7883,-0.7451 1.7883,-3.5766 l 0,-14.992 c 0,-2.5335 0,-3.5468 -1.4902,-3.5468 -0.5961,0 -0.8942,0 -2.9805,1.7585 -0.2981,0.6259 -1.7883,1.9075 -2.3844,2.3844 -5.663,-4.1429 -11.9221,-4.1429 -14.0085,-4.1429 -18.1812,0 -23.8442,9.9251 -23.8442,18.2408 0,5.1861 2.3844,9.3588 6.5572,12.6374 4.4708,3.8448 8.9415,4.739 19.3734,6.7955 z"
       style="font-style:normal;font-variant:normal;font-weight:normal;font-stretch:normal;letter-spacing:normal;word-spacing:normal;text-anchor:start;fill:#000000;fill-opacity:1;fill-rule:evenodd;stroke:#000000;stroke-width:0;stroke-linecap:butt;stroke-linejoin:miter;stroke-miterlimit:10.43299961;stroke-dasharray:none;stroke-dashoffset:0;stroke-opacity:1" />
  </g>
  <path
     id="path8739"
     d="m 2398.2653,2048.3658 c 803.1629,86.8975 796.0312,311.5014 1273.4771,318.6133"
     style="fill:none;fill-rule:evenodd;stroke:#000000;stroke-width:8;stroke-linecap:butt;stroke-linejoin:miter;stroke-miterlimit:4;stroke-dasharray:none;stroke-opacity:1;marker-start:url(#marker4904)" />
  <path
     id="path9617"
     d="m 2678.399,1567.9761 781.353,-452.5483"
     style="fill:none;fill-rule:evenodd;stroke:#000000;stroke-width:8;stroke-linecap:butt;stroke-linejoin:miter;stroke-miterlimit:4;stroke-dasharray:none;stroke-opacity:1;marker-start:url(#StopL);marker-end:url(#marker5102)" />
  <path
     style="fill:none;fill-rule:evenodd;stroke:#000000;stroke-width:8;stroke-linecap:butt;stroke-linejoin:miter;stroke-miterlimit:4;stroke-dasharray:none;stroke-opacity:1;marker-start:url(#Arrow2Mstart)"
     d="m 3062.9457,1366.0078 c 195.051,136.395 343.4828,346.8567 972.9567,-310.7117"
     id="path9782" />
</svg>
