<?xml version="1.0" encoding="UTF-8" standalone="no"?>
<svg
   xmlns:dc="http://purl.org/dc/elements/1.1/"
   xmlns:cc="http://creativecommons.org/ns#"
   xmlns:rdf="http://www.w3.org/1999/02/22-rdf-syntax-ns#"
   xmlns:svg="http://www.w3.org/2000/svg"
   xmlns="http://www.w3.org/2000/svg"
   width="2579.78pt"
   height="2174.0769pt"
   viewBox="0 0 2579.78 2174.0769"
   version="1.1"
   id="svg4155">
  <defs
     id="defs4222">
    <marker
       style="overflow:visible"
       id="marker13701"
       refX="0"
       refY="0"
       orient="auto">
      <path
         transform="scale(-0.6,-0.6)"
         d="M 8.7185878,4.0337352 -2.2072895,0.01601326 8.7185884,-4.0017078 c -1.7454984,2.3720609 -1.7354408,5.6174519 -6e-7,8.035443 z"
         style="fill:#000000;fill-opacity:1;fill-rule:evenodd;stroke:#000000;stroke-width:0.625;stroke-linejoin:round;stroke-opacity:1"
         id="path13703" />
    </marker>
    <marker
       style="overflow:visible"
       id="marker13691"
       refX="0"
       refY="0"
       orient="auto">
      <path
         transform="scale(0.6,0.6)"
         d="M 8.7185878,4.0337352 -2.2072895,0.01601326 8.7185884,-4.0017078 c -1.7454984,2.3720609 -1.7354408,5.6174519 -6e-7,8.035443 z"
         style="fill:#000000;fill-opacity:1;fill-rule:evenodd;stroke:#000000;stroke-width:0.625;stroke-linejoin:round;stroke-opacity:1"
         id="path13693" />
    </marker>
    <marker
       orient="auto"
       refY="0"
       refX="0"
       id="Arrow2Mend"
       style="overflow:visible">
      <path
         id="path6339"
         style="fill:#000000;fill-opacity:1;fill-rule:evenodd;stroke:#000000;stroke-width:0.625;stroke-linejoin:round;stroke-opacity:1"
         d="M 8.7185878,4.0337352 -2.2072895,0.01601326 8.7185884,-4.0017078 c -1.7454984,2.3720609 -1.7354408,5.6174519 -6e-7,8.035443 z"
         transform="scale(-0.6,-0.6)" />
    </marker>
    <marker
       orient="auto"
       refY="0"
       refX="0"
       id="Arrow2Mstart"
       style="overflow:visible">
      <path
         id="path6336"
         style="fill:#000000;fill-opacity:1;fill-rule:evenodd;stroke:#000000;stroke-width:0.625;stroke-linejoin:round;stroke-opacity:1"
         d="M 8.7185878,4.0337352 -2.2072895,0.01601326 8.7185884,-4.0017078 c -1.7454984,2.3720609 -1.7354408,5.6174519 -6e-7,8.035443 z"
         transform="scale(0.6,0.6)" />
    </marker>
    <marker
       style="overflow:visible"
       id="marker9784"
       refX="0"
       refY="0"
       orient="auto">
      <path
         transform="matrix(1.1,0,0,1.1,1.1,0)"
         d="M 8.7185878,4.0337352 -2.2072895,0.01601326 8.7185884,-4.0017078 c -1.7454984,2.3720609 -1.7354408,5.6174519 -6e-7,8.035443 z"
         style="fill:#000000;fill-opacity:1;fill-rule:evenodd;stroke:#000000;stroke-width:0.625;stroke-linejoin:round;stroke-opacity:1"
         id="path9786" />
    </marker>
    <marker
       orient="auto"
       refY="0"
       refX="0"
       id="marker9711"
       style="overflow:visible">
      <path
         id="path9713"
         d="M 0,5.65 0,-5.65"
         style="fill:none;fill-opacity:0.75;fill-rule:evenodd;stroke:#000000;stroke-width:1pt;stroke-opacity:1"
         transform="scale(0.4,0.4)" />
    </marker>
    <marker
       orient="auto"
       refY="0"
       refX="0"
       id="StopM"
       style="overflow:visible">
      <path
         id="path6484"
         d="M 0,5.65 0,-5.65"
         style="fill:none;fill-opacity:0.75;fill-rule:evenodd;stroke:#000000;stroke-width:1pt;stroke-opacity:1"
         transform="scale(0.4,0.4)" />
    </marker>
    <marker
       orient="auto"
       refY="0"
       refX="0"
       id="TriangleOutS"
       style="overflow:visible">
      <path
         id="path6460"
         d="m 5.77,0 -8.65,5 0,-10 8.65,5 z"
         style="fill:#000000;fill-opacity:1;fill-rule:evenodd;stroke:#000000;stroke-width:1pt;stroke-opacity:1"
         transform="scale(0.2,0.2)" />
    </marker>
    <marker
       orient="auto"
       refY="0"
       refX="0"
       id="DiamondS"
       style="overflow:visible">
      <path
         id="path6397"
         d="M 0,-7.0710768 -7.0710894,0 0,7.0710589 7.0710462,0 0,-7.0710768 Z"
         style="fill:#000000;fill-opacity:1;fill-rule:evenodd;stroke:#000000;stroke-width:1pt;stroke-opacity:1"
         transform="scale(0.2,0.2)" />
    </marker>
    <marker
       style="overflow:visible"
       id="DistanceStart"
       refX="0"
       refY="0"
       orient="auto">
      <g
         id="g2300"
         style="fill:#000000;fill-opacity:1;stroke:#000000;stroke-opacity:1">
        <path
           style="fill:#000000;fill-opacity:1;stroke:#000000;stroke-width:1.14999998;stroke-linecap:square;stroke-opacity:1"
           d="M 0,0 2,0"
           id="path2306" />
        <path
           style="fill:#000000;fill-opacity:1;fill-rule:evenodd;stroke:#000000;stroke-opacity:1"
           d="M 0,0 13,4 9,0 13,-4 0,0 Z"
           id="path2302" />
        <path
           style="fill:#000000;fill-opacity:1;stroke:#000000;stroke-width:1;stroke-linecap:square;stroke-opacity:1"
           d="M 0,-4 0,40"
           id="path2304" />
      </g>
    </marker>
    <marker
       orient="auto"
       refY="0"
       refX="0"
       id="marker9319"
       style="overflow:visible">
      <path
         id="path9321"
         style="fill:#000000;fill-opacity:1;fill-rule:evenodd;stroke:#000000;stroke-width:0.625;stroke-linejoin:round;stroke-opacity:1"
         d="M 8.7185878,4.0337352 -2.2072895,0.01601326 8.7185884,-4.0017078 c -1.7454984,2.3720609 -1.7354408,5.6174519 -6e-7,8.035443 z"
         transform="matrix(-1.1,0,0,-1.1,-1.1,0)" />
    </marker>
    <marker
       orient="auto"
       refY="0"
       refX="0"
       id="Arrow2Lend"
       style="overflow:visible">
      <path
         id="path6333"
         style="fill:#000000;fill-opacity:1;fill-rule:evenodd;stroke:#000000;stroke-width:0.625;stroke-linejoin:round;stroke-opacity:1"
         d="M 8.7185878,4.0337352 -2.2072895,0.01601326 8.7185884,-4.0017078 c -1.7454984,2.3720609 -1.7354408,5.6174519 -6e-7,8.035443 z"
         transform="matrix(-1.1,0,0,-1.1,-1.1,0)" />
    </marker>
  </defs>
  <path
     id="path4158"
     d="m 991.30393,1104.3783 0,304.8242 -263.9844,152.4102 -263.9844,-152.4102 0,-304.8242 263.9844,-152.41413 z m 0,0"
     style="fill:none;stroke:#000000;stroke-width:5;stroke-linecap:round;stroke-linejoin:round;stroke-miterlimit:4;stroke-dasharray:none;stroke-opacity:1" />
  <path
     id="path4160"
     d="m 1519.2765,1104.3783 0,304.8242 -263.9843,152.4102 -263.98827,-152.4102 0,-304.8242 263.98827,-152.41413 z m 0,0"
     style="fill:none;stroke:#000000;stroke-width:5;stroke-linecap:round;stroke-linejoin:round;stroke-miterlimit:4;stroke-dasharray:none;stroke-opacity:1" />
  <path
     id="path4162"
     d="m 2047.2375,1104.3783 0,304.8242 -263.9649,152.4102 -263.9961,-152.4102 0,-304.8242 263.9961,-152.41413 z m 0,0"
     style="fill:none;stroke:#000000;stroke-width:5;stroke-linecap:round;stroke-linejoin:round;stroke-miterlimit:4;stroke-dasharray:none;stroke-opacity:1" />
  <path
     id="path4164"
     d="m 1255.2922,647.05797 0,304.832 -263.98827,152.41023 -263.9844,-152.41023 0,-304.832 263.9844,-152.40236 z m 0,0"
     style="fill:none;stroke:#000000;stroke-width:5;stroke-linecap:round;stroke-linejoin:round;stroke-miterlimit:4;stroke-dasharray:none;stroke-opacity:1" />
  <path
     id="path4166"
     d="m 1783.2726,647.05797 0,304.832 -263.9961,152.41023 -263.9843,-152.41023 0,-304.832 263.9843,-152.40236 z m 0,0"
     style="fill:none;stroke:#000000;stroke-width:5;stroke-linecap:round;stroke-linejoin:round;stroke-miterlimit:4;stroke-dasharray:none;stroke-opacity:1" />
  <path
     id="path4263"
     d="m 1255.2922,1561.6049 0,304.8242 -263.98827,152.4101 -263.9844,-152.4101 0,-304.8242"
     style="fill:none;stroke:#000000;stroke-width:5;stroke-linecap:round;stroke-linejoin:round;stroke-miterlimit:4;stroke-dasharray:20, 20;stroke-dashoffset:0;stroke-opacity:1;marker-end:" />
  <path
     id="path4170"
     d="m 1783.2726,1561.6049 0,304.8242 -263.9961,152.4101 -263.9843,-152.4101"
     style="fill:none;stroke:#000000;stroke-width:5;stroke-linecap:round;stroke-linejoin:round;stroke-miterlimit:4;stroke-dasharray:20, 20;stroke-dashoffset:0;stroke-opacity:1" />
  <text
     xml:space="preserve"
     style="font-style:normal;font-weight:normal;font-size:32px;line-height:125%;font-family:Sans;letter-spacing:0px;word-spacing:0px;fill:#000000;fill-opacity:1;stroke:none;stroke-width:5;stroke-linecap:butt;stroke-linejoin:miter;stroke-miterlimit:4;stroke-dasharray:none;stroke-opacity:1"
     x="933.12585"
     y="873.24286"
     id="text4495"><tspan
       id="tspan4497"
       x="933.12585"
       y="873.24286"
       style="stroke-width:5;stroke-miterlimit:4;stroke-dasharray:none" /></text>
  <metadata
     id="metadata4499">
    <rdf:RDF>
      <cc:Work
         rdf:about="">
        <dc:title></dc:title>
        <dc:format>image/svg+xml</dc:format>
        <dc:type
           rdf:resource="http://purl.org/dc/dcmitype/StillImage" />
      </cc:Work>
    </rdf:RDF>
  </metadata>
  <path
     style="fill:none;stroke:#000000;stroke-width:5;stroke-linecap:round;stroke-linejoin:round;stroke-miterlimit:4;stroke-dasharray:none;stroke-opacity:1"
     d="m 2047.3073,189.85194 0,304.8242 -263.9844,152.41013 -263.9843,-152.41013 0,-304.8242 263.9843,-152.414076 z m 0,0"
     id="path8337" />
  <path
     id="path8339"
     d="m 2047.3073,189.85194 263.9883,-152.414076 263.9843,152.414076 0,304.8242 -263.9843,152.41013"
     style="fill:none;stroke:#000000;stroke-width:5;stroke-linecap:round;stroke-linejoin:round;stroke-miterlimit:4;stroke-dasharray:20, 20;stroke-dashoffset:0;stroke-opacity:1" />
  <path
     style="fill:none;stroke:#000000;stroke-width:5;stroke-linecap:round;stroke-linejoin:round;stroke-miterlimit:4;stroke-dasharray:none;stroke-opacity:1"
     d="m 2311.2956,647.07847 0,304.8242 -263.9883,152.41013 -263.9844,-152.41013 0,-304.8242 263.9844,-152.41403 z m 0,0"
     id="path8347" />
  <path
     id="path17910"
     d="m 2047.2477,1409.2635 263.9844,152.4141 0,304.8242 -263.9844,152.4102 -263.9843,-152.4102"
     style="fill:none;stroke:#000000;stroke-width:5;stroke-linecap:round;stroke-linejoin:round;stroke-miterlimit:4;stroke-dasharray:20, 20;stroke-dashoffset:0;stroke-opacity:1" />
  <path
     style="fill:none;stroke:#000000;stroke-width:5;stroke-linecap:round;stroke-linejoin:round;stroke-miterlimit:4;stroke-dasharray:20, 20;stroke-dashoffset:0;stroke-opacity:1"
     d="m 2311.2321,951.95487 263.9883,152.40243 0,304.832 -263.9883,152.4102"
     id="path8359" />
  <path
     style="fill:none;stroke:#000000;stroke-width:5;stroke-linecap:round;stroke-linejoin:round;stroke-miterlimit:4;stroke-dasharray:20, 20;stroke-dashoffset:0;stroke-opacity:1"
     d="m 727.32293,1866.3543 -263.9961,152.4102 -263.98434,-152.4102 0,-304.832 263.98434,-152.4024"
     id="path8393" />
  <path
     id="path4348"
     d="m 463.32223,1104.3575 -263.99614,-152.41023 0,-304.8242 263.99614,-152.41406"
     style="fill:none;stroke:#000000;stroke-width:5;stroke-linecap:round;stroke-linejoin:round;stroke-miterlimit:4;stroke-dasharray:20, 20;stroke-dashoffset:0;stroke-opacity:1" />
  <path
     id="path8427"
     d="m 991.37043,189.77765 0,304.8242 -263.9883,152.41012 -263.9844,-152.41012 0,-304.8242 263.9844,-152.414056 z m 0,0"
     style="fill:none;stroke:#000000;stroke-width:5;stroke-linecap:round;stroke-linejoin:round;stroke-miterlimit:4;stroke-dasharray:none;stroke-opacity:1" />
  <path
     id="path8429"
     d="m 1519.3508,189.77765 0,304.8242 -263.9961,152.41012 -263.98427,-152.41012 0,-304.8242 263.98427,-152.414056 z m 0,0"
     style="fill:none;stroke:#000000;stroke-width:5;stroke-linecap:round;stroke-linejoin:round;stroke-miterlimit:4;stroke-dasharray:none;stroke-opacity:1" />
  <path
     style="fill:none;fill-rule:evenodd;stroke:#000000;stroke-width:15;stroke-linecap:butt;stroke-linejoin:miter;stroke-miterlimit:4;stroke-dasharray:none;stroke-opacity:1;marker-start:url(#Arrow2Mstart);marker-end:url(#Arrow2Mend)"
     d="M 1503.6889,141.72953 C 631.00883,-705.46018 658.96903,2825.3966 1515.0681,2053.4094"
     id="path10821" />
  <path
     id="path13689"
     d="M 149.32315,865.74397 C -794.58843,1505.1536 3384.874,1482.883 2351.1687,831.60667"
     style="fill:none;fill-rule:evenodd;stroke:#000000;stroke-width:15;stroke-linecap:butt;stroke-linejoin:miter;stroke-miterlimit:4;stroke-dasharray:none;stroke-opacity:1;marker-start:url(#marker13691);marker-end:url(#marker13701)" />
</svg>
