<?xml version="1.0" encoding="UTF-8" standalone="no"?>
<svg
   xmlns:dc="http://purl.org/dc/elements/1.1/"
   xmlns:cc="http://creativecommons.org/ns#"
   xmlns:rdf="http://www.w3.org/1999/02/22-rdf-syntax-ns#"
   xmlns:svg="http://www.w3.org/2000/svg"
   xmlns="http://www.w3.org/2000/svg"
   id="svg4226"
   version="1.1"
   xml:space="preserve"
   width="3308.8113"
   height="3057.3044"
   viewBox="0 0 3308.8113 3057.3044"><metadata
     id="metadata4232"><rdf:RDF><cc:Work
         rdf:about=""><dc:format>image/svg+xml</dc:format><dc:type
           rdf:resource="http://purl.org/dc/dcmitype/StillImage" /><dc:title></dc:title></cc:Work></rdf:RDF></metadata><defs
     id="defs4230" /><g
     id="g4234"
     transform="matrix(1.25,0,0,-1.25,2.0103633,3056.5712)"><g
       id="g4236"
       transform="scale(0.180232,0.180232)"><path
         d="m 5869.85,7627.71 0,-1691.29 -1464.69,-845.63 -1464.7,845.63 0,1691.29 1464.7,845.66 1464.69,-845.66 z"
         style="fill:none;stroke:#000000;stroke-width:22.1935997;stroke-linecap:round;stroke-linejoin:round;stroke-miterlimit:4;stroke-dasharray:none;stroke-opacity:1"
         id="path4238" /><path
         d="m 8799.24,7627.71 0,-1691.29 -1464.69,-845.63 -1464.7,845.63 0,1691.29 1464.7,845.66 1464.69,-845.66 z"
         style="fill:none;stroke:#000000;stroke-width:22.1935997;stroke-linecap:round;stroke-linejoin:round;stroke-miterlimit:4;stroke-dasharray:none;stroke-opacity:1"
         id="path4240" /><path
         d="m 11728.6,7627.71 0,-1691.29 -1464.6,-845.63 -1464.76,845.63 0,1691.29 1464.76,845.66 1464.6,-845.66 z"
         style="fill:none;stroke:#000000;stroke-width:22.1935997;stroke-linecap:round;stroke-linejoin:round;stroke-miterlimit:4;stroke-dasharray:none;stroke-opacity:1"
         id="path4242" /><path
         d="m 7334.55,10165.1 0,-1691.32 -1464.7,-845.64 -1464.69,845.64 0,1691.32 1464.69,845.6 1464.7,-845.6 z"
         style="fill:none;stroke:#000000;stroke-width:22.1935997;stroke-linecap:round;stroke-linejoin:round;stroke-miterlimit:4;stroke-dasharray:none;stroke-opacity:1"
         id="path4244" /><path
         d="m 10264,10165.1 0,-1691.32 -1464.76,-845.64 -1464.69,845.64 0,1691.32 1464.69,845.6 1464.76,-845.6 z"
         style="fill:none;stroke:#000000;stroke-width:22.1935997;stroke-linecap:round;stroke-linejoin:round;stroke-miterlimit:4;stroke-dasharray:none;stroke-opacity:1"
         id="path4246" /><path
         d="m 7334.55,5090.83 0,-1691.29 -1464.7,-845.63 -1464.69,845.63 0,1691.29 1464.69,845.65 1464.7,-845.65 z"
         style="fill:none;stroke:#000000;stroke-width:22.1935997;stroke-linecap:round;stroke-linejoin:round;stroke-miterlimit:4;stroke-dasharray:none;stroke-opacity:1"
         id="path4248" /><path
         d="m 10264,5090.83 0,-1691.29 -1464.76,-845.63 -1464.69,845.63 0,1691.29 1464.69,845.65 1464.76,-845.65 z"
         style="fill:none;stroke:#000000;stroke-width:22.1935997;stroke-linecap:round;stroke-linejoin:round;stroke-miterlimit:4;stroke-dasharray:none;stroke-opacity:1"
         id="path4250" /><path
         d="m 2940.46,7627.71 0,-1691.29 -1464.71,-845.63 -1464.6992,845.63 0,1691.29 1464.6992,845.66"
         style="fill:#f0f0f0;fill-opacity:1;fill-rule:nonzero;stroke:none"
         id="path4252" /><path
         d="m 2940.46,7627.71 0,-1691.29 -1464.71,-845.63 -1464.6992,845.63 0,1691.29 1464.6992,845.66 1464.71,-845.66 z"
         style="fill:#f0f0f0;fill-opacity:1;stroke:#000000;stroke-width:22.1935997;stroke-linecap:round;stroke-linejoin:round;stroke-miterlimit:4;stroke-dasharray:none;stroke-opacity:1"
         id="path4254" /><path
         d="m 14658,7627.71 0,-1691.29 -1464.7,-845.63 -1464.7,845.63 0,1691.29 1464.7,845.66"
         style="fill:#f0f0f0;fill-opacity:1;fill-rule:nonzero;stroke:none"
         id="path4256" /><path
         d="m 14658,7627.71 0,-1691.29 -1464.7,-845.63 -1464.7,845.63 0,1691.29 1464.7,845.66 1464.7,-845.66 z"
         style="fill:#f0f0f0;fill-opacity:1;stroke:#000000;stroke-width:22.1935997;stroke-linecap:round;stroke-linejoin:round;stroke-miterlimit:4;stroke-dasharray:none;stroke-opacity:1"
         id="path4258" /><path
         d="m 4405.16,10165.1 0,-1691.32 -1464.7,-845.64 -1464.71,845.64 0,1691.32 1464.71,845.6"
         style="fill:#f0f0f0;fill-opacity:1;fill-rule:nonzero;stroke:none"
         id="path4260" /><path
         d="m 4405.16,10165.1 0,-1691.32 -1464.7,-845.64 -1464.71,845.64 0,1691.32 1464.71,845.6 1464.7,-845.6 z"
         style="fill:#f0f0f0;fill-opacity:1;stroke:#000000;stroke-width:22.1935997;stroke-linecap:round;stroke-linejoin:round;stroke-miterlimit:4;stroke-dasharray:none;stroke-opacity:1"
         id="path4262" /><path
         d="m 13193.3,10165.1 0,-1691.32 -1464.7,-845.64 -1464.6,845.64 0,1691.32 1464.6,845.6"
         style="fill:#f0f0f0;fill-opacity:1;fill-rule:nonzero;stroke:none"
         id="path4264" /><path
         d="m 13193.3,10165.1 0,-1691.32 -1464.7,-845.64 -1464.6,845.64 0,1691.32 1464.6,845.6 1464.7,-845.6 z"
         style="fill:#f0f0f0;fill-opacity:1;stroke:#000000;stroke-width:22.1935997;stroke-linecap:round;stroke-linejoin:round;stroke-miterlimit:4;stroke-dasharray:none;stroke-opacity:1"
         id="path4266" /><path
         d="m 4405.16,5090.83 0,-1691.29 -1464.7,-845.63 -1464.71,845.63 0,1691.29 1464.71,845.65"
         style="fill:#b4b4b4;fill-opacity:1;fill-rule:nonzero;stroke:none"
         id="path4268" /><path
         d="m 4405.16,5090.83 0,-1691.29 -1464.7,-845.63 -1464.71,845.63 0,1691.29 1464.71,845.65 1464.7,-845.65 z"
         style="fill:#f0f0f0;fill-opacity:1;stroke:#000000;stroke-width:22.1935997;stroke-linecap:round;stroke-linejoin:round;stroke-miterlimit:4;stroke-dasharray:none;stroke-opacity:1"
         id="path4270" /><path
         d="m 13193.3,5090.83 0,-1691.29 -1464.7,-845.63 -1464.6,845.63 0,1691.29 1464.6,845.65"
         style="fill:#f0f0f0;fill-opacity:1;fill-rule:nonzero;stroke:none"
         id="path4272" /><path
         d="m 13193.3,5090.83 0,-1691.29 -1464.7,-845.63 -1464.6,845.63 0,1691.29 1464.6,845.65 1464.7,-845.65 z"
         style="fill:#f0f0f0;fill-opacity:1;stroke:#000000;stroke-width:22.1935997;stroke-linecap:round;stroke-linejoin:round;stroke-miterlimit:4;stroke-dasharray:none;stroke-opacity:1"
         id="path4274" /><path
         d="m 5869.85,12701.6 0,-1691.3 -1464.69,-845.6 -1464.7,845.6 0,1691.3 1464.7,845.7"
         style="fill:#c8c8c8;fill-opacity:1;fill-rule:nonzero;stroke:none"
         id="path4276" /><path
         d="m 5869.85,12701.6 0,-1691.3 -1464.69,-845.6 -1464.7,845.6 0,1691.3 1464.7,845.7 1464.69,-845.7 z"
         style="fill:#f0f0f0;fill-opacity:1;stroke:#000000;stroke-width:22.1935997;stroke-linecap:round;stroke-linejoin:round;stroke-miterlimit:4;stroke-dasharray:none;stroke-opacity:1"
         id="path4278" /><path
         d="m 8799.24,12701.6 0,-1691.3 -1464.69,-845.6 -1464.7,845.6 0,1691.3 1464.7,845.7"
         style="fill:#c8c8c8;fill-opacity:1;fill-rule:nonzero;stroke:none"
         id="path4280" /><path
         d="m 8799.24,12701.6 0,-1691.3 -1464.69,-845.6 -1464.7,845.6 0,1691.3 1464.7,845.7 1464.69,-845.7 z"
         style="fill:#f0f0f0;fill-opacity:1;stroke:#000000;stroke-width:22.1935997;stroke-linecap:round;stroke-linejoin:round;stroke-miterlimit:4;stroke-dasharray:none;stroke-opacity:1"
         id="path4282" /><path
         d="m 11728.6,12701.6 0,-1691.3 -1464.6,-845.6 -1464.76,845.6 0,1691.3 1464.76,845.7"
         style="fill:#c8c8c8;fill-opacity:1;fill-rule:nonzero;stroke:none"
         id="path4284" /><path
         d="m 11728.6,12701.6 0,-1691.3 -1464.6,-845.6 -1464.76,845.6 0,1691.3 1464.76,845.7 1464.6,-845.7 z"
         style="fill:#f0f0f0;fill-opacity:1;stroke:#000000;stroke-width:22.1935997;stroke-linecap:round;stroke-linejoin:round;stroke-miterlimit:4;stroke-dasharray:none;stroke-opacity:1"
         id="path4286" /><path
         d="m 5869.85,2553.64 0,-1691.285 -1464.69,-845.6362 -1464.7,845.6362 0,1691.285 1464.7,845.64"
         style="fill:#c8c8c8;fill-opacity:1;fill-rule:nonzero;stroke:none"
         id="path4288" /><path
         d="m 5869.85,2553.64 0,-1691.288 -1464.69,-845.6332 -1464.7,845.6332 0,1691.288 1464.7,845.64 1464.69,-845.64 z"
         style="fill:#f0f0f0;fill-opacity:1;stroke:#000000;stroke-width:22.1935997;stroke-linecap:round;stroke-linejoin:round;stroke-miterlimit:4;stroke-dasharray:none;stroke-opacity:1"
         id="path4290" /><path
         d="m 8799.24,2553.64 0,-1691.285 -1464.69,-845.6362 -1464.7,845.6362 0,1691.285 1464.7,845.64"
         style="fill:#c8c8c8;fill-opacity:1;fill-rule:nonzero;stroke:none"
         id="path4292" /><path
         d="m 8799.24,2553.64 0,-1691.288 -1464.69,-845.6332 -1464.7,845.6332 0,1691.288 1464.7,845.64 1464.69,-845.64 z"
         style="fill:#f0f0f0;fill-opacity:1;stroke:#000000;stroke-width:22.1935997;stroke-linecap:round;stroke-linejoin:round;stroke-miterlimit:4;stroke-dasharray:none;stroke-opacity:1"
         id="path4294" /><path
         d="m 11728.6,2553.64 0,-1691.285 L 10264,16.7188 8799.24,862.355 l 0,1691.285 1464.76,845.64"
         style="fill:#c8c8c8;fill-opacity:1;fill-rule:nonzero;stroke:none"
         id="path4296" /><path
         d="m 11728.6,2553.64 0,-1691.288 L 10264,16.7188 8799.24,862.352 l 0,1691.288 1464.76,845.64 1464.6,-845.64 z"
         style="fill:#f0f0f0;fill-opacity:1;stroke:#000000;stroke-width:22.1935997;stroke-linecap:round;stroke-linejoin:round;stroke-miterlimit:4;stroke-dasharray:none;stroke-opacity:1"
         id="path4298" /></g></g></svg>