<?xml version="1.0" encoding="UTF-8" standalone="no"?>
<svg
   xmlns:dc="http://purl.org/dc/elements/1.1/"
   xmlns:cc="http://creativecommons.org/ns#"
   xmlns:rdf="http://www.w3.org/1999/02/22-rdf-syntax-ns#"
   xmlns:svg="http://www.w3.org/2000/svg"
   xmlns="http://www.w3.org/2000/svg"
   viewBox="0 0 3308.8113 3057.3044"
   height="3057.3044"
   width="3308.8113"
   xml:space="preserve"
   version="1.1"
   id="svg4226"><metadata
     id="metadata4232"><rdf:RDF><cc:Work
         rdf:about=""><dc:format>image/svg+xml</dc:format><dc:type
           rdf:resource="http://purl.org/dc/dcmitype/StillImage" /><dc:title></dc:title></cc:Work></rdf:RDF></metadata><defs
     id="defs4230" /><g
     transform="matrix(1.25,0,0,-1.25,2.0103633,3056.5712)"
     id="g4234"><g
       transform="scale(0.180232,0.180232)"
       id="g4236"><path
         id="path4238"
         style="fill:none;stroke:#000000;stroke-width:22.1935997;stroke-linecap:round;stroke-linejoin:round;stroke-miterlimit:4;stroke-dasharray:none;stroke-opacity:1"
         d="m 5869.85,7627.71 0,-1691.29 -1464.69,-845.63 -1464.7,845.63 0,1691.29 1464.7,845.66 1464.69,-845.66 z" /><path
         id="path4240"
         style="fill:none;stroke:#000000;stroke-width:22.1935997;stroke-linecap:round;stroke-linejoin:round;stroke-miterlimit:4;stroke-dasharray:none;stroke-opacity:1"
         d="m 8799.24,7627.71 0,-1691.29 -1464.69,-845.63 -1464.7,845.63 0,1691.29 1464.7,845.66 1464.69,-845.66 z" /><path
         id="path4242"
         style="fill:none;stroke:#000000;stroke-width:22.1935997;stroke-linecap:round;stroke-linejoin:round;stroke-miterlimit:4;stroke-dasharray:none;stroke-opacity:1"
         d="m 11728.6,7627.71 0,-1691.29 -1464.6,-845.63 -1464.76,845.63 0,1691.29 1464.76,845.66 1464.6,-845.66 z" /><path
         id="path4244"
         style="fill:none;stroke:#000000;stroke-width:22.1935997;stroke-linecap:round;stroke-linejoin:round;stroke-miterlimit:4;stroke-dasharray:none;stroke-opacity:1"
         d="m 7334.55,10165.1 0,-1691.32 -1464.7,-845.64 -1464.69,845.64 0,1691.32 1464.69,845.6 1464.7,-845.6 z" /><path
         id="path4246"
         style="fill:none;stroke:#000000;stroke-width:22.1935997;stroke-linecap:round;stroke-linejoin:round;stroke-miterlimit:4;stroke-dasharray:none;stroke-opacity:1"
         d="m 10264,10165.1 0,-1691.32 -1464.76,-845.64 -1464.69,845.64 0,1691.32 1464.69,845.6 1464.76,-845.6 z" /><path
         id="path4248"
         style="fill:none;stroke:#000000;stroke-width:22.1935997;stroke-linecap:round;stroke-linejoin:round;stroke-miterlimit:4;stroke-dasharray:none;stroke-opacity:1"
         d="m 7334.55,5090.83 0,-1691.29 -1464.7,-845.63 -1464.69,845.63 0,1691.29 1464.69,845.65 1464.7,-845.65 z" /><path
         id="path4250"
         style="fill:none;stroke:#000000;stroke-width:22.1935997;stroke-linecap:round;stroke-linejoin:round;stroke-miterlimit:4;stroke-dasharray:none;stroke-opacity:1"
         d="m 10264,5090.83 0,-1691.29 -1464.76,-845.63 -1464.69,845.63 0,1691.29 1464.69,845.65 1464.76,-845.65 z" /><path
         id="path4252"
         style="fill:#f0f0f0;fill-opacity:1;fill-rule:nonzero;stroke:none"
         d="m 2940.46,7627.71 0,-1691.29 -1464.71,-845.63 -1464.6992,845.63 0,1691.29 1464.6992,845.66" /><path
         id="path4254"
         style="fill:#c8c8c8;fill-opacity:1;stroke:#000000;stroke-width:22.1935997;stroke-linecap:round;stroke-linejoin:round;stroke-miterlimit:4;stroke-dasharray:none;stroke-opacity:1"
         d="m 2940.46,7627.71 0,-1691.29 -1464.71,-845.63 -1464.6992,845.63 0,1691.29 1464.6992,845.66 1464.71,-845.66 z" /><path
         id="path4256"
         style="fill:#f0f0f0;fill-opacity:1;fill-rule:nonzero;stroke:none"
         d="m 14658,7627.71 0,-1691.29 -1464.7,-845.63 -1464.7,845.63 0,1691.29 1464.7,845.66" /><path
         id="path4258"
         style="fill:#c8c8c8;fill-opacity:1;stroke:#000000;stroke-width:22.1935997;stroke-linecap:round;stroke-linejoin:round;stroke-miterlimit:4;stroke-dasharray:none;stroke-opacity:1"
         d="m 14658,7627.71 0,-1691.29 -1464.7,-845.63 -1464.7,845.63 0,1691.29 1464.7,845.66 1464.7,-845.66 z" /><path
         id="path4260"
         style="fill:#f0f0f0;fill-opacity:1;fill-rule:nonzero;stroke:none"
         d="m 4405.16,10165.1 0,-1691.32 -1464.7,-845.64 -1464.71,845.64 0,1691.32 1464.71,845.6" /><path
         id="path4262"
         style="fill:#c8c8c8;fill-opacity:1;stroke:#000000;stroke-width:22.1935997;stroke-linecap:round;stroke-linejoin:round;stroke-miterlimit:4;stroke-dasharray:none;stroke-opacity:1"
         d="m 4405.16,10165.1 0,-1691.32 -1464.7,-845.64 -1464.71,845.64 0,1691.32 1464.71,845.6 1464.7,-845.6 z" /><path
         id="path4264"
         style="fill:#f0f0f0;fill-opacity:1;fill-rule:nonzero;stroke:none"
         d="m 13193.3,10165.1 0,-1691.32 -1464.7,-845.64 -1464.6,845.64 0,1691.32 1464.6,845.6" /><path
         id="path4266"
         style="fill:#c8c8c8;fill-opacity:1;stroke:#000000;stroke-width:22.1935997;stroke-linecap:round;stroke-linejoin:round;stroke-miterlimit:4;stroke-dasharray:none;stroke-opacity:1"
         d="m 13193.3,10165.1 0,-1691.32 -1464.7,-845.64 -1464.6,845.64 0,1691.32 1464.6,845.6 1464.7,-845.6 z" /><path
         id="path4268"
         style="fill:#b4b4b4;fill-opacity:1;fill-rule:nonzero;stroke:none"
         d="m 4405.16,5090.83 0,-1691.29 -1464.7,-845.63 -1464.71,845.63 0,1691.29 1464.71,845.65" /><path
         id="path4270"
         style="fill:#c8c8c8;fill-opacity:1;stroke:#000000;stroke-width:22.1935997;stroke-linecap:round;stroke-linejoin:round;stroke-miterlimit:4;stroke-dasharray:none;stroke-opacity:1"
         d="m 4405.16,5090.83 0,-1691.29 -1464.7,-845.63 -1464.71,845.63 0,1691.29 1464.71,845.65 1464.7,-845.65 z" /><path
         id="path4272"
         style="fill:#f0f0f0;fill-opacity:1;fill-rule:nonzero;stroke:none"
         d="m 13193.3,5090.83 0,-1691.29 -1464.7,-845.63 -1464.6,845.63 0,1691.29 1464.6,845.65" /><path
         id="path4274"
         style="fill:#c8c8c8;fill-opacity:1;stroke:#000000;stroke-width:22.1935997;stroke-linecap:round;stroke-linejoin:round;stroke-miterlimit:4;stroke-dasharray:none;stroke-opacity:1"
         d="m 13193.3,5090.83 0,-1691.29 -1464.7,-845.63 -1464.6,845.63 0,1691.29 1464.6,845.65 1464.7,-845.65 z" /><path
         id="path4276"
         style="fill:#c8c8c8;fill-opacity:1;fill-rule:nonzero;stroke:none"
         d="m 5869.85,12701.6 0,-1691.3 -1464.69,-845.6 -1464.7,845.6 0,1691.3 1464.7,845.7" /><path
         id="path4278"
         style="fill:#c8c8c8;fill-opacity:1;stroke:#000000;stroke-width:22.1935997;stroke-linecap:round;stroke-linejoin:round;stroke-miterlimit:4;stroke-dasharray:none;stroke-opacity:1"
         d="m 5869.85,12701.6 0,-1691.3 -1464.69,-845.6 -1464.7,845.6 0,1691.3 1464.7,845.7 1464.69,-845.7 z" /><path
         id="path4280"
         style="fill:#c8c8c8;fill-opacity:1;fill-rule:nonzero;stroke:none"
         d="m 8799.24,12701.6 0,-1691.3 -1464.69,-845.6 -1464.7,845.6 0,1691.3 1464.7,845.7" /><path
         id="path4282"
         style="fill:#c8c8c8;fill-opacity:1;stroke:#000000;stroke-width:22.1935997;stroke-linecap:round;stroke-linejoin:round;stroke-miterlimit:4;stroke-dasharray:none;stroke-opacity:1"
         d="m 8799.24,12701.6 0,-1691.3 -1464.69,-845.6 -1464.7,845.6 0,1691.3 1464.7,845.7 1464.69,-845.7 z" /><path
         id="path4284"
         style="fill:#c8c8c8;fill-opacity:1;fill-rule:nonzero;stroke:none"
         d="m 11728.6,12701.6 0,-1691.3 -1464.6,-845.6 -1464.76,845.6 0,1691.3 1464.76,845.7" /><path
         id="path4286"
         style="fill:#c8c8c8;fill-opacity:1;stroke:#000000;stroke-width:22.1935997;stroke-linecap:round;stroke-linejoin:round;stroke-miterlimit:4;stroke-dasharray:none;stroke-opacity:1"
         d="m 11728.6,12701.6 0,-1691.3 -1464.6,-845.6 -1464.76,845.6 0,1691.3 1464.76,845.7 1464.6,-845.7 z" /><path
         id="path4288"
         style="fill:#c8c8c8;fill-opacity:1;fill-rule:nonzero;stroke:none"
         d="m 5869.85,2553.64 0,-1691.285 -1464.69,-845.6362 -1464.7,845.6362 0,1691.285 1464.7,845.64" /><path
         id="path4290"
         style="fill:#c8c8c8;fill-opacity:1;stroke:#000000;stroke-width:22.1935997;stroke-linecap:round;stroke-linejoin:round;stroke-miterlimit:4;stroke-dasharray:none;stroke-opacity:1"
         d="m 5869.85,2553.64 0,-1691.288 -1464.69,-845.6332 -1464.7,845.6332 0,1691.288 1464.7,845.64 1464.69,-845.64 z" /><path
         id="path4292"
         style="fill:#c8c8c8;fill-opacity:1;fill-rule:nonzero;stroke:none"
         d="m 8799.24,2553.64 0,-1691.285 -1464.69,-845.6362 -1464.7,845.6362 0,1691.285 1464.7,845.64" /><path
         id="path4294"
         style="fill:#c8c8c8;fill-opacity:1;stroke:#000000;stroke-width:22.1935997;stroke-linecap:round;stroke-linejoin:round;stroke-miterlimit:4;stroke-dasharray:none;stroke-opacity:1"
         d="m 8799.24,2553.64 0,-1691.288 -1464.69,-845.6332 -1464.7,845.6332 0,1691.288 1464.7,845.64 1464.69,-845.64 z" /><path
         id="path4296"
         style="fill:#c8c8c8;fill-opacity:1;fill-rule:nonzero;stroke:none"
         d="m 11728.6,2553.64 0,-1691.285 L 10264,16.7188 8799.24,862.355 l 0,1691.285 1464.76,845.64" /><path
         id="path4298"
         style="fill:#c8c8c8;fill-opacity:1;stroke:#000000;stroke-width:22.1935997;stroke-linecap:round;stroke-linejoin:round;stroke-miterlimit:4;stroke-dasharray:none;stroke-opacity:1"
         d="m 11728.6,2553.64 0,-1691.288 L 10264,16.7188 8799.24,862.352 l 0,1691.288 1464.76,845.64 1464.6,-845.64 z" /></g></g></svg>