<?xml version="1.0" encoding="UTF-8" standalone="no"?>
<svg
   xmlns:dc="http://purl.org/dc/elements/1.1/"
   xmlns:cc="http://creativecommons.org/ns#"
   xmlns:rdf="http://www.w3.org/1999/02/22-rdf-syntax-ns#"
   xmlns:svg="http://www.w3.org/2000/svg"
   xmlns="http://www.w3.org/2000/svg"
   width="3175.7512pt"
   height="2904.6069pt"
   viewBox="0 0 3175.7512 2904.6069"
   version="1.1"
   id="svg4155">
  <defs
     id="defs4222">
    <marker
       orient="auto"
       refY="0"
       refX="0"
       id="marker11444"
       style="overflow:visible">
      <path
         id="path11446"
         style="fill:#000000;fill-opacity:1;fill-rule:evenodd;stroke:#000000;stroke-width:0.625;stroke-linejoin:round;stroke-opacity:1"
         d="M 8.7185878,4.0337352 -2.2072895,0.01601326 8.7185884,-4.0017078 c -1.7454984,2.3720609 -1.7354408,5.6174519 -6e-7,8.035443 z"
         transform="scale(-0.6,-0.6)" />
    </marker>
    <marker
       style="overflow:visible"
       id="marker11243"
       refX="0"
       refY="0"
       orient="auto">
      <path
         transform="scale(-0.6,-0.6)"
         d="M 8.7185878,4.0337352 -2.2072895,0.01601326 8.7185884,-4.0017078 c -1.7454984,2.3720609 -1.7354408,5.6174519 -6e-7,8.035443 z"
         style="fill:#000000;fill-opacity:1;fill-rule:evenodd;stroke:#000000;stroke-width:0.625;stroke-linejoin:round;stroke-opacity:1"
         id="path11245" />
    </marker>
    <marker
       style="overflow:visible"
       id="marker10382"
       refX="0"
       refY="0"
       orient="auto">
      <path
         transform="scale(-0.6,-0.6)"
         d="M 8.7185878,4.0337352 -2.2072895,0.01601326 8.7185884,-4.0017078 c -1.7454984,2.3720609 -1.7354408,5.6174519 -6e-7,8.035443 z"
         style="fill:#000000;fill-opacity:1;fill-rule:evenodd;stroke:#000000;stroke-width:0.625;stroke-linejoin:round;stroke-opacity:1"
         id="path10384" />
    </marker>
    <marker
       style="overflow:visible"
       id="marker9077"
       refX="0"
       refY="0"
       orient="auto">
      <path
         transform="scale(-0.6,-0.6)"
         d="M 8.7185878,4.0337352 -2.2072895,0.01601326 8.7185884,-4.0017078 c -1.7454984,2.3720609 -1.7354408,5.6174519 -6e-7,8.035443 z"
         style="fill:#000000;fill-opacity:1;fill-rule:evenodd;stroke:#000000;stroke-width:0.625;stroke-linejoin:round;stroke-opacity:1"
         id="path9079" />
    </marker>
    <marker
       orient="auto"
       refY="0"
       refX="0"
       id="marker8678"
       style="overflow:visible">
      <path
         id="path8680"
         style="fill:#000000;fill-opacity:1;fill-rule:evenodd;stroke:#000000;stroke-width:0.625;stroke-linejoin:round;stroke-opacity:1"
         d="M 8.7185878,4.0337352 -2.2072895,0.01601326 8.7185884,-4.0017078 c -1.7454984,2.3720609 -1.7354408,5.6174519 -6e-7,8.035443 z"
         transform="scale(-0.6,-0.6)" />
    </marker>
    <marker
       style="overflow:visible"
       id="marker7061"
       refX="0"
       refY="0"
       orient="auto">
      <path
         transform="scale(-0.6,-0.6)"
         d="M 8.7185878,4.0337352 -2.2072895,0.01601326 8.7185884,-4.0017078 c -1.7454984,2.3720609 -1.7354408,5.6174519 -6e-7,8.035443 z"
         style="fill:#000000;fill-opacity:1;fill-rule:evenodd;stroke:#000000;stroke-width:0.625;stroke-linejoin:round;stroke-opacity:1"
         id="path7063" />
    </marker>
    <marker
       orient="auto"
       refY="0"
       refX="0"
       id="Arrow2Mend"
       style="overflow:visible">
      <path
         id="path4322"
         style="fill:#000000;fill-opacity:1;fill-rule:evenodd;stroke:#000000;stroke-width:0.625;stroke-linejoin:round;stroke-opacity:1"
         d="M 8.7185878,4.0337352 -2.2072895,0.01601326 8.7185884,-4.0017078 c -1.7454984,2.3720609 -1.7354408,5.6174519 -6e-7,8.035443 z"
         transform="scale(-0.6,-0.6)" />
    </marker>
    <marker
       orient="auto"
       refY="0"
       refX="0"
       id="marker5102"
       style="overflow:visible">
      <path
         id="path5104"
         d="M 0,5.65 0,-5.65"
         style="fill:none;fill-opacity:0.75;fill-rule:evenodd;stroke:#000000;stroke-width:1pt;stroke-opacity:1"
         transform="scale(0.8,0.8)" />
    </marker>
    <marker
       orient="auto"
       refY="0"
       refX="0"
       id="StopL"
       style="overflow:visible">
      <path
         id="path4464"
         d="M 0,5.65 0,-5.65"
         style="fill:none;fill-opacity:0.75;fill-rule:evenodd;stroke:#000000;stroke-width:1pt;stroke-opacity:1"
         transform="scale(0.8,0.8)" />
    </marker>
    <marker
       orient="auto"
       refY="0"
       refX="0"
       id="marker4904"
       style="overflow:visible">
      <path
         id="path4906"
         style="fill:#000000;fill-opacity:1;fill-rule:evenodd;stroke:#000000;stroke-width:0.625;stroke-linejoin:round;stroke-opacity:1"
         d="M 8.7185878,4.0337352 -2.2072895,0.01601326 8.7185884,-4.0017078 c -1.7454984,2.3720609 -1.7354408,5.6174519 -6e-7,8.035443 z"
         transform="scale(0.6,0.6)" />
    </marker>
    <marker
       orient="auto"
       refY="0"
       refX="0"
       id="Arrow2Mstart"
       style="overflow:visible">
      <path
         id="path4319"
         style="fill:#000000;fill-opacity:1;fill-rule:evenodd;stroke:#000000;stroke-width:0.625;stroke-linejoin:round;stroke-opacity:1"
         d="M 8.7185878,4.0337352 -2.2072895,0.01601326 8.7185884,-4.0017078 c -1.7454984,2.3720609 -1.7354408,5.6174519 -6e-7,8.035443 z"
         transform="scale(0.6,0.6)" />
    </marker>
    <marker
       orient="auto"
       refY="0"
       refX="0"
       id="marker4719"
       style="overflow:visible">
      <path
         id="path4313"
         style="fill:#000000;fill-opacity:1;fill-rule:evenodd;stroke:#000000;stroke-width:0.625;stroke-linejoin:round;stroke-opacity:1"
         d="M 8.7185878,4.0337352 -2.2072895,0.01601326 8.7185884,-4.0017078 c -1.7454984,2.3720609 -1.7354408,5.6174519 -6e-7,8.035443 z"
         transform="matrix(1.1,0,0,1.1,1.1,0)" />
    </marker>
    <marker
       orient="auto"
       refY="0"
       refX="0"
       id="marker9784"
       style="overflow:visible">
      <path
         id="path9786"
         style="fill:#000000;fill-opacity:1;fill-rule:evenodd;stroke:#000000;stroke-width:0.625;stroke-linejoin:round;stroke-opacity:1"
         d="M 8.7185878,4.0337352 -2.2072895,0.01601326 8.7185884,-4.0017078 c -1.7454984,2.3720609 -1.7354408,5.6174519 -6e-7,8.035443 z"
         transform="matrix(1.1,0,0,1.1,1.1,0)" />
    </marker>
    <marker
       style="overflow:visible"
       id="marker9711"
       refX="0"
       refY="0"
       orient="auto">
      <path
         transform="scale(0.4,0.4)"
         style="fill:none;fill-opacity:0.75;fill-rule:evenodd;stroke:#000000;stroke-width:1pt;stroke-opacity:1"
         d="M 0,5.65 0,-5.65"
         id="path9713" />
    </marker>
    <marker
       style="overflow:visible"
       id="StopM"
       refX="0"
       refY="0"
       orient="auto">
      <path
         transform="scale(0.4,0.4)"
         style="fill:none;fill-opacity:0.75;fill-rule:evenodd;stroke:#000000;stroke-width:1pt;stroke-opacity:1"
         d="M 0,5.65 0,-5.65"
         id="path6484" />
    </marker>
    <marker
       style="overflow:visible"
       id="TriangleOutS"
       refX="0"
       refY="0"
       orient="auto">
      <path
         transform="scale(0.2,0.2)"
         style="fill:#000000;fill-opacity:1;fill-rule:evenodd;stroke:#000000;stroke-width:1pt;stroke-opacity:1"
         d="m 5.77,0 -8.65,5 0,-10 8.65,5 z"
         id="path6460" />
    </marker>
    <marker
       style="overflow:visible"
       id="DiamondS"
       refX="0"
       refY="0"
       orient="auto">
      <path
         transform="scale(0.2,0.2)"
         style="fill:#000000;fill-opacity:1;fill-rule:evenodd;stroke:#000000;stroke-width:1pt;stroke-opacity:1"
         d="M 0,-7.0710768 -7.0710894,0 0,7.0710589 7.0710462,0 0,-7.0710768 Z"
         id="path6397" />
    </marker>
    <marker
       orient="auto"
       refY="0"
       refX="0"
       id="DistanceStart"
       style="overflow:visible">
      <g
         style="fill:#000000;fill-opacity:1;stroke:#000000;stroke-opacity:1"
         id="g2300">
        <path
           id="path2306"
           d="M 0,0 2,0"
           style="fill:#000000;fill-opacity:1;stroke:#000000;stroke-width:1.14999998;stroke-linecap:square;stroke-opacity:1" />
        <path
           id="path2302"
           d="M 0,0 13,4 9,0 13,-4 0,0 Z"
           style="fill:#000000;fill-opacity:1;fill-rule:evenodd;stroke:#000000;stroke-opacity:1" />
        <path
           id="path2304"
           d="M 0,-4 0,40"
           style="fill:#000000;fill-opacity:1;stroke:#000000;stroke-width:1;stroke-linecap:square;stroke-opacity:1" />
      </g>
    </marker>
    <marker
       style="overflow:visible"
       id="Arrow2Lstart"
       refX="0"
       refY="0"
       orient="auto">
      <path
         transform="matrix(1.1,0,0,1.1,1.1,0)"
         d="M 8.7185878,4.0337352 -2.2072895,0.01601326 8.7185884,-4.0017078 c -1.7454984,2.3720609 -1.7354408,5.6174519 -6e-7,8.035443 z"
         style="fill:#000000;fill-opacity:1;fill-rule:evenodd;stroke:#000000;stroke-width:0.625;stroke-linejoin:round;stroke-opacity:1"
         id="path6330" />
    </marker>
    <marker
       style="overflow:visible"
       id="marker9319"
       refX="0"
       refY="0"
       orient="auto">
      <path
         transform="matrix(-1.1,0,0,-1.1,-1.1,0)"
         d="M 8.7185878,4.0337352 -2.2072895,0.01601326 8.7185884,-4.0017078 c -1.7454984,2.3720609 -1.7354408,5.6174519 -6e-7,8.035443 z"
         style="fill:#000000;fill-opacity:1;fill-rule:evenodd;stroke:#000000;stroke-width:0.625;stroke-linejoin:round;stroke-opacity:1"
         id="path9321" />
    </marker>
    <marker
       style="overflow:visible"
       id="Arrow2Lend"
       refX="0"
       refY="0"
       orient="auto">
      <path
         transform="matrix(-1.1,0,0,-1.1,-1.1,0)"
         d="M 8.7185878,4.0337352 -2.2072895,0.01601326 8.7185884,-4.0017078 c -1.7454984,2.3720609 -1.7354408,5.6174519 -6e-7,8.035443 z"
         style="fill:#000000;fill-opacity:1;fill-rule:evenodd;stroke:#000000;stroke-width:0.625;stroke-linejoin:round;stroke-opacity:1"
         id="path6333" />
    </marker>
  </defs>
  <path
     style="fill:none;fill-opacity:1;stroke:#000000;stroke-width:4;stroke-linecap:round;stroke-linejoin:round;stroke-miterlimit:4;stroke-dasharray:none;stroke-opacity:1"
     d="m 795.93551,1071.3573 0,304.8242 -263.9844,152.4102 -263.9844,-152.4102 0,-304.8242 263.9844,-152.41408 z m 0,0"
     id="path4158" />
  <path
     style="fill:none;fill-opacity:1;stroke:#000000;stroke-width:4;stroke-linecap:round;stroke-linejoin:round;stroke-miterlimit:4;stroke-dasharray:none;stroke-opacity:1"
     d="m 1323.9081,1071.3573 0,304.8242 -263.9843,152.4102 -263.98829,-152.4102 0,-304.8242 263.98829,-152.41408 z m 0,0"
     id="path4160" />
  <path
     style="fill:none;fill-opacity:1;stroke:#000000;stroke-width:4;stroke-linecap:round;stroke-linejoin:round;stroke-miterlimit:4;stroke-dasharray:none;stroke-opacity:1"
     d="m 1851.8691,1071.3573 0,304.8242 -263.9649,152.4102 -263.9961,-152.4102 0,-304.8242 263.9961,-152.41408 z m 0,0"
     id="path4162" />
  <path
     style="fill:none;fill-opacity:1;stroke:#000000;stroke-width:4;stroke-linecap:round;stroke-linejoin:round;stroke-miterlimit:4;stroke-dasharray:none;stroke-opacity:1"
     d="m 1059.9238,614.03702 0,304.832 -263.98829,152.41018 -263.9844,-152.41018 0,-304.832 263.9844,-152.40236 z m 0,0"
     id="path4164" />
  <path
     style="fill:none;fill-opacity:1;stroke:#000000;stroke-width:4;stroke-linecap:round;stroke-linejoin:round;stroke-miterlimit:4;stroke-dasharray:none;stroke-opacity:1"
     d="m 1587.9042,614.03702 0,304.832 -263.9961,152.41018 -263.9843,-152.41018 0,-304.832 263.9843,-152.40236 z m 0,0"
     id="path4166" />
  <path
     style="fill:none;fill-opacity:1;stroke:#000000;stroke-width:4;stroke-linecap:round;stroke-linejoin:round;stroke-miterlimit:4;stroke-dasharray:none;stroke-opacity:1"
     d="m 1059.9238,1528.5839 0,304.8242 -263.98829,152.4101 -263.9844,-152.4101 0,-304.8242 263.9844,-152.4141 z m 0,0"
     id="path4168" />
  <path
     style="fill:none;fill-opacity:1;stroke:#000000;stroke-width:4;stroke-linecap:round;stroke-linejoin:round;stroke-miterlimit:4;stroke-dasharray:none;stroke-opacity:1"
     d="m 1587.9042,1528.5839 0,304.8242 -263.9961,152.4101 -263.9843,-152.4101 0,-304.8242 263.9843,-152.4141 z m 0,0"
     id="path4170" />
  <text
     id="text4495"
     y="840.22186"
     x="737.75745"
     style="font-style:normal;font-weight:normal;font-size:32px;line-height:125%;font-family:Sans;letter-spacing:0px;word-spacing:0px;fill:#000000;fill-opacity:1;stroke:none;stroke-width:1px;stroke-linecap:butt;stroke-linejoin:miter;stroke-opacity:1"
     xml:space="preserve"><tspan
       y="840.22186"
       x="737.75745"
       id="tspan4497" /></text>
  <metadata
     id="metadata4499">
    <rdf:RDF>
      <cc:Work
         rdf:about="">
        <dc:title></dc:title>
        <dc:format>image/svg+xml</dc:format>
        <dc:type
           rdf:resource="http://purl.org/dc/dcmitype/StillImage" />
      </cc:Work>
    </rdf:RDF>
  </metadata>
  <path
     id="path5424"
     d="m 2115.8174,613.74862 0,304.8242 -263.9844,152.41018 -263.9843,-152.41018 0,-304.8242 263.9843,-152.41404 z m 0,0"
     style="fill:#f0f0f0;fill-opacity:1;stroke:#000000;stroke-width:4;stroke-linecap:round;stroke-linejoin:round;stroke-miterlimit:4;stroke-dasharray:none;stroke-opacity:1" />
  <path
     id="path5426"
     d="m 2643.79,613.74862 0,304.8242 -263.9843,152.41018 -263.9883,-152.41018 0,-304.8242 263.9883,-152.41404 z m 0,0"
     style="fill:#f0f0f0;fill-opacity:1;stroke:#000000;stroke-width:4;stroke-linecap:round;stroke-linejoin:round;stroke-miterlimit:4;stroke-dasharray:none;stroke-opacity:1" />
  <path
     id="path5428"
     d="m 3171.751,613.74862 0,304.8242 -263.9649,152.41018 -263.9961,-152.41018 0,-304.8242 263.9961,-152.41404 z m 0,0"
     style="fill:#f0f0f0;fill-opacity:1;stroke:#000000;stroke-width:4;stroke-linecap:round;stroke-linejoin:round;stroke-miterlimit:4;stroke-dasharray:none;stroke-opacity:1" />
  <path
     id="path5430"
     d="m 2379.8057,156.42835 0,304.83201 -263.9883,152.41016 -263.9844,-152.41016 0,-304.83201 263.9844,-152.4023709 z m 0,0"
     style="fill:#f0f0f0;fill-opacity:1;stroke:#000000;stroke-width:4;stroke-linecap:round;stroke-linejoin:round;stroke-miterlimit:4;stroke-dasharray:none;stroke-opacity:1" />
  <path
     id="path5432"
     d="m 2907.7861,156.42835 0,304.83201 -263.9961,152.41016 -263.9843,-152.41016 0,-304.83201 L 2643.79,4.0259791 Z m 0,0"
     style="fill:#f0f0f0;fill-opacity:1;stroke:#000000;stroke-width:4;stroke-linecap:round;stroke-linejoin:round;stroke-miterlimit:4;stroke-dasharray:none;stroke-opacity:1" />
  <path
     id="path5434"
     d="m 2379.8057,1070.9752 0,304.8242 -263.9883,152.4101 -263.9844,-152.4101 0,-304.8242 263.9844,-152.41408 z m 0,0"
     style="fill:#f0f0f0;fill-opacity:1;stroke:#000000;stroke-width:4;stroke-linecap:round;stroke-linejoin:round;stroke-miterlimit:4;stroke-dasharray:none;stroke-opacity:1" />
  <path
     id="path5436"
     d="m 2907.7861,1070.9752 0,304.8242 -263.9961,152.4101 -263.9843,-152.4101 0,-304.8242 263.9843,-152.41408 z m 0,0"
     style="fill:#f0f0f0;fill-opacity:1;stroke:#000000;stroke-width:4;stroke-linecap:round;stroke-linejoin:round;stroke-miterlimit:4;stroke-dasharray:none;stroke-opacity:1" />
  <path
     style="fill:#c8c8c8;fill-opacity:1;stroke:#000000;stroke-width:4;stroke-linecap:round;stroke-linejoin:round;stroke-miterlimit:4;stroke-dasharray:none;stroke-opacity:1"
     d="m 1852.0052,1986.0322 0,304.8242 -263.9844,152.4102 -263.9843,-152.4102 0,-304.8242 263.9843,-152.414 z m 0,0"
     id="path5440" />
  <path
     style="fill:#c8c8c8;fill-opacity:1;stroke:#000000;stroke-width:4;stroke-linecap:round;stroke-linejoin:round;stroke-miterlimit:4;stroke-dasharray:none;stroke-opacity:1"
     d="m 2379.9778,1986.0322 0,304.8242 -263.9843,152.4102 -263.9883,-152.4102 0,-304.8242 263.9883,-152.414 z m 0,0"
     id="path5442" />
  <path
     style="fill:#c8c8c8;fill-opacity:1;stroke:#000000;stroke-width:4;stroke-linecap:round;stroke-linejoin:round;stroke-miterlimit:4;stroke-dasharray:none;stroke-opacity:1"
     d="m 2907.9388,1986.0322 0,304.8242 -263.9649,152.4102 -263.9961,-152.4102 0,-304.8242 263.9961,-152.414 z m 0,0"
     id="path5444" />
  <path
     style="fill:#c8c8c8;fill-opacity:1;stroke:#000000;stroke-width:4;stroke-linecap:round;stroke-linejoin:round;stroke-miterlimit:4;stroke-dasharray:none;stroke-opacity:1"
     d="m 2115.9935,1528.7119 0,304.832 -263.9883,152.4102 -263.9844,-152.4102 0,-304.832 263.9844,-152.4023 z m 0,0"
     id="path5446" />
  <path
     style="fill:#c8c8c8;fill-opacity:1;stroke:#000000;stroke-width:4;stroke-linecap:round;stroke-linejoin:round;stroke-miterlimit:4;stroke-dasharray:none;stroke-opacity:1"
     d="m 2643.9739,1528.7119 0,304.832 -263.9961,152.4102 -263.9843,-152.4102 0,-304.832 263.9843,-152.4023 z m 0,0"
     id="path5448" />
  <path
     style="fill:#c8c8c8;fill-opacity:1;stroke:#000000;stroke-width:4;stroke-linecap:round;stroke-linejoin:round;stroke-miterlimit:4;stroke-dasharray:none;stroke-opacity:1"
     d="m 2115.9935,2443.2588 0,304.8242 -263.9883,152.4101 -263.9844,-152.4101 0,-304.8242 263.9844,-152.4141 z m 0,0"
     id="path5450" />
  <path
     style="fill:#c8c8c8;fill-opacity:1;stroke:#000000;stroke-width:4;stroke-linecap:round;stroke-linejoin:round;stroke-miterlimit:4;stroke-dasharray:none;stroke-opacity:1"
     d="m 2643.9739,2443.2588 0,304.8242 -263.9961,152.4101 -263.9843,-152.4101 0,-304.8242 263.9843,-152.4141 z m 0,0"
     id="path5452" />
  <path
     id="path5456"
     d="m 531.96861,2443.3726 0,304.8242 -263.9844,152.4102 -263.9844053,-152.4102 0,-304.8242 263.9844053,-152.414 z m 0,0"
     style="fill:#f0f0f0;fill-opacity:1;stroke:#000000;stroke-width:4;stroke-linecap:round;stroke-linejoin:round;stroke-miterlimit:4;stroke-dasharray:none;stroke-opacity:1" />
  <path
     id="path5458"
     d="m 1059.9411,2443.3726 0,304.8242 -263.98429,152.4102 -263.9883,-152.4102 0,-304.8242 263.9883,-152.414 z m 0,0"
     style="fill:#f0f0f0;fill-opacity:1;stroke:#000000;stroke-width:4;stroke-linecap:round;stroke-linejoin:round;stroke-miterlimit:4;stroke-dasharray:none;stroke-opacity:1" />
  <path
     id="path5460"
     d="m 1587.9021,2443.3726 0,304.8242 -263.9649,152.4102 -263.9961,-152.4102 0,-304.8242 263.9961,-152.414 z m 0,0"
     style="fill:#f0f0f0;fill-opacity:1;stroke:#000000;stroke-width:4;stroke-linecap:round;stroke-linejoin:round;stroke-miterlimit:4;stroke-dasharray:none;stroke-opacity:1" />
  <path
     id="path5462"
     d="m 795.95681,1986.0523 0,304.832 -263.9883,152.4102 -263.9843,-152.4102 0,-304.832 263.9844,-152.4023 z m 0,0"
     style="fill:#f0f0f0;fill-opacity:1;stroke:#000000;stroke-width:4;stroke-linecap:round;stroke-linejoin:round;stroke-miterlimit:4;stroke-dasharray:none;stroke-opacity:1" />
  <path
     id="path5464"
     d="m 1323.9372,1986.0523 0,304.832 -263.9961,152.4102 -263.98429,-152.4102 0,-304.832 263.98429,-152.4023 z m 0,0"
     style="fill:#f0f0f0;fill-opacity:1;stroke:#000000;stroke-width:4;stroke-linecap:round;stroke-linejoin:round;stroke-miterlimit:4;stroke-dasharray:none;stroke-opacity:1" />
  <path
     style="fill:#c8c8c8;fill-opacity:1;stroke:#000000;stroke-width:4;stroke-linecap:round;stroke-linejoin:round;stroke-miterlimit:4;stroke-dasharray:none;stroke-opacity:1"
     d="m 1323.9136,156.41403 0,304.8242 -263.9883,152.41009 -263.98439,-152.41009 0,-304.8242 L 1059.9253,3.9999691 Z m 0,0"
     id="path5482" />
  <path
     style="fill:#c8c8c8;fill-opacity:1;stroke:#000000;stroke-width:4;stroke-linecap:round;stroke-linejoin:round;stroke-miterlimit:4;stroke-dasharray:none;stroke-opacity:1"
     d="m 1851.894,156.41403 0,304.8242 -263.9961,152.41009 -263.9843,-152.41009 0,-304.8242 263.9843,-152.4140609 z m 0,0"
     id="path5484" />
  <circle
     style="fill:none;fill-opacity:1;stroke:#000000;stroke-width:4;stroke-linecap:square;stroke-linejoin:round;stroke-miterlimit:4;stroke-dasharray:none;stroke-dashoffset:0;stroke-opacity:1"
     id="path5500"
     cx="1059.9219"
     cy="1223.7675"
     r="7.8125" />
  <g
     id="g6828"
     transform="translate(-780.32338,-431.16257)"
     style="fill:none;fill-opacity:1">
    <path
       d="m 1840.2452,1596.5808 -15.3856,-26.6488 30.7713,0 z"
       id="path6818"
       style="fill:none;fill-opacity:1;stroke:#000000;stroke-width:4;stroke-linecap:square;stroke-linejoin:round;stroke-miterlimit:4;stroke-dasharray:none;stroke-dashoffset:0;stroke-opacity:1" />
    <path
       id="path6820"
       d="m 1840.2452,1594.9458 0,48.1717"
       style="fill:none;fill-opacity:1;fill-rule:evenodd;stroke:#000000;stroke-width:4;stroke-linecap:square;stroke-linejoin:miter;stroke-miterlimit:4;stroke-dasharray:none;stroke-opacity:1" />
  </g>
  <circle
     r="7.8125"
     cy="1223.7675"
     cx="531.95117"
     id="circle6839"
     style="fill:none;fill-opacity:1;stroke:#000000;stroke-width:4;stroke-linecap:square;stroke-linejoin:round;stroke-miterlimit:4;stroke-dasharray:none;stroke-dashoffset:0;stroke-opacity:1" />
  <circle
     style="fill:none;fill-opacity:1;stroke:#000000;stroke-width:4;stroke-linecap:square;stroke-linejoin:round;stroke-miterlimit:4;stroke-dasharray:none;stroke-dashoffset:0;stroke-opacity:1"
     id="circle6841"
     cx="795.9375"
     cy="766.45685"
     r="7.8125" />
  <circle
     cy="766.45685"
     cx="1323.9141"
     id="circle6843"
     style="fill:none;fill-opacity:1;stroke:#000000;stroke-width:4;stroke-linecap:square;stroke-linejoin:round;stroke-miterlimit:4;stroke-dasharray:none;stroke-dashoffset:0;stroke-opacity:1"
     r="7.8125" />
  <circle
     r="7.8125"
     style="fill:none;fill-opacity:1;stroke:#000000;stroke-width:4;stroke-linecap:square;stroke-linejoin:round;stroke-miterlimit:4;stroke-dasharray:none;stroke-dashoffset:0;stroke-opacity:1"
     id="circle6845"
     cx="1587.8887"
     cy="1223.7675" />
  <circle
     cy="1680.9941"
     cx="1323.9141"
     id="circle6847"
     style="fill:none;fill-opacity:1;stroke:#000000;stroke-width:4;stroke-linecap:square;stroke-linejoin:round;stroke-miterlimit:4;stroke-dasharray:none;stroke-dashoffset:0;stroke-opacity:1"
     r="7.8125" />
  <circle
     r="7.8125"
     style="fill:none;fill-opacity:1;stroke:#000000;stroke-width:4;stroke-linecap:square;stroke-linejoin:round;stroke-miterlimit:4;stroke-dasharray:none;stroke-dashoffset:0;stroke-opacity:1"
     id="circle6849"
     cx="795.9375"
     cy="1680.9941" />
  <g
     transform="translate(-516.33119,-888.47312)"
     id="g6857"
     style="fill:none">
    <path
       style="fill:none;fill-opacity:1;stroke:#000000;stroke-width:4;stroke-linecap:square;stroke-linejoin:round;stroke-miterlimit:4;stroke-dasharray:none;stroke-dashoffset:0;stroke-opacity:1"
       id="path6859"
       d="m 1840.2452,1596.5808 -15.3856,-26.6488 30.7713,0 z" />
    <path
       style="fill:none;fill-rule:evenodd;stroke:#000000;stroke-width:4;stroke-linecap:square;stroke-linejoin:miter;stroke-miterlimit:4;stroke-dasharray:none;stroke-opacity:1"
       d="m 1840.2452,1594.9458 0,48.1717"
       id="path6861" />
  </g>
  <circle
     style="fill:none;fill-opacity:1;stroke:#000000;stroke-width:4;stroke-linecap:square;stroke-linejoin:round;stroke-miterlimit:4;stroke-dasharray:none;stroke-dashoffset:0;stroke-opacity:1"
     id="circle6865"
     cx="531.97058"
     cy="2138.4724"
     r="7.8125" />
  <circle
     r="7.8125"
     cy="2138.4724"
     cx="1059.947"
     id="circle6867"
     style="fill:none;fill-opacity:1;stroke:#000000;stroke-width:4;stroke-linecap:square;stroke-linejoin:round;stroke-miterlimit:4;stroke-dasharray:none;stroke-dashoffset:0;stroke-opacity:1" />
  <circle
     style="fill:none;fill-opacity:1;stroke:#000000;stroke-width:4;stroke-linecap:square;stroke-linejoin:round;stroke-miterlimit:4;stroke-dasharray:none;stroke-dashoffset:0;stroke-opacity:1"
     id="circle6869"
     cx="1588.021"
     cy="2138.4424"
     r="7.8125" />
  <circle
     r="7.8125"
     cy="1681.1318"
     cx="1852.0071"
     id="circle6871"
     style="fill:none;fill-opacity:1;stroke:#000000;stroke-width:4;stroke-linecap:square;stroke-linejoin:round;stroke-miterlimit:4;stroke-dasharray:none;stroke-dashoffset:0;stroke-opacity:1" />
  <circle
     style="fill:none;fill-opacity:1;stroke:#000000;stroke-width:4;stroke-linecap:square;stroke-linejoin:round;stroke-miterlimit:4;stroke-dasharray:none;stroke-dashoffset:0;stroke-opacity:1"
     id="circle6873"
     cx="2115.8193"
     cy="1223.3854"
     r="7.8125" />
  <circle
     r="7.8125"
     cy="766.15875"
     cx="1851.833"
     id="circle6875"
     style="fill:none;fill-opacity:1;stroke:#000000;stroke-width:4;stroke-linecap:square;stroke-linejoin:round;stroke-miterlimit:4;stroke-dasharray:none;stroke-dashoffset:0;stroke-opacity:1" />
  <circle
     style="fill:none;fill-opacity:1;stroke:#000000;stroke-width:4;stroke-linecap:square;stroke-linejoin:round;stroke-miterlimit:4;stroke-dasharray:none;stroke-dashoffset:0;stroke-opacity:1"
     id="circle6877"
     cx="1587.9038"
     cy="308.82413"
     r="7.8125" />
  <circle
     r="7.8125"
     cy="308.82413"
     cx="1059.9272"
     id="circle6879"
     style="fill:none;fill-opacity:1;stroke:#000000;stroke-width:4;stroke-linecap:square;stroke-linejoin:round;stroke-miterlimit:4;stroke-dasharray:none;stroke-dashoffset:0;stroke-opacity:1" />
  <g
     id="g6916"
     transform="translate(-765.99909,-445.29168)">
    <rect
       y="1761.4563"
       x="2032.4998"
       height="46.25"
       width="22.5"
       id="rect6863"
       style="fill:none;fill-opacity:1;stroke:#000000;stroke-width:4;stroke-linecap:square;stroke-linejoin:round;stroke-miterlimit:4;stroke-dasharray:none;stroke-dashoffset:0;stroke-opacity:1" />
    <path
       id="path6914"
       d="m 2037.9685,1761.3001 0,-10.4688"
       style="fill:none;fill-rule:evenodd;stroke:#000000;stroke-width:4;stroke-linecap:round;stroke-linejoin:miter;stroke-miterlimit:4;stroke-dasharray:none;stroke-opacity:1" />
  </g>
  <g
     id="g6920"
     transform="translate(-597.01579,-868.5538)">
    <rect
       style="fill:none;fill-opacity:1;stroke:#000000;stroke-width:4;stroke-linecap:square;stroke-linejoin:round;stroke-miterlimit:4;stroke-dasharray:none;stroke-dashoffset:0;stroke-opacity:1"
       id="rect6922"
       width="22.5"
       height="46.25"
       x="2032.4998"
       y="1761.4563" />
    <path
       style="fill:none;fill-rule:evenodd;stroke:#000000;stroke-width:4;stroke-linecap:round;stroke-linejoin:miter;stroke-miterlimit:4;stroke-dasharray:none;stroke-opacity:1"
       d="m 2037.9685,1761.3001 0,-10.4688"
       id="path6924" />
  </g>
  <path
     style="fill:none;fill-opacity:1;stroke:#000000;stroke-width:4;stroke-linecap:round;stroke-linejoin:round;stroke-miterlimit:4;stroke-dasharray:none;stroke-dashoffset:0;stroke-opacity:1"
     id="path6928"
     d="m 1771.7022,648.67986 a 912.16779,912.16779 0 0 1 127.8714,940.52654 912.16779,912.16779 0 0 1 -777.1494,544.9588 912.16779,912.16779 0 0 1 -840.67516,-440.6886" />
  <path
     style="fill:none;fill-opacity:1;stroke:#000000;stroke-width:4;stroke-linecap:round;stroke-linejoin:round;stroke-miterlimit:4;stroke-dasharray:none;stroke-dashoffset:0;stroke-opacity:1"
     id="path6930"
     d="m 890.51056,464.92101 a 526.79456,526.79456 0 0 1 482.98304,-223.77013 526.79456,526.79456 0 0 1 431.545,311.63215 526.79456,526.79456 0 0 1 -60.5089,528.85187" />
  <path
     style="fill:none;fill-rule:evenodd;stroke:#000000;stroke-width:4;stroke-linecap:butt;stroke-linejoin:miter;stroke-miterlimit:4;stroke-dasharray:none;stroke-opacity:1;marker-end:url(#Arrow2Mend)"
     d="m 1332.05,766.40212 511.2382,-1.1314"
     id="path6932" />
  <path
     id="path7059"
     d="m 1059.485,1231.486 0.577,891.0506"
     style="fill:none;fill-rule:evenodd;stroke:#000000;stroke-width:4;stroke-linecap:butt;stroke-linejoin:miter;stroke-miterlimit:4;stroke-dasharray:none;stroke-opacity:1;marker-end:url(#marker7061)" />
  <path
     style="fill:none;fill-rule:evenodd;stroke:#000000;stroke-width:4;stroke-linecap:butt;stroke-linejoin:miter;stroke-miterlimit:4;stroke-dasharray:none;stroke-opacity:1;marker-end:url(#marker8678)"
     d="m 1067.085,1227.486 191.177,97.2506"
     id="path8676" />
  <path
     id="path9075"
     d="m 1277.8416,1363.2622 -209.0852,762.1359"
     style="fill:none;fill-rule:evenodd;stroke:#000000;stroke-width:4;stroke-linecap:butt;stroke-linejoin:miter;stroke-miterlimit:4;stroke-dasharray:none;stroke-opacity:1;marker-end:url(#marker9077)" />
  <path
     id="path10380"
     d="m 524.80291,1227.6281 -250.1409,145.1085"
     style="fill:none;fill-rule:evenodd;stroke:#000000;stroke-width:4;stroke-linecap:butt;stroke-linejoin:miter;stroke-miterlimit:4;stroke-dasharray:none;stroke-opacity:1;marker-end:url(#marker10382)" />
  <path
     id="path11241"
     d="m 1328.9637,772.65762 100.0983,117.879"
     style="fill:none;fill-rule:evenodd;stroke:#000000;stroke-width:4;stroke-linecap:butt;stroke-linejoin:miter;stroke-miterlimit:4;stroke-dasharray:none;stroke-opacity:1;marker-end:url(#marker11243)" />
  <path
     style="fill:none;fill-rule:evenodd;stroke:#000000;stroke-width:4;stroke-linecap:butt;stroke-linejoin:miter;stroke-miterlimit:4;stroke-dasharray:none;stroke-opacity:1;marker-end:url(#marker11444)"
     d="m 1458.5615,915.66432 379.1219,-141.0236"
     id="path11442" />
  <g
     transform="translate(-755.59909,-462.09168)"
     id="g14033">
    <path
       id="path13579"
       d="m 1882.2385,1059.6926 -0.021,-0.1907 0,-0.1906 -0.022,-0.2119 -0.042,-0.1694 -0.021,-0.1907 -0.064,-0.1907 -0.042,-0.1694 -0.064,-0.1696 -0.064,-0.1694 -0.085,-0.1695 -0.085,-0.1695 -0.106,-0.1483 -0.085,-0.1483 -0.1271,-0.1483 -0.1059,-0.1271 -0.1271,-0.1271 -0.1271,-0.1271 -0.1272,-0.1271 -0.1483,-0.1059 -0.1483,-0.106 -0.1694,-0.1059 -0.1483,-0.085 -0.1695,-0.085 -0.1907,-0.085 -0.1695,-0.064 -0.1906,-0.064 -0.2119,-0.042 -0.1907,-0.042 -0.2118,-0.042 -0.2118,-0.022 -0.2119,0 -0.233,-0.021 c -2.8813,0 -5.7202,2.7541 -5.7202,5.5929 0,2.0339 1.4831,3.8135 4.0465,3.8135 2.4152,0 5.593,-2.4152 5.593,-5.593 z"
       style="font-style:normal;font-variant:normal;font-weight:normal;font-stretch:normal;letter-spacing:normal;word-spacing:normal;text-anchor:start;fill:#000000;fill-opacity:1;fill-rule:evenodd;stroke:#000000;stroke-width:0;stroke-linecap:butt;stroke-linejoin:miter;stroke-miterlimit:10.43299961;stroke-dasharray:none;stroke-dashoffset:0;stroke-opacity:1" />
    <path
       id="path13581"
       d="m 1874.1879,1099.3731 0.106,-0.2754 0.1059,-0.2542 0.1059,-0.2542 0.106,-0.2331 0.085,-0.2118 0.085,-0.2119 0.064,-0.1907 0.085,-0.1906 0.064,-0.1907 0.085,-0.1695 0.064,-0.1695 0.042,-0.1694 0.064,-0.1483 0.064,-0.1483 0.1059,-0.3179 0.106,-0.2965 0.1059,-0.2966 0.064,-0.1483 0.064,-0.1696 0.064,-0.1694 0.042,-0.1695 0.085,-0.1695 0.064,-0.1907 0.064,-0.2118 0.085,-0.1907 0.064,-0.233 0.085,-0.233 0.106,-0.2331 0.085,-0.2754 c 0.8686,-2.1186 1.3982,-3.5592 1.3982,-5.593 0,-4.7244 -3.3684,-8.6225 -8.6648,-8.6225 -9.9149,0 -13.9401,15.2748 -13.9401,16.2493 0,1.0593 1.0593,1.0593 1.2923,1.0593 1.0593,0 1.144,-0.233 1.6737,-1.9279 2.86,-9.936 7.0548,-13.0715 10.6563,-13.0715 0.8475,0 2.6694,0 2.6694,3.3685 0,2.2245 -0.7627,4.449 -1.2076,5.5083 -0.8262,2.7329 -5.5929,14.957 -7.2666,19.533 -1.0381,2.7117 -2.4364,6.2073 -2.4364,8.4318 0,4.9362 3.5804,8.6437 8.6861,8.6437 9.8936,0 13.7918,-15.2959 13.7918,-16.2493 0,-1.0593 -0.911,-1.0593 -1.25,-1.0593 -1.0593,0 -1.0593,0.3178 -1.5889,1.9067 -1.8855,6.6311 -5.3599,13.0715 -10.7622,13.0715 -1.7796,0 -2.5423,-1.0593 -2.5423,-3.4744 0,-2.6482 0.6568,-4.1312 3.0719,-10.5504 z"
       style="font-style:normal;font-variant:normal;font-weight:normal;font-stretch:normal;letter-spacing:normal;word-spacing:normal;text-anchor:start;fill:#000000;fill-opacity:1;fill-rule:evenodd;stroke:#000000;stroke-width:0;stroke-linecap:butt;stroke-linejoin:miter;stroke-miterlimit:10.43299961;stroke-dasharray:none;stroke-dashoffset:0;stroke-opacity:1" />
    <polygon
       id="polygon13583"
       points="669.66,415.51 669.66,418.4 656.45,418.4 656.45,415.51 "
       style="font-style:normal;font-variant:normal;font-weight:normal;font-stretch:normal;letter-spacing:normal;word-spacing:normal;text-anchor:start;fill:#000000;fill-opacity:1;fill-rule:evenodd;stroke:#000000;stroke-width:0;stroke-linecap:butt;stroke-linejoin:miter;stroke-miterlimit:10.43299961;stroke-dasharray:none;stroke-dashoffset:0;stroke-opacity:1"
       transform="matrix(2.118551,0,0,-2.118551,499.01534,1986.2197)" />
    <path
       id="path13585"
       d="m 1941.9392,1083.4628 15.1053,0 0,-3.2838 -15.1053,0 0,-19.4271 -2.6482,0 c -0.1059,8.6437 -3.2837,19.9568 -13.601,20.3593 l 0,2.3516 8.9614,0 0,29.1301 c 0,12.9655 9.8089,14.2366 13.6011,14.2366 7.4785,0 10.4657,-7.4785 10.4657,-14.2366 l 0,-6.0167 -2.6482,0 0,5.7836 c 0,7.8175 -3.1779,11.8215 -7.076,11.8215 -7.0548,0 -7.0548,-9.597 -7.0548,-11.3978 z"
       style="font-style:normal;font-variant:normal;font-weight:normal;font-stretch:normal;letter-spacing:normal;word-spacing:normal;text-anchor:start;fill:#000000;fill-opacity:1;fill-rule:evenodd;stroke:#000000;stroke-width:0;stroke-linecap:butt;stroke-linejoin:miter;stroke-miterlimit:10.43299961;stroke-dasharray:none;stroke-dashoffset:0;stroke-opacity:1" />
    <path
       id="path13587"
       d="m 1976.2174,1117.6562 0,0.2119 -0.022,0.2118 0,0.4025 -0.021,0.3814 -0.021,0.3602 -0.042,0.3177 -0.064,0.3178 -0.064,0.2754 -0.064,0.2542 -0.085,0.2331 -0.1059,0.233 -0.1271,0.1907 -0.1272,0.1906 -0.1694,0.1695 -0.1695,0.1483 -0.1907,0.1271 -0.2119,0.106 -0.2118,0.1059 -0.2542,0.1059 -0.2754,0.064 -0.2966,0.085 -0.339,0.042 -0.3389,0.064 -0.3814,0.021 -0.1907,0.021 -0.2119,0.022 -0.2118,0.022 -0.2118,0 -0.2119,0.021 -0.233,0 -0.2542,0 -0.2331,0.021 -0.2542,0 -0.2755,0 -0.2753,0 -0.2755,0 -0.2754,0 -0.2965,0 -0.2966,0 -0.3179,0 -0.3178,0 -0.3177,0 0,3.2838 c 3.6863,-0.106 9.0674,-0.339 11.9063,-0.339 2.7541,0 8.2411,0.233 11.8215,0.339 l 0,-3.2838 c -7.0548,0 -8.22,0 -8.22,-4.7243 l 0,-19.4271 c 0,-10.9953 7.4784,-16.8849 14.2367,-16.8849 6.6522,0 7.8174,5.6989 7.8174,11.7156 l 0,24.5964 c 0,4.7243 -1.1652,4.7243 -8.2412,4.7243 l 0,3.2838 c 3.7075,-0.106 9.1098,-0.339 11.9487,-0.339 2.7541,0 8.1988,0.233 11.8214,0.339 l 0,-3.2838 c -5.5081,0 -8.1563,0 -8.2411,-3.1778 l 0,-20.1474 c 0,-9.0674 0,-12.3512 -3.2837,-16.1222 -1.4618,-1.8219 -4.9575,-3.8981 -11.0589,-3.8981 -8.8767,0 -13.5375,6.3133 -15.3171,10.3173 l 0,-36.9475 -15.19,1.1652 0,3.2837 c 7.3726,0 8.2411,0.7204 8.2411,5.9109 z"
       style="font-style:normal;font-variant:normal;font-weight:normal;font-stretch:normal;letter-spacing:normal;word-spacing:normal;text-anchor:start;fill:#000000;fill-opacity:1;fill-rule:evenodd;stroke:#000000;stroke-width:0;stroke-linecap:butt;stroke-linejoin:miter;stroke-miterlimit:10.43299961;stroke-dasharray:none;stroke-dashoffset:0;stroke-opacity:1" />
    <path
       id="path13589"
       d="m 2087.7743,1084.7965 0.9534,-0.2118 0.9321,-0.2119 0.9322,-0.2755 0.8898,-0.2753 0.8686,-0.2966 0.8474,-0.339 0.8474,-0.3602 0.8051,-0.3813 0.7838,-0.4025 0.7627,-0.4238 0.7415,-0.4449 0.6991,-0.4448 0.678,-0.4873 0.6567,-0.5085 0.6356,-0.5296 0.5932,-0.5297 0.572,-0.5508 0.5297,-0.5719 0.5084,-0.5932 0.4661,-0.5932 0.4449,-0.6144 0.4025,-0.6356 0.3602,-0.6356 0.3389,-0.6567 0.2966,-0.678 0.2542,-0.6779 0.2331,-0.6779 0.1906,-0.6991 0.1272,-0.7203 0.1059,-0.6992 0.064,-0.7203 0.021,-0.7415 c 0,-9.1733 -9.7241,-17.8382 -23.4312,-17.8382 l -0.7626,3.2838 c 10.2749,0 13.9401,8.9615 13.9401,14.5544 0,6.7582 -5.1693,15.635 -16.8849,15.635 l -15.2959,0 0,2.3091 19.8296,0 c 10.4657,0 14.8934,9.8301 14.8934,16.8849 0,7.5208 -5.487,16.1433 -16.3552,16.1433 l 0,0 -13.1986,0 c -4.9574,0 -5.1692,-0.7202 -5.1692,-4.1947 l 0,-28.8335 0,-2.3091 0,-25.9523 c 0,-3.5168 0.2118,-4.2371 5.1692,-4.2371 l 13.0715,0 0.7626,-3.2838 -38.6212,0 0,3.2838 2.4999,0 c 8.1565,0 8.3472,1.144 8.3472,4.9574 l 0,55.612 c 0,3.8133 -0.1907,4.9573 -8.3472,4.9573 l -2.4999,0 0,3.2838 41.3754,0 c 14.0248,0 23.5371,-9.4064 23.5371,-19.3212 0,-9.1733 -8.6861,-17.0967 -20.4017,-18.3466 z"
       style="font-style:normal;font-variant:normal;font-weight:normal;font-stretch:normal;letter-spacing:normal;word-spacing:normal;text-anchor:start;fill:#000000;fill-opacity:1;fill-rule:evenodd;stroke:#000000;stroke-width:0;stroke-linecap:butt;stroke-linejoin:miter;stroke-miterlimit:10.43299961;stroke-dasharray:none;stroke-dashoffset:0;stroke-opacity:1" />
    <path
       id="path13591"
       d="m 2151.0343,1081.5127 -13.5164,-3.2625 c -6.5463,-1.5889 -10.6563,-7.2879 -10.6563,-13.4105 0,-7.3937 5.6989,-13.8341 13.9401,-13.8341 17.6051,0 19.9356,17.3085 20.5499,22.0753 0.1059,0.6356 0.1059,1.2499 1.2923,1.2499 1.3559,0 1.3559,-0.5296 1.3559,-2.5422 l 0,-21.1855 c 0,-1.822 0,-2.5423 -1.144,-2.5423 -0.7415,0 -0.8686,0.085 -1.5889,1.3771 l -3.6863,5.9955 c -3.1778,-3.0507 -7.4996,-7.3726 -16.9061,-7.3726 -11.7155,0 -20.5711,9.3004 -20.5711,20.4864 0,8.7284 5.6142,16.44 13.813,19.3 1.1652,0.4237 6.5463,1.6737 13.94,3.4744 2.8389,0.7627 6.0167,1.483 8.9615,5.3811 2.2245,2.7541 3.2838,6.2286 3.2838,9.703 0,7.5209 -5.254,15.1053 -14.1308,15.1053 -3.0931,0 -11.1012,-0.5297 -16.6942,-5.6989 -6.1226,-5.699 -6.4615,-12.4359 -6.5462,-16.2493 -0.106,-1.0593 -0.9323,-1.0593 -1.25,-1.0593 -1.3771,0 -1.3771,0.7627 -1.3771,2.6482 l 0,21.1219 c 0,1.7796 0,2.4999 1.1652,2.4999 0.7415,0 0.8262,-0.1906 1.5466,-1.3559 0,-0.085 0.3389,-0.4236 3.8133,-6.0166 3.2838,3.5803 10.042,7.3725 19.4271,7.3725 12.3512,0 20.8043,-10.3173 20.8043,-21.927 0,-10.5716 -6.9701,-19.2152 -15.8256,-21.3338 z"
       style="font-style:normal;font-variant:normal;font-weight:normal;font-stretch:normal;letter-spacing:normal;word-spacing:normal;text-anchor:start;fill:#000000;fill-opacity:1;fill-rule:evenodd;stroke:#000000;stroke-width:0;stroke-linecap:butt;stroke-linejoin:miter;stroke-miterlimit:10.43299961;stroke-dasharray:none;stroke-dashoffset:0;stroke-opacity:1" />
  </g>
  <g
     transform="matrix(0.76681214,0,0,0.76681214,179.83091,-1368.3382)"
     id="g13963">
    <path
       id="path13593"
       d="m 1563.9776,3452.6568 -0.028,-0.2487 0,-0.221 -0.028,-0.2486 -0.055,-0.2487 -0.028,-0.221 -0.083,-0.221 -0.055,-0.2487 -0.083,-0.221 -0.1105,-0.1934 -0.083,-0.221 -0.1105,-0.2211 -0.1382,-0.1934 -0.1381,-0.1934 -0.1382,-0.1933 -0.1381,-0.1934 -0.1658,-0.1658 -0.1934,-0.1658 -0.1657,-0.1657 -0.1934,-0.1382 -0.1934,-0.1658 -0.221,-0.1105 -0.2211,-0.1381 -0.221,-0.1105 -0.2486,-0.1105 -0.2487,-0.083 -0.2487,-0.083 -0.2486,-0.083 -0.2763,-0.055 -0.2763,-0.028 -0.3039,-0.055 -0.3039,0 -0.3039,-0.028 c -3.1772,0 -7.2938,3.2049 -7.2938,7.2938 0,2.7628 1.9063,4.9731 5.1112,4.9731 3.7022,0 7.4319,-3.5917 7.4319,-7.2938 z"
       style="font-style:normal;font-variant:normal;font-weight:normal;font-stretch:normal;letter-spacing:normal;word-spacing:normal;text-anchor:start;fill:#000000;fill-opacity:1;fill-rule:evenodd;stroke:#000000;stroke-width:0;stroke-linecap:butt;stroke-linejoin:miter;stroke-miterlimit:10.43299961;stroke-dasharray:none;stroke-dashoffset:0;stroke-opacity:1" />
    <path
       id="path13595"
       d="m 1536.2943,3545.5699 -0.2486,0.9669 -0.3039,0.967 -0.3039,0.9394 -0.3039,0.9117 -0.3592,0.9117 -0.3592,0.8841 -0.3867,0.8565 -0.4145,0.8288 -0.4144,0.8289 -0.442,0.8012 -0.4697,0.7736 -0.4697,0.7183 -0.4973,0.7183 -0.5249,0.6907 -0.525,0.6631 -0.5525,0.6354 -0.5526,0.6079 -0.5802,0.5525 -0.5802,0.525 -0.6078,0.5249 -0.6078,0.442 -0.6078,0.4421 -0.6355,0.3868 -0.663,0.3591 -0.6631,0.3316 -0.6631,0.2763 -0.663,0.221 -0.6907,0.221 -0.6907,0.1381 -0.7184,0.1106 -0.7183,0.083 -0.6907,0.028 c -0.8288,0 -2.9009,0 -5.4151,-1.2709 4.1442,-0.9946 6.2163,-4.531 6.2163,-7.2938 0,-2.1826 -1.5195,-4.8349 -5.2217,-4.8349 -3.4535,0 -7.4319,2.9009 -7.4319,7.874 0,5.5256 5.4979,8.537 12.101,8.537 9.6146,0 22.434,-7.2938 25.8875,-20.942 l 12.6536,-50.3659 c 0.6908,-2.7628 0.6908,-4.6692 0.6908,-5.1112 0,-7.8464 -5.7743,-12.626 -12.6537,-12.626 -14.0627,0 -21.8814,19.9198 -21.8814,21.1907 0,1.3814 1.3538,1.3814 1.6577,1.3814 1.2433,0 1.3814,-0.1934 2.4589,-2.7628 3.4535,-8.4266 9.7803,-16.7979 17.3504,-16.7979 1.934,0 4.3928,0.5526 4.3928,6.2992 0,3.2049 -0.4144,4.6968 -0.9393,7.0452 z"
       style="font-style:normal;font-variant:normal;font-weight:normal;font-stretch:normal;letter-spacing:normal;word-spacing:normal;text-anchor:start;fill:#000000;fill-opacity:1;fill-rule:evenodd;stroke:#000000;stroke-width:0;stroke-linecap:butt;stroke-linejoin:miter;stroke-miterlimit:10.43299961;stroke-dasharray:none;stroke-dashoffset:0;stroke-opacity:1" />
    <polygon
       id="polygon13597"
       points="839.68,418.4 839.68,415.51 852.89,415.51 852.89,418.4 "
       style="font-style:normal;font-variant:normal;font-weight:normal;font-stretch:normal;letter-spacing:normal;word-spacing:normal;text-anchor:start;fill:#000000;fill-opacity:1;fill-rule:evenodd;stroke:#000000;stroke-width:0;stroke-linecap:butt;stroke-linejoin:miter;stroke-miterlimit:10.43299961;stroke-dasharray:none;stroke-dashoffset:0;stroke-opacity:1"
       transform="matrix(2.7628031,0,0,-2.7628031,-744.39961,4660.9411)" />
    <path
       id="path13599"
       d="m 1643.5464,3483.6554 19.6988,0 0,-4.2823 -19.6988,0 0,-25.3349 -3.4535,0 c -0.1382,11.2722 -4.2824,26.0256 -17.7372,26.5505 l 0,3.0667 11.6866,0 0,37.9886 c 0,16.9083 12.7918,18.566 17.7372,18.566 9.7803,0 13.6483,-9.7527 13.6483,-18.566 l 0,-7.8464 -3.4535,0 0,7.5425 c 0,10.1947 -4.1442,15.4164 -9.2278,15.4164 -9.2001,0 -9.2001,-12.5155 -9.2001,-14.8639 z"
       style="font-style:normal;font-variant:normal;font-weight:normal;font-stretch:normal;letter-spacing:normal;word-spacing:normal;text-anchor:start;fill:#000000;fill-opacity:1;fill-rule:evenodd;stroke:#000000;stroke-width:0;stroke-linecap:butt;stroke-linejoin:miter;stroke-miterlimit:10.43299961;stroke-dasharray:none;stroke-dashoffset:0;stroke-opacity:1" />
    <path
       id="path13601"
       d="m 1688.2485,3528.2471 0,0.2763 -0.028,0.2762 0,0.525 -0.028,0.4973 -0.028,0.4697 -0.055,0.4144 -0.083,0.4144 -0.083,0.3592 -0.083,0.3315 -0.1105,0.3039 -0.1381,0.3039 -0.1658,0.2487 -0.1658,0.2486 -0.221,0.221 -0.221,0.1934 -0.2487,0.1658 -0.2762,0.1382 -0.2763,0.1381 -0.3316,0.1381 -0.3591,0.083 -0.3868,0.1105 -0.4421,0.055 -0.442,0.083 -0.4973,0.028 -0.2487,0.028 -0.2763,0.028 -0.2762,0.028 -0.2763,0 -0.2763,0.028 -0.3039,0 -0.3315,0 -0.3039,0.028 -0.3316,0 -0.3591,0 -0.3592,0 -0.3592,0 -0.3591,0 -0.3868,0 -0.3868,0 -0.4144,0 -0.4145,0 -0.442,0 0,4.2824 c 4.8349,-0.1382 11.8524,-0.4421 15.5546,-0.4421 3.5916,0 10.7473,0.3039 15.4164,0.4421 l 0,-4.2824 c -9.2001,0 -10.7197,0 -10.7197,-6.161 l 0,-25.3349 c 0,-14.339 9.7804,-22.0196 18.5661,-22.0196 8.6752,0 10.1947,7.432 10.1947,15.2783 l 0,32.0762 c 0,6.161 -1.5195,6.161 -10.7473,6.161 l 0,4.2824 c 4.8349,-0.1382 11.8801,-0.4421 15.5822,-0.4421 3.5917,0 10.7197,0.3039 15.4165,0.4421 l 0,-4.2824 c -7.1833,0 -10.6368,0 -10.7473,-4.1442 l 0,-26.2742 c 0,-11.8248 0,-16.1072 -4.2824,-21.025 -1.9063,-2.376 -6.4649,-5.0835 -14.4218,-5.0835 -11.5762,0 -17.6543,8.2331 -19.9751,13.4548 l 0,-48.1833 -19.8369,1.5196 0,4.2823 c 9.6422,0 10.7749,0.9394 10.7749,7.7083 z"
       style="font-style:normal;font-variant:normal;font-weight:normal;font-stretch:normal;letter-spacing:normal;word-spacing:normal;text-anchor:start;fill:#000000;fill-opacity:1;fill-rule:evenodd;stroke:#000000;stroke-width:0;stroke-linecap:butt;stroke-linejoin:miter;stroke-miterlimit:10.43299961;stroke-dasharray:none;stroke-dashoffset:0;stroke-opacity:1" />
    <path
       id="path13603"
       d="m 1828.5713,3447.6837 -0.055,-0.1381 -0.055,-0.1381 -0.055,-0.1105 -0.055,-0.1382 -0.1105,-0.2486 -0.083,-0.2211 -0.1105,-0.1934 -0.1106,-0.1934 -0.083,-0.1934 -0.1106,-0.1657 -0.083,-0.1382 -0.1105,-0.1381 -0.083,-0.1381 -0.1105,-0.1106 -0.1106,-0.1105 -0.1105,-0.1105 -0.1105,-0.083 -0.1105,-0.055 -0.1381,-0.083 -0.1382,-0.055 -0.1381,-0.055 -0.1382,-0.028 -0.1657,-0.055 -0.1658,-0.028 -0.1658,-0.028 -0.1657,0 -0.1934,-0.028 -0.221,0 -0.2211,-0.028 -0.221,0 -0.2486,0 -0.2487,0 -0.2763,0 -0.3039,0 -23.2628,0 0,4.2823 3.343,0 c 10.5539,0 10.8302,1.4919 10.8302,6.465 l 0,68.8214 c 0,3.7022 0,10.1671 -14.1732,10.1671 l 0,4.2824 c 4.8349,-0.1382 11.5762,-0.4421 16.1072,-0.4421 4.5309,0 11.2998,0.3039 16.1071,0.4421 l 0,-4.2824 c -14.1732,0 -14.1732,-6.4649 -14.1732,-10.1671 l 0,-74.1812 0.1382,0 33.1536,85.6192 c 0.6907,1.7682 1.3814,3.0115 2.7628,3.0115 1.5195,0 1.934,-1.1328 2.4589,-2.6247 l 33.8996,-87.1112 0.1105,0 0,78.9886 c 0,4.973 -0.2487,6.4649 -10.8578,6.4649 l -3.2878,0 0,4.2824 c 5.0836,-0.4421 14.4219,-0.4421 19.8093,-0.4421 5.3599,0 14.5876,0 19.6988,0.4421 l 0,-4.2824 -3.343,0 c -10.5815,0 -10.8578,-1.4919 -10.8578,-6.4649 l 0,-72.5236 c 0,-4.9731 0.2763,-6.465 10.8578,-6.465 l 3.343,0 0,-4.2823 -23.2904,0 c -3.564,0 -3.564,0.1381 -4.531,2.6247 l -30.1698,77.4966 z"
       style="font-style:normal;font-variant:normal;font-weight:normal;font-stretch:normal;letter-spacing:normal;word-spacing:normal;text-anchor:start;fill:#000000;fill-opacity:1;fill-rule:evenodd;stroke:#000000;stroke-width:0;stroke-linecap:butt;stroke-linejoin:miter;stroke-miterlimit:10.43299961;stroke-dasharray:none;stroke-dashoffset:0;stroke-opacity:1" />
    <path
       id="path13605"
       d="m 1969.7782,3485.2855 -17.6267,-4.2547 c -8.5371,-2.0721 -13.8969,-9.5041 -13.8969,-17.4886 0,-9.6421 7.4319,-18.0411 18.1792,-18.0411 22.9589,0 25.998,22.5721 26.7992,28.7884 0.1381,0.8289 0.1381,1.6301 1.6853,1.6301 1.7682,0 1.7682,-0.6907 1.7682,-3.3154 l 0,-27.628 c 0,-2.376 0,-3.3154 -1.4919,-3.3154 -0.967,0 -1.1328,0.1105 -2.0721,1.7959 l -4.8073,7.8187 c -4.1442,-3.9784 -9.7803,-9.6146 -22.0472,-9.6146 -15.2783,0 -26.8268,12.1287 -26.8268,26.7163 0,11.3828 7.3215,21.4394 18.0135,25.1692 1.5195,0.5525 8.5371,2.1826 18.1793,4.531 3.7021,0.9946 7.8463,1.9339 11.6866,7.0175 2.901,3.5916 4.2824,8.1226 4.2824,12.6536 0,9.808 -6.8518,19.6988 -18.4279,19.6988 -4.0337,0 -14.4771,-0.6907 -21.7709,-7.4319 -7.9845,-7.432 -8.399,-16.2177 -8.5371,-21.1907 -0.1381,-1.3814 -1.2156,-1.3814 -1.63,-1.3814 -1.7959,0 -1.7959,0.9946 -1.7959,3.4535 l 0,27.5451 c 0,2.3208 0,3.2601 1.5196,3.2601 0.967,0 1.0775,-0.2486 2.0444,-1.7682 0,-0.1105 0.4145,-0.5525 4.9455,-7.8463 4.2823,4.6691 13.0957,9.6145 25.3349,9.6145 16.1071,0 27.1307,-13.4548 27.1307,-28.595 0,-13.7864 -9.062,-25.0586 -20.6381,-27.8214 z"
       style="font-style:normal;font-variant:normal;font-weight:normal;font-stretch:normal;letter-spacing:normal;word-spacing:normal;text-anchor:start;fill:#000000;fill-opacity:1;fill-rule:evenodd;stroke:#000000;stroke-width:0;stroke-linecap:butt;stroke-linejoin:miter;stroke-miterlimit:10.43299961;stroke-dasharray:none;stroke-dashoffset:0;stroke-opacity:1" />
  </g>
  <g
     transform="matrix(0.76681214,0,0,0.76681214,-159.36909,-1621.1382)"
     id="g13972">
    <path
       id="path13607"
       d="m 2083.0531,3452.6568 0,-0.2487 0,-0.2486 0,-0.2763 0,-0.221 0,-0.2487 0,-0.2486 -0.2763,-0.221 0,-0.2211 0,-0.221 -0.2763,-0.221 0,-0.221 0,-0.1934 -0.2763,-0.1934 0,-0.1934 -0.2762,-0.1658 -0.2763,-0.1658 0,-0.1657 -0.2763,-0.1658 0,-0.1381 -0.2763,-0.1382 -0.2763,-0.1381 -0.2762,-0.1105 0,-0.1105 -0.2763,-0.1106 -0.2763,-0.083 -0.2763,-0.083 -0.2763,-0.055 -0.2762,-0.055 -0.2763,-0.055 -0.2763,-0.028 -0.2763,0 -0.2763,-0.028 c -3.8679,0 -7.4595,3.5917 -7.4595,7.2938 0,2.6523 1.9339,4.9731 5.2493,4.9731 3.0391,0 7.1833,-3.1496 7.1833,-7.2938 z"
       style="font-style:normal;font-variant:normal;font-weight:normal;font-stretch:normal;letter-spacing:normal;word-spacing:normal;text-anchor:start;fill:#000000;fill-opacity:1;fill-rule:evenodd;stroke:#000000;stroke-width:0;stroke-linecap:butt;stroke-linejoin:miter;stroke-miterlimit:10.43299961;stroke-dasharray:none;stroke-dashoffset:0;stroke-opacity:1" />
    <path
       id="path13609"
       d="m 2072.5544,3504.4041 0.2763,-0.3592 0,-0.3315 0.2763,-0.3315 0,-0.304 0.2763,-0.2762 0,-0.2763 0.2763,-0.2487 0,-0.2486 0,-0.2487 0.2762,-0.221 0,-0.221 0,-0.221 0,-0.1934 0.2763,-0.1934 0,-0.4145 0.2763,-0.3867 0,-0.3868 0.2763,-0.1934 0,-0.2211 0,-0.221 0,-0.221 0.2763,-0.221 0,-0.2487 0,-0.2763 0.2762,-0.2486 0,-0.3039 0.2763,-0.3039 0,-0.3039 0,-0.3592 c 1.1051,-2.7628 1.934,-4.6415 1.934,-7.2938 0,-6.1611 -4.4205,-11.2446 -11.3275,-11.2446 -12.9852,0 -18.2345,19.9198 -18.2345,21.1907 0,1.3814 1.3814,1.3814 1.6577,1.3814 1.3814,0 1.6576,-0.3039 2.2102,-2.5142 3.8679,-12.9575 9.3935,-17.0465 14.0903,-17.0465 0.8288,0 3.3154,0 3.3154,4.3929 0,2.9009 -1.1052,5.8019 -1.6577,7.1833 -0.8289,3.564 -7.1833,19.5054 -9.3935,25.473 -1.3814,3.5364 -3.0391,8.095 -3.0391,10.996 0,6.4373 4.6967,11.2722 11.3275,11.2722 12.7089,0 17.9582,-19.9474 17.9582,-21.1907 0,-1.3814 -1.3814,-1.3814 -1.6577,-1.3814 -1.3814,0 -1.3814,0.4144 -2.2102,2.4865 -2.4866,8.6476 -6.907,17.0465 -13.8141,17.0465 -2.4865,0 -3.5916,-1.3814 -3.5916,-4.531 0,-3.4535 1.1051,-5.3874 4.1442,-13.7587 z"
       style="font-style:normal;font-variant:normal;font-weight:normal;font-stretch:normal;letter-spacing:normal;word-spacing:normal;text-anchor:start;fill:#000000;fill-opacity:1;fill-rule:evenodd;stroke:#000000;stroke-width:0;stroke-linecap:butt;stroke-linejoin:miter;stroke-miterlimit:10.43299961;stroke-dasharray:none;stroke-dashoffset:0;stroke-opacity:1" />
    <polygon
       id="polygon13611"
       points="1040.2,418.4 1027,418.4 1027,415.51 1040.2,415.51 "
       style="font-style:normal;font-variant:normal;font-weight:normal;font-stretch:normal;letter-spacing:normal;word-spacing:normal;text-anchor:start;fill:#000000;fill-opacity:1;fill-rule:evenodd;stroke:#000000;stroke-width:0;stroke-linecap:butt;stroke-linejoin:miter;stroke-miterlimit:10.43299961;stroke-dasharray:none;stroke-dashoffset:0;stroke-opacity:1"
       transform="matrix(2.7628031,0,0,-2.7628031,-744.39961,4660.9411)" />
    <path
       id="path13613"
       d="m 2160.9641,3483.6554 19.8922,0 0,-4.2823 -19.8922,0 0,-25.3349 -3.3153,0 c -0.2763,11.2722 -4.4205,26.0256 -17.9583,26.5505 l 0,3.0667 11.8801,0 0,37.9886 c 0,16.9083 12.7089,18.566 17.6819,18.566 9.6699,0 13.8141,-9.7527 13.8141,-18.566 l 0,-7.8464 -3.5917,0 0,7.5425 c 0,10.1947 -4.1442,15.4164 -9.3935,15.4164 -9.1173,0 -9.1173,-12.5155 -9.1173,-14.8639 z"
       style="font-style:normal;font-variant:normal;font-weight:normal;font-stretch:normal;letter-spacing:normal;word-spacing:normal;text-anchor:start;fill:#000000;fill-opacity:1;fill-rule:evenodd;stroke:#000000;stroke-width:0;stroke-linecap:butt;stroke-linejoin:miter;stroke-miterlimit:10.43299961;stroke-dasharray:none;stroke-dashoffset:0;stroke-opacity:1" />
    <path
       id="path13615"
       d="m 2205.7215,3528.2471 0,0.2763 0,0.2762 0,0.525 0,0.4973 0,0.4697 0,0.4144 -0.2762,0.4144 0,0.3592 0,0.3315 -0.2763,0.3039 0,0.3039 -0.2763,0.2487 -0.2763,0.2486 0,0.221 -0.2763,0.1934 -0.2762,0.1658 -0.2763,0.1382 -0.2763,0.1381 -0.2763,0.1381 -0.5525,0.083 -0.2763,0.1105 -0.2763,0.055 -0.5526,0.083 -0.5525,0.028 -0.2763,0.028 -0.2763,0.028 -0.2763,0.028 -0.2762,0 -0.2763,0.028 -0.2763,0 -0.2763,0 -0.2763,0.028 -0.2762,0 -0.5526,0 -0.2763,0 -0.2763,0 -0.5525,0 -0.2763,0 -0.2763,0 -0.5526,0 -0.2762,0 -0.5526,0 0,4.2824 c 4.9731,-0.1382 11.8801,-0.4421 15.4717,-0.4421 3.5916,0 10.7749,0.3039 15.4717,0.4421 l 0,-4.2824 c -9.1172,0 -10.7749,0 -10.7749,-6.161 l 0,-25.3349 c 0,-14.339 9.9461,-22.0196 18.787,-22.0196 8.5647,0 9.9461,7.432 9.9461,15.2783 l 0,32.0762 c 0,6.161 -1.3814,6.161 -10.4986,6.161 l 0,4.2824 c 4.6967,-0.1382 11.88,-0.4421 15.4717,-0.4421 3.5916,0 10.7749,0.3039 15.4717,0.4421 l 0,-4.2824 c -7.1833,0 -10.775,0 -10.775,-4.1442 l 0,-26.2742 c 0,-11.8248 0,-16.1072 -4.4205,-21.025 -1.9339,-2.376 -6.3544,-5.0835 -14.3665,-5.0835 -11.6038,0 -17.682,8.2331 -19.8922,13.4548 l 0,-48.1833 -19.8922,1.5196 0,4.2823 c 9.6698,0 10.7749,0.9394 10.7749,7.7083 z"
       style="font-style:normal;font-variant:normal;font-weight:normal;font-stretch:normal;letter-spacing:normal;word-spacing:normal;text-anchor:start;fill:#000000;fill-opacity:1;fill-rule:evenodd;stroke:#000000;stroke-width:0;stroke-linecap:butt;stroke-linejoin:miter;stroke-miterlimit:10.43299961;stroke-dasharray:none;stroke-dashoffset:0;stroke-opacity:1" />
    <path
       id="path13617"
       d="m 2346.0719,3447.6837 0,-0.1381 0,-0.1381 -0.2762,-0.1105 0,-0.1382 0,-0.2486 -0.2763,-0.2211 0,-0.1934 0,-0.1934 -0.2763,-0.1934 0,-0.1657 0,-0.1382 -0.2763,-0.1381 0,-0.1381 0,-0.1106 -0.2763,-0.1105 0,-0.1105 -0.2762,-0.083 0,-0.055 -0.2763,-0.083 0,-0.055 -0.2763,-0.055 0,-0.028 -0.2763,-0.055 0,-0.028 -0.2763,-0.028 0,0 -0.2762,-0.028 -0.2763,0 -0.2763,-0.028 -0.2763,0 0,0 -0.2763,0 -0.2762,0 -0.2763,0 -23.4839,0 0,4.2823 3.3154,0 c 10.7749,0 11.0512,1.4919 11.0512,6.465 l 0,68.8214 c 0,3.7022 0,10.1671 -14.3666,10.1671 l 0,4.2824 c 4.9731,-0.1382 11.6038,-0.4421 16.3006,-0.4421 4.4205,0 11.3275,0.3039 16.0242,0.4421 l 0,-4.2824 c -14.0903,0 -14.0903,-6.4649 -14.0903,-10.1671 l 0,-74.1812 0,0 33.1537,85.6192 c 0.8288,1.7682 1.3814,3.0115 2.7628,3.0115 1.6577,0 1.9339,-1.1328 2.4865,-2.6247 l 33.9825,-87.1112 0,0 0,78.9886 c 0,4.973 -0.2763,6.4649 -10.7749,6.4649 l -3.3154,0 0,4.2824 c 4.973,-0.4421 14.3666,-0.4421 19.8922,-0.4421 5.2493,0 14.6428,0 19.6159,0.4421 l 0,-4.2824 -3.3154,0 c -10.4986,0 -11.0512,-1.4919 -11.0512,-6.4649 l 0,-72.5236 c 0,-4.9731 0.5526,-6.465 11.0512,-6.465 l 3.3154,0 0,-4.2823 -23.2076,0 c -3.5916,0 -3.5916,0.1381 -4.6967,2.6247 l -30.1146,77.4966 z"
       style="font-style:normal;font-variant:normal;font-weight:normal;font-stretch:normal;letter-spacing:normal;word-spacing:normal;text-anchor:start;fill:#000000;fill-opacity:1;fill-rule:evenodd;stroke:#000000;stroke-width:0;stroke-linecap:butt;stroke-linejoin:miter;stroke-miterlimit:10.43299961;stroke-dasharray:none;stroke-dashoffset:0;stroke-opacity:1" />
    <path
       id="path13619"
       d="m 2487.2512,3485.2855 -17.682,-4.2547 c -8.5647,-2.0721 -13.814,-9.5041 -13.814,-17.4886 0,-9.6421 7.4596,-18.0411 18.2345,-18.0411 22.9313,0 25.9704,22.5721 26.7992,28.7884 0,0.8289 0,1.6301 1.6577,1.6301 1.6577,0 1.6577,-0.6907 1.6577,-3.3154 l 0,-27.628 c 0,-2.376 0,-3.3154 -1.3814,-3.3154 -1.1051,0 -1.1051,0.1105 -2.2103,1.7959 l -4.6967,7.8187 c -4.1442,-3.9784 -9.9461,-9.6146 -22.1025,-9.6146 -15.1954,0 -26.7991,12.1287 -26.7991,26.7163 0,11.3828 7.4595,21.4394 17.9582,25.1692 1.6577,0.5525 8.5647,2.1826 18.2345,4.531 3.8679,0.9946 8.0121,1.9339 11.6037,7.0175 3.0391,3.5916 4.4205,8.1226 4.4205,12.6536 0,9.808 -6.907,19.6988 -18.5108,19.6988 -3.8679,0 -14.3665,-0.6907 -21.8261,-7.4319 -7.7358,-7.432 -8.2884,-16.2177 -8.5647,-21.1907 0,-1.3814 -1.1051,-1.3814 -1.3814,-1.3814 -1.9339,0 -1.9339,0.9946 -1.9339,3.4535 l 0,27.5451 c 0,2.3208 0,3.2601 1.6576,3.2601 0.8289,0 1.1052,-0.2486 1.934,-1.7682 0,-0.1105 0.5526,-0.5525 4.973,-7.8463 4.1442,4.6691 12.9852,9.6145 25.4178,9.6145 16.0243,0 27.0755,-13.4548 27.0755,-28.595 0,-13.7864 -9.1173,-25.0586 -20.721,-27.8214 z"
       style="font-style:normal;font-variant:normal;font-weight:normal;font-stretch:normal;letter-spacing:normal;word-spacing:normal;text-anchor:start;fill:#000000;fill-opacity:1;fill-rule:evenodd;stroke:#000000;stroke-width:0;stroke-linecap:butt;stroke-linejoin:miter;stroke-miterlimit:10.43299961;stroke-dasharray:none;stroke-dashoffset:0;stroke-opacity:1" />
  </g>
  <g
     transform="matrix(0.76681214,0,0,0.76681214,-812.16908,-1473.9382)"
     id="g13981">
    <path
       id="path13621"
       d="m 2609.6434,3530.9546 0.2762,0.525 0,0.5249 0.2763,0.4973 0.2763,0.4973 0.2763,0.4697 0.2763,0.442 0.2762,0.4421 0.2763,0.442 0.2763,0.4144 0.2763,0.4145 0.2763,0.3868 0.2762,0.3591 0.2763,0.3592 0.5526,0.3315 0.2763,0.3316 0.5525,0.3039 0.2763,0.3039 0.5526,0.2763 0.2762,0.2486 0.5526,0.2487 0.2763,0.221 0.5525,0.1934 0.5526,0.1934 0.5526,0.1657 0.2762,0.1658 0.5526,0.1105 0.5526,0.1382 0.5525,0.083 0.5526,0.055 0.5525,0.055 0.5526,0.028 0.5526,0.028 c 4.6967,0 8.0121,-3.1496 10.2223,-7.5701 2.2103,-4.9454 3.868,-13.3719 3.868,-13.6206 0,-1.3814 -1.1052,-1.3814 -1.3814,-1.3814 -1.3814,0 -1.6577,0.5526 -2.2103,2.4865 -1.6577,7.6806 -4.4205,17.0465 -10.2224,17.0465 -2.7628,0 -4.1442,-1.7958 -4.1442,-6.3268 0,-3.0391 1.6577,-9.504 2.7628,-14.2837 l 3.868,-14.9191 c 0.2763,-2.0721 1.6577,-7.2938 2.2102,-9.3659 0.8289,-3.1496 2.2103,-8.3713 2.2103,-9.1725 0,-2.5142 -1.934,-3.7298 -4.1442,-3.7298 -0.5526,0 -4.1443,0.1381 -5.2494,4.8073 -2.7628,10.0566 -8.8409,34.1482 -10.4986,41.442 0,0.5526 -5.5256,11.5485 -15.748,11.5485 -6.907,0 -8.2884,-6.2163 -8.2884,-11.2998 0,-7.6806 3.8679,-18.5661 7.4596,-28.0701 1.3814,-4.1442 2.2102,-6.0229 2.2102,-8.6752 0,-6.1611 -4.4205,-11.2446 -11.3275,-11.2446 -12.9852,0 -18.2345,19.9198 -18.2345,21.1907 0,1.3814 1.3814,1.3814 1.6577,1.3814 1.3814,0 1.6577,-0.3039 2.2102,-2.5142 3.5917,-11.9629 8.841,-17.0465 14.0903,-17.0465 1.1051,0 3.3154,0.1382 3.3154,4.531 0,3.3154 -1.3814,7.2938 -2.2103,9.3659 -5.2493,13.6483 -8.0121,22.1577 -8.0121,28.8713 0,13.0957 9.3935,16.5492 16.8531,16.5492 9.1173,0 14.0903,-6.1887 16.3006,-9.2554 z"
       style="font-style:normal;font-variant:normal;font-weight:normal;font-stretch:normal;letter-spacing:normal;word-spacing:normal;text-anchor:start;fill:#000000;fill-opacity:1;fill-rule:evenodd;stroke:#000000;stroke-width:0;stroke-linecap:butt;stroke-linejoin:miter;stroke-miterlimit:10.43299961;stroke-dasharray:none;stroke-dashoffset:0;stroke-opacity:1" />
    <path
       id="path13623"
       d="m 2682.8576,3499.0719 0,-0.1658 0,-0.1658 0,-0.1381 0,-0.1658 0,-0.1657 0,-0.1658 -0.2762,-0.1381 0,-0.1658 0,-0.1658 0,-0.1381 -0.2763,-0.1658 0,-0.1381 0,-0.1658 -0.2763,-0.1381 0,-0.1382 0,-0.1381 -0.2763,-0.1382 0,-0.1105 -0.2763,-0.1381 0,-0.1105 -0.2762,-0.1105 -0.2763,-0.083 0,-0.1105 -0.2763,-0.083 0,-0.055 -0.2763,-0.083 -0.2763,-0.055 -0.2762,-0.055 0,-0.028 -0.2763,-0.028 -0.2763,-0.028 -0.2763,0 c -2.7628,0 -5.2493,2.7075 -5.2493,5.3045 0,1.5472 1.1051,3.6746 3.5916,3.6746 2.7628,0 5.5256,-2.5142 5.5256,-5.3046 z"
       style="font-style:normal;font-variant:normal;font-weight:normal;font-stretch:normal;letter-spacing:normal;word-spacing:normal;text-anchor:start;fill:#000000;fill-opacity:1;fill-rule:evenodd;stroke:#000000;stroke-width:0;stroke-linecap:butt;stroke-linejoin:miter;stroke-miterlimit:10.43299961;stroke-dasharray:none;stroke-dashoffset:0;stroke-opacity:1" />
    <path
       id="path13625"
       d="m 2662.4129,3563.9425 0,0.6354 -0.2763,0.6079 -0.2763,0.6078 -0.2762,0.5802 -0.2763,0.5802 -0.2763,0.5801 -0.2763,0.5802 -0.2763,0.5526 -0.2762,0.5249 -0.2763,0.525 -0.2763,0.5249 -0.2763,0.4973 -0.5526,0.4697 -0.2762,0.4696 -0.2763,0.4421 -0.5526,0.4144 -0.2763,0.4144 -0.5525,0.3868 -0.5526,0.3592 -0.2763,0.3592 -0.5525,0.3039 -0.5526,0.3039 -0.2763,0.2763 -0.5525,0.2486 -0.5526,0.221 -0.5525,0.1934 -0.2763,0.1658 -0.5526,0.1381 -0.5525,0.1106 -0.5526,0.083 -0.5526,0.055 -0.5525,0 c -1.1051,0 -2.2103,-0.1658 -3.3154,-0.5526 2.4865,-1.1603 3.0391,-3.4535 3.0391,-4.9178 0,-2.2931 -1.6577,-3.5363 -3.5916,-3.5363 -3.0391,0 -5.5257,2.597 -5.5257,5.6361 0,3.6745 3.868,6.1058 9.6699,6.1058 5.8018,0 16.8531,-3.4535 19.8921,-15.1955 l 8.5647,-34.5074 c 0.2763,-1.0222 0.5526,-1.8787 0.5526,-3.3706 0,-5.2493 -4.4205,-9.0067 -10.2224,-9.0067 -10.7749,0 -16.8531,13.3719 -16.8531,14.7257 0,1.2433 1.3814,1.2433 1.6577,1.2433 1.1051,0 1.1051,-0.3039 1.934,-1.713 2.2102,-5.6361 7.4595,-11.5761 12.9851,-11.5761 2.2103,0 3.3154,1.6301 3.3154,4.6968 0,1.0775 -0.2763,2.4312 -0.5526,2.9009 z"
       style="font-style:normal;font-variant:normal;font-weight:normal;font-stretch:normal;letter-spacing:normal;word-spacing:normal;text-anchor:start;fill:#000000;fill-opacity:1;fill-rule:evenodd;stroke:#000000;stroke-width:0;stroke-linecap:butt;stroke-linejoin:miter;stroke-miterlimit:10.43299961;stroke-dasharray:none;stroke-dashoffset:0;stroke-opacity:1" />
  </g>
  <g
     transform="matrix(0.76681214,0,0,0.76681214,-818.56908,-1841.9382)"
     id="g13986">
    <path
       id="path13627"
       d="m 2792.5409,3530.9546 0.2763,0.525 0,0.5249 0.2763,0.4973 0.2763,0.4973 0,0.4697 0.2762,0.442 0.2763,0.4421 0.2763,0.442 0.2763,0.4144 0.2763,0.4145 0.5525,0.3868 0.2763,0.3591 0.2763,0.3592 0.2763,0.3315 0.5525,0.3316 0.2763,0.3039 0.5526,0.3039 0.2762,0.2763 0.5526,0.2486 0.2763,0.2487 0.5525,0.221 0.5526,0.1934 0.2763,0.1934 0.5525,0.1657 0.5526,0.1658 0.5526,0.1105 0.5525,0.1382 0.5526,0.083 0.2763,0.055 0.5525,0.055 0.5526,0.028 0.5526,0.028 c 4.973,0 8.0121,-3.1496 10.2223,-7.5701 2.4865,-4.9454 4.1442,-13.3719 4.1442,-13.6206 0,-1.3814 -1.1051,-1.3814 -1.6577,-1.3814 -1.3814,0 -1.3814,0.5526 -1.9339,2.4865 -1.934,7.6806 -4.4205,17.0465 -10.2224,17.0465 -3.0391,0 -4.4205,-1.7958 -4.4205,-6.3268 0,-3.0391 1.6577,-9.504 2.7628,-14.2837 l 3.868,-14.9191 c 0.5525,-2.0721 1.9339,-7.2938 2.4865,-9.3659 0.5525,-3.1496 1.9339,-8.3713 1.9339,-9.1725 0,-2.5142 -1.9339,-3.7298 -3.8679,-3.7298 -0.8288,0 -4.4205,0.1381 -5.5256,4.8073 -2.4865,10.0566 -8.5647,34.1482 -10.2224,41.442 -0.2762,0.5526 -5.5256,11.5485 -15.7479,11.5485 -7.1833,0 -8.5647,-6.2163 -8.5647,-11.2998 0,-7.6806 3.8679,-18.5661 7.4595,-28.0701 1.6577,-4.1442 2.4866,-6.0229 2.4866,-8.6752 0,-6.1611 -4.4205,-11.2446 -11.3275,-11.2446 -13.2615,0 -18.2345,19.9198 -18.2345,21.1907 0,1.3814 1.3814,1.3814 1.6577,1.3814 1.3814,0 1.6576,-0.3039 2.2102,-2.5142 3.3154,-11.9629 8.841,-17.0465 13.814,-17.0465 1.3814,0 3.5917,0.1382 3.5917,4.531 0,3.3154 -1.6577,7.2938 -2.4866,9.3659 -4.973,13.6483 -8.0121,22.1577 -8.0121,28.8713 0,13.0957 9.6698,16.5492 17.1294,16.5492 9.1172,0 14.0903,-6.1887 16.3005,-9.2554 z"
       style="font-style:normal;font-variant:normal;font-weight:normal;font-stretch:normal;letter-spacing:normal;word-spacing:normal;text-anchor:start;fill:#000000;fill-opacity:1;fill-rule:evenodd;stroke:#000000;stroke-width:0;stroke-linecap:butt;stroke-linejoin:miter;stroke-miterlimit:10.43299961;stroke-dasharray:none;stroke-dashoffset:0;stroke-opacity:1" />
    <path
       id="path13629"
       d="m 2854.4277,3499.0719 0,-0.1382 0,-0.1657 0,-0.1382 0,-0.1657 0,-0.1382 0,-0.1657 0,-0.1382 -0.2763,-0.1657 0,-0.1658 0,-0.1382 0,-0.1657 -0.2763,-0.1382 0,-0.1657 0,-0.1382 -0.2762,-0.1381 0,-0.1382 -0.2763,-0.1381 0,-0.1381 -0.2763,-0.1105 0,-0.1382 -0.2763,-0.1105 0,-0.083 -0.2763,-0.1105 -0.2762,-0.083 0,-0.083 -0.2763,-0.083 -0.2763,-0.055 0,-0.055 -0.2763,-0.028 -0.2763,-0.028 -0.2762,-0.028 -0.2763,0 c -2.4865,0 -5.2493,2.5141 -5.2493,5.3045 0,1.6301 1.1051,3.6746 3.8679,3.6746 2.7628,0 5.2493,-2.7352 5.2493,-5.3046 z"
       style="font-style:normal;font-variant:normal;font-weight:normal;font-stretch:normal;letter-spacing:normal;word-spacing:normal;text-anchor:start;fill:#000000;fill-opacity:1;fill-rule:evenodd;stroke:#000000;stroke-width:0;stroke-linecap:butt;stroke-linejoin:miter;stroke-miterlimit:10.43299961;stroke-dasharray:none;stroke-dashoffset:0;stroke-opacity:1" />
    <path
       id="path13631"
       d="m 2834.8118,3547.9735 0,0.4697 -0.2763,0.4697 0,0.221 0,0.2486 -0.2763,0.2211 0,0.2486 0,0.2487 0,0.2486 -0.2762,0.2763 0,0.2486 0,0.2763 0,0.1382 0,0.1381 0,0.1658 0,0.1381 0,0.1382 0,0.1657 c 0,4.531 3.8679,8.1503 9.1172,8.1503 9.6698,0 13.814,-13.2338 13.814,-14.7258 0,-1.2432 -1.1051,-1.2432 -1.3814,-1.2432 -1.3814,0 -1.6577,0.5525 -1.9339,1.63 -2.2103,7.7083 -6.3545,11.6591 -10.2224,11.6591 -1.934,0 -2.4865,-1.2433 -2.4865,-3.3706 0,-2.1827 0.8288,-4.0337 1.6577,-6.1611 0.8288,-2.597 1.9339,-5.1664 3.039,-7.6806 0.8289,-2.3207 4.4205,-11.1065 4.6968,-12.2668 0.2763,-0.9394 0.5526,-2.0998 0.5526,-3.0668 0,-4.5309 -3.868,-8.1502 -9.1173,-8.1502 -9.3935,0 -13.814,13.068 -13.814,14.7257 0,1.2433 1.1051,1.2433 1.6577,1.2433 1.1051,0 1.3814,-0.4697 1.6577,-1.5472 2.4865,-8.2884 6.6307,-11.7419 10.2223,-11.7419 1.6577,0 2.4866,0.7736 2.4866,3.3706 0,2.1826 -0.5526,3.6469 -3.0391,9.6146 z"
       style="font-style:normal;font-variant:normal;font-weight:normal;font-stretch:normal;letter-spacing:normal;word-spacing:normal;text-anchor:start;fill:#000000;fill-opacity:1;fill-rule:evenodd;stroke:#000000;stroke-width:0;stroke-linecap:butt;stroke-linejoin:miter;stroke-miterlimit:10.43299961;stroke-dasharray:none;stroke-dashoffset:0;stroke-opacity:1" />
  </g>
  <g
     transform="translate(-790.79909,-455.69168)"
     id="g14074">
    <path
       id="path13633"
       d="m 2307.3726,1181.4232 -0.2118,0.3813 0,0.3602 -0.2119,0.3389 0,0.3178 -0.2118,0.3177 0,0.2755 -0.2119,0.2754 0,0.2542 -0.2119,0.2331 0,0.233 -0.2118,0.2119 -0.2118,0.1907 0,0.1906 -0.2119,0.1483 -0.2119,0.1695 -0.2118,0.1271 -0.2118,0.1483 -0.4238,0.1059 -0.2118,0.106 -0.2119,0.1059 -0.4237,0.085 -0.2118,0.042 -0.2119,0.021 -0.2119,0.042 -0.2118,0.042 -0.2119,0.021 -0.2118,0.021 -0.2119,0.022 -0.2119,0.042 -0.2118,0.022 -0.2118,0.021 -0.4238,0 -0.2118,0.021 -0.2118,0.022 -0.4238,0 -0.2118,0.021 -0.4238,0 -0.2118,0.021 -0.4237,0 -0.2119,0 -0.4236,0 -0.4238,0 -0.4237,0 c -1.6948,0 -2.966,0 -2.966,2.0338 0,1.25 1.0593,1.25 2.966,1.25 l 34.9561,0 -1.9067,-3.2838 -11.8639,0 c -1.483,0 -1.6949,0 -2.3304,-0.085 -1.0593,-0.1059 -1.2711,-0.2119 -1.2711,-1.0593 0,-0.2966 0,-0.5296 0.4237,-2.4151 l 14.4061,-57.9636 c 1.0593,-3.6862 1.2712,-4.0041 5.7201,-4.0041 l 11.2284,0 c 10.3808,0 19.2788,5.593 19.2788,19.5331 0,5.1481 -2.1186,22.4566 -11.2284,34.0875 -2.9659,3.8981 -11.2282,11.9062 -24.3633,11.9062 l 1.9067,3.2838 c 22.0329,0 42.7947,-22.266 42.7947,-45.3794 0,-14.8934 -8.8979,-26.7149 -24.787,-26.7149 l -35.3798,0 c -2.1186,0 -3.1779,0 -3.1779,2.0127 0,1.271 0.8475,1.271 2.966,1.271 1.2711,0 3.3897,0.085 4.449,0.1907 1.6949,0.2331 2.3304,0.5297 2.3304,1.6948 0,0.4238 0,0.7627 -0.4238,2.0127 z"
       style="font-style:normal;font-variant:normal;font-weight:normal;font-stretch:normal;letter-spacing:normal;word-spacing:normal;text-anchor:start;fill:#000000;fill-opacity:1;fill-rule:evenodd;stroke:#000000;stroke-width:0;stroke-linecap:butt;stroke-linejoin:miter;stroke-miterlimit:10.43299961;stroke-dasharray:none;stroke-dashoffset:0;stroke-opacity:1" />
    <path
       id="path13635"
       d="m 2392.7502,1176.2539 11.6521,0 0,-2.6482 -11.6521,0 0,-13.5587 -2.5422,0 c 0,6.6098 -2.966,13.9189 -10.1691,14.1519 l 0,2.055 6.9912,0 0,19.9355 c 0,8.2836 6.1439,9.9573 10.1691,9.9573 5.0845,0 8.4742,-4.1948 8.4742,-10.0208 l 0,-4.0677 -2.5423,0 0,4.0041 c 0,4.9999 -2.3303,7.7328 -5.2964,7.7328 -5.0845,0 -5.0845,-6.1862 -5.0845,-7.5421 z"
       style="font-style:normal;font-variant:normal;font-weight:normal;font-stretch:normal;letter-spacing:normal;word-spacing:normal;text-anchor:start;fill:#000000;fill-opacity:1;fill-rule:evenodd;stroke:#000000;stroke-width:0;stroke-linecap:butt;stroke-linejoin:miter;stroke-miterlimit:10.43299961;stroke-dasharray:none;stroke-dashoffset:0;stroke-opacity:1" />
    <path
       id="path13637"
       d="m 2426.6471,1159.8775 0,-0.2119 0,-0.1907 0,-0.2118 -0.2119,-0.1907 0,-0.1906 0,-0.1907 0,-0.1907 -0.2118,-0.1906 0,-0.1907 -0.2119,-0.1695 0,-0.1695 -0.2119,-0.1907 0,-0.1483 -0.2118,-0.1694 0,-0.1483 -0.2118,-0.1483 -0.2119,-0.1483 0,-0.1483 -0.2119,-0.1271 -0.2119,-0.1271 -0.2118,-0.1059 -0.2118,-0.106 0,-0.1059 -0.2119,-0.085 -0.2119,-0.085 -0.2118,-0.064 -0.2118,-0.064 -0.2119,-0.042 -0.2119,-0.042 -0.2118,-0.022 -0.2119,-0.022 -0.4237,-0.021 c -2.1185,0 -4.0253,1.7583 -4.0253,4.2159 0,2.6482 2.1186,4.2583 4.0253,4.2583 2.5422,0 4.449,-1.822 4.449,-4.2583 z"
       style="font-style:normal;font-variant:normal;font-weight:normal;font-stretch:normal;letter-spacing:normal;word-spacing:normal;text-anchor:start;fill:#000000;fill-opacity:1;fill-rule:evenodd;stroke:#000000;stroke-width:0;stroke-linecap:butt;stroke-linejoin:miter;stroke-miterlimit:10.43299961;stroke-dasharray:none;stroke-dashoffset:0;stroke-opacity:1" />
    <path
       id="path13639"
       d="m 2415.4187,1173.6692 0,2.6482 c 4.6609,0 5.2964,0.4661 5.2964,4.0888 l 0,19.1941 c 0,3.1778 -0.8474,3.1778 -5.5082,3.1778 l 0,2.6482 c 0,0 5.2963,-0.2966 8.2624,-0.2966 2.5422,0 5.0845,0.064 7.8386,0.2966 l 0,-2.6482 c -4.449,0 -5.0845,0 -5.0845,-3.1142 l 0,-26.7785 z"
       style="font-style:normal;font-variant:normal;font-weight:normal;font-stretch:normal;letter-spacing:normal;word-spacing:normal;text-anchor:start;fill:#000000;fill-opacity:1;fill-rule:evenodd;stroke:#000000;stroke-width:0;stroke-linecap:butt;stroke-linejoin:miter;stroke-miterlimit:10.43299961;stroke-dasharray:none;stroke-dashoffset:0;stroke-opacity:1" />
    <path
       id="path13641"
       d="m 2467.3233,1188.6051 0.2118,0 0.2118,0 0,0 0.2119,0 0,0 0.2119,0 0,-0.022 0.2118,0 0,-0.021 0.2119,0 0,-0.022 0.2118,-0.021 0,-0.022 0,-0.021 0.2119,-0.042 0,-0.042 0,-0.042 0,-0.042 0.2118,-0.042 0,-0.064 0,-0.064 0,-0.064 0,-0.085 0.2119,-0.042 0,-0.042 0,-0.042 0,-0.042 0,-0.042 0,-0.064 0,-0.042 0,-0.064 0,-0.042 0,-0.064 0,-0.064 0,-0.064 0,-0.064 0,-0.064 0,-0.085 0,-0.064 0,-0.064 0,-0.085 c 0,-6.4828 -3.6016,-14.4697 -14.618,-14.4697 -9.7454,0 -17.1603,7.6903 -17.1603,16.7789 0,9.3852 8.2624,16.8849 18.0077,16.8849 10.169,0 13.7706,-7.9658 13.7706,-9.5971 0,-0.2966 -0.2119,-1.0169 -1.2711,-1.0169 -0.8474,0 -1.0593,0.4661 -1.2712,1.1864 -2.3304,5.9531 -8.0504,7.076 -10.5927,7.076 -3.3897,0 -6.7794,-1.5466 -9.1098,-4.3642 -2.5422,-3.4321 -2.7541,-7.9446 -2.7541,-10.8258 l 0.2119,-1.9279 c 0.8474,-10.4233 7.4149,-12.097 10.169,-12.097 9.1098,0 9.3216,10.2538 9.5335,12.097 l -19.7025,0 -0.2119,1.9279 z"
       style="font-style:normal;font-variant:normal;font-weight:normal;font-stretch:normal;letter-spacing:normal;word-spacing:normal;text-anchor:start;fill:#000000;fill-opacity:1;fill-rule:evenodd;stroke:#000000;stroke-width:0;stroke-linecap:butt;stroke-linejoin:miter;stroke-miterlimit:10.43299961;stroke-dasharray:none;stroke-dashoffset:0;stroke-opacity:1" />
    <path
       id="path13643"
       d="m 2487.2376,1188.6051 0,-0.5932 0,-0.5933 0,-0.5932 0.2119,-0.5932 0,-0.5931 0,-0.6144 0.2118,-0.5932 0.2119,-0.5932 0,-0.572 0.2118,-0.5932 0.2119,-0.572 0.2118,-0.5509 0.2119,-0.5508 0.2119,-0.5296 0.2118,-0.5296 0.4237,-0.5085 0.2119,-0.4872 0.4237,-0.4661 0.4237,-0.4449 0.2119,-0.4025 0.4236,-0.4026 0.4238,-0.3813 0.4237,-0.339 0.4237,-0.3177 0.6356,-0.2755 0.4236,-0.2542 0.4238,-0.2118 0.6355,-0.1907 0.6356,-0.1271 0.6356,-0.106 0.6356,-0.064 0.6355,-0.021 c -0.6355,0.5296 -1.2711,1.483 -1.2711,2.6482 0,2.4363 1.9066,3.4109 3.1778,3.4109 1.9067,0 3.3897,-1.2076 3.3897,-3.4109 0,-2.5211 -2.3304,-4.7032 -5.7201,-4.7032 -3.8134,0 -7.8386,2.288 -9.9572,7.881 l -0.2118,0 0,-7.881 -10.381,0.7839 0,2.6481 c 4.8727,0 5.5083,0.5297 5.5083,4.1524 l 0,19.1305 c 0,3.1778 -0.8474,3.1778 -5.5083,3.1778 l 0,2.6482 c 0.2119,0 5.2965,-0.2966 8.2624,-0.2966 3.1778,0 6.5675,0.1696 9.7454,0.2966 l 0,-2.6482 -1.4831,0 c -5.5082,0 -5.5082,-0.8262 -5.5082,-3.3472 z"
       style="font-style:normal;font-variant:normal;font-weight:normal;font-stretch:normal;letter-spacing:normal;word-spacing:normal;text-anchor:start;fill:#000000;fill-opacity:1;fill-rule:evenodd;stroke:#000000;stroke-width:0;stroke-linecap:butt;stroke-linejoin:miter;stroke-miterlimit:10.43299961;stroke-dasharray:none;stroke-dashoffset:0;stroke-opacity:1" />
    <path
       id="path13645"
       d="m 2537.6209,1158.4792 0,-0.085 0,-0.085 0,-0.1059 0,-0.085 0,-0.064 0,-0.085 0,-0.085 0,-0.064 0,-0.085 0,-0.064 0,-0.064 0,-0.064 0,-0.064 0,-0.064 0,-0.064 0,-0.042 0,-0.064 0,-0.042 0,-0.064 0,-0.042 0,-0.085 0,-0.085 0,-0.064 -0.2118,-0.064 0,-0.064 0,-0.064 0,-0.042 -0.2119,-0.042 0,-0.042 0,-0.022 -0.2118,-0.022 0,-0.042 -0.2119,0 0,0 0,-0.021 0,0 -0.2118,-0.022 0,0 0,0 0,0 -0.2119,0 0,-0.022 0,0 -0.2119,0 0,0 -0.2118,0 0,0 0,0 -0.2119,0 0,0 -0.2118,0 0,0 c -4.6609,4.6608 -11.4402,4.7244 -14.4062,4.7244 l 0,2.6482 c 1.6949,0 6.5675,0 10.5928,-2.055 l 0,37.6466 c 0,2.4576 0,3.4109 -7.415,3.4109 l -2.7541,0 0,2.6482 c 1.2712,-0.064 10.3809,-0.2966 13.1351,-0.2966 2.3304,0 11.652,0.2331 13.3468,0.2966 l 0,-2.6482 -2.966,0 c -7.4149,0 -7.4149,-0.9533 -7.4149,-3.4109 z"
       style="font-style:normal;font-variant:normal;font-weight:normal;font-stretch:normal;letter-spacing:normal;word-spacing:normal;text-anchor:start;fill:#000000;fill-opacity:1;fill-rule:evenodd;stroke:#000000;stroke-width:0;stroke-linecap:butt;stroke-linejoin:miter;stroke-miterlimit:10.43299961;stroke-dasharray:none;stroke-dashoffset:0;stroke-opacity:1" />
  </g>
  <g
     transform="translate(-790.79909,-455.69168)"
     id="g14065">
    <path
       id="path13647"
       d="m 1554.5939,2045.4232 -0.2118,0.3813 0,0.3602 -0.2119,0.3389 0,0.3178 0,0.3178 -0.2119,0.2754 0,0.2755 -0.2118,0.2542 0,0.233 -0.2118,0.233 -0.2119,0.2119 0,0.1907 -0.2119,0.1906 -0.2118,0.1483 -0.2118,0.1695 -0.2119,0.1271 -0.2119,0.1483 -0.2119,0.1059 -0.4236,0.106 -0.2119,0.1059 -0.4237,0.085 -0.2119,0.042 -0.2118,0.021 0,0.042 -0.2119,0.042 -0.2118,0.022 -0.4238,0.021 -0.2118,0.021 -0.2118,0.042 -0.2119,0.021 -0.2119,0.022 -0.2118,0 -0.4237,0.021 -0.2119,0.021 -0.2118,0 -0.4238,0.021 -0.2118,0 -0.4237,0.021 -0.4238,0 -0.2118,0 -0.4237,0 -0.4237,0 -0.2118,0 c -1.9068,0 -2.9661,0 -2.9661,2.0339 0,1.2499 0.8475,1.2499 2.9661,1.2499 l 34.7442,0 -1.9067,-3.2838 -11.8639,0 c -1.483,0 -1.6948,0 -2.3304,-0.085 -1.0593,-0.1059 -1.2712,-0.2119 -1.2712,-1.0593 0,-0.2966 0,-0.5296 0.4238,-2.4151 l 14.4061,-57.9636 c 1.0593,-3.6862 1.2712,-4.004 5.7201,-4.004 l 11.4402,0 c 10.3809,0 19.0669,5.5929 19.0669,19.533 0,5.1481 -2.1185,22.4567 -11.2283,34.0875 -2.966,3.8981 -11.2283,11.9062 -24.3633,11.9062 l 1.9067,3.2838 c 22.0329,0 42.7947,-22.266 42.7947,-45.3794 0,-14.8934 -8.8979,-26.7149 -24.787,-26.7149 l -35.3799,0 c -2.1185,0 -3.1778,0 -3.1778,2.0127 0,1.2711 0.8475,1.2711 2.966,1.2711 1.483,0 3.3897,0.085 4.6608,0.1907 1.6949,0.233 2.3304,0.5296 2.3304,1.6948 0,0.4237 -0.2119,0.7626 -0.4237,2.0126 z"
       style="font-style:normal;font-variant:normal;font-weight:normal;font-stretch:normal;letter-spacing:normal;word-spacing:normal;text-anchor:start;fill:#000000;fill-opacity:1;fill-rule:evenodd;stroke:#000000;stroke-width:0;stroke-linecap:butt;stroke-linejoin:miter;stroke-miterlimit:10.43299961;stroke-dasharray:none;stroke-dashoffset:0;stroke-opacity:1" />
    <path
       id="path13649"
       d="m 1639.9715,2040.2539 11.6521,0 0,-2.6482 -11.6521,0 0,-13.5587 -2.5422,0 c 0,6.6099 -2.966,13.9189 -9.9572,14.1519 l 0,2.055 6.7794,0 0,19.9356 c 0,8.2835 6.1437,9.9572 10.3808,9.9572 4.8727,0 8.2624,-4.1948 8.2624,-10.0208 l 0,-4.0676 -2.5423,0 0,4.004 c 0,4.9999 -2.3304,7.7328 -5.2963,7.7328 -5.0846,0 -5.0846,-6.1862 -5.0846,-7.5421 z"
       style="font-style:normal;font-variant:normal;font-weight:normal;font-stretch:normal;letter-spacing:normal;word-spacing:normal;text-anchor:start;fill:#000000;fill-opacity:1;fill-rule:evenodd;stroke:#000000;stroke-width:0;stroke-linecap:butt;stroke-linejoin:miter;stroke-miterlimit:10.43299961;stroke-dasharray:none;stroke-dashoffset:0;stroke-opacity:1" />
    <path
       id="path13651"
       d="m 1673.8683,2023.8775 0,-0.2118 0,-0.1907 0,-0.2118 0,-0.1907 -0.2118,-0.1907 0,-0.1907 0,-0.1907 -0.2119,-0.1906 0,-0.1907 0,-0.1695 -0.2118,-0.1694 0,-0.1907 -0.2119,-0.1483 0,-0.1695 -0.2118,-0.1483 -0.2119,-0.1483 0,-0.1483 -0.2119,-0.1483 -0.2118,-0.1271 -0.2118,-0.1271 -0.2119,-0.1059 0,-0.106 -0.2119,-0.1059 -0.2118,-0.085 -0.2119,-0.085 -0.2118,-0.064 -0.2119,-0.064 -0.2118,-0.042 -0.2119,-0.042 -0.2119,-0.022 -0.2118,-0.021 -0.2119,-0.021 c -2.3304,0 -4.237,1.7584 -4.237,4.2159 0,2.6482 2.1185,4.2583 4.237,4.2583 2.3305,0 4.2371,-1.822 4.2371,-4.2583 z"
       style="font-style:normal;font-variant:normal;font-weight:normal;font-stretch:normal;letter-spacing:normal;word-spacing:normal;text-anchor:start;fill:#000000;fill-opacity:1;fill-rule:evenodd;stroke:#000000;stroke-width:0;stroke-linecap:butt;stroke-linejoin:miter;stroke-miterlimit:10.43299961;stroke-dasharray:none;stroke-dashoffset:0;stroke-opacity:1" />
    <path
       id="path13653"
       d="m 1662.64,2037.6693 0,2.6482 c 4.6608,0 5.2964,0.466 5.2964,4.0888 l 0,19.194 c 0,3.1779 -0.6356,3.1779 -5.5082,3.1779 l 0,2.6481 c 0.2118,0 5.2964,-0.2966 8.2623,-0.2966 2.5423,0 5.2964,0.064 7.8387,0.2966 l 0,-2.6481 c -4.2371,0 -5.0846,0 -5.0846,-3.1143 l 0,-26.7785 z"
       style="font-style:normal;font-variant:normal;font-weight:normal;font-stretch:normal;letter-spacing:normal;word-spacing:normal;text-anchor:start;fill:#000000;fill-opacity:1;fill-rule:evenodd;stroke:#000000;stroke-width:0;stroke-linecap:butt;stroke-linejoin:miter;stroke-miterlimit:10.43299961;stroke-dasharray:none;stroke-dashoffset:0;stroke-opacity:1" />
    <path
       id="path13655"
       d="m 1714.5445,2052.6051 0.2119,0 0.2118,0 0,0 0.2119,0 0.2118,0 0,0 0.2119,-0.022 0,0 0.2119,-0.021 0,0 0,-0.021 0.2118,-0.021 0,-0.022 0,-0.021 0.2119,-0.042 0,-0.042 0,-0.042 0.2118,-0.042 0,-0.042 0,-0.064 0,-0.064 0,-0.064 0.2119,-0.085 0,-0.042 0,-0.042 0,-0.042 0,-0.042 0,-0.042 0,-0.064 0,-0.042 0,-0.064 0,-0.042 0,-0.064 0,-0.064 0,-0.064 0,-0.064 0,-0.064 0,-0.085 0,-0.064 0,-0.064 0,-0.085 c 0,-6.4828 -3.6016,-14.4697 -14.618,-14.4697 -9.5335,0 -16.9485,7.6903 -16.9485,16.7789 0,9.3852 8.2624,16.8849 18.0078,16.8849 9.9571,0 13.5587,-7.9658 13.5587,-9.597 0,-0.2966 0,-1.017 -1.2712,-1.017 -0.8474,0 -1.0593,0.4662 -1.2711,1.1864 -2.3304,5.9532 -7.8386,7.076 -10.5928,7.076 -3.3897,0 -6.7793,-1.5466 -8.8978,-4.3642 -2.7542,-3.432 -2.9661,-7.9446 -2.9661,-10.8258 l 0.2119,-1.9279 c 0.8474,-10.4233 7.4149,-12.0969 10.1691,-12.0969 9.1097,0 9.3216,10.2538 9.5335,12.0969 l -19.7026,0 -0.2119,1.9279 z"
       style="font-style:normal;font-variant:normal;font-weight:normal;font-stretch:normal;letter-spacing:normal;word-spacing:normal;text-anchor:start;fill:#000000;fill-opacity:1;fill-rule:evenodd;stroke:#000000;stroke-width:0;stroke-linecap:butt;stroke-linejoin:miter;stroke-miterlimit:10.43299961;stroke-dasharray:none;stroke-dashoffset:0;stroke-opacity:1" />
    <path
       id="path13657"
       d="m 1734.4589,2052.6051 0,-0.5932 0,-0.5932 0,-0.5932 0.2118,-0.5932 0,-0.5932 0.2119,-0.6144 0,-0.5931 0.2119,-0.5932 0,-0.5721 0.2118,-0.5932 0.2119,-0.572 0.2118,-0.5508 0.2119,-0.5508 0.2118,-0.5297 0.4238,-0.5296 0.2118,-0.5085 0.2118,-0.4872 0.4238,-0.4661 0.4236,-0.4449 0.2119,-0.4025 0.4238,-0.4026 0.4236,-0.3813 0.4238,-0.3389 0.6355,-0.3178 0.4237,-0.2754 0.4238,-0.2542 0.6355,-0.2119 0.4237,-0.1907 0.6356,-0.1271 0.6356,-0.1059 0.6355,-0.064 0.6356,-0.021 c -0.6356,0.5297 -1.2711,1.4831 -1.2711,2.6482 0,2.4363 1.9067,3.4109 3.3896,3.4109 1.6949,0 3.3897,-1.2076 3.3897,-3.4109 0,-2.521 -2.5422,-4.7031 -5.9319,-4.7031 -3.6016,0 -7.8387,2.288 -9.9572,7.8809 l 0,0 0,-7.8809 -10.5928,0.7838 0,2.6482 c 4.8727,0 5.5083,0.5296 5.5083,4.1523 l 0,19.1306 c 0,3.1778 -0.8474,3.1778 -5.5083,3.1778 l 0,2.6482 c 0.2119,0 5.2964,-0.2966 8.4742,-0.2966 2.966,0 6.3557,0.1695 9.5335,0.2966 l 0,-2.6482 -1.483,0 c -5.5082,0 -5.5082,-0.8263 -5.5082,-3.3473 z"
       style="font-style:normal;font-variant:normal;font-weight:normal;font-stretch:normal;letter-spacing:normal;word-spacing:normal;text-anchor:start;fill:#000000;fill-opacity:1;fill-rule:evenodd;stroke:#000000;stroke-width:0;stroke-linecap:butt;stroke-linejoin:miter;stroke-miterlimit:10.43299961;stroke-dasharray:none;stroke-dashoffset:0;stroke-opacity:1" />
    <path
       id="path13659"
       d="m 1802.3535,2055.9735 -2.5422,0 c -0.2119,1.6314 -1.0593,5.9956 -1.9067,6.7371 -0.6356,0.4237 -6.3557,0.4237 -7.2032,0.4237 l -13.7705,0 c 7.8386,-6.8429 10.3809,-8.898 14.8298,-12.3724 5.5083,-4.3854 10.5928,-8.9403 10.5928,-15.9738 0,-8.9191 -7.8386,-14.385 -17.3721,-14.385 -9.1098,0 -15.2536,6.4192 -15.2536,13.1985 0,3.7711 3.1779,4.1524 3.8134,4.1524 1.9067,0 4.0253,-1.2711 4.0253,-3.9193 0,-1.3135 -0.6356,-3.8981 -4.449,-3.8981 2.3304,-5.2328 7.4149,-6.8641 10.8046,-6.8641 7.415,0 11.2283,5.7412 11.2283,11.7156 0,6.4403 -4.449,11.5249 -6.9912,14.1731 l -17.7958,17.5839 c -0.6356,0.6568 -0.6356,0.8263 -0.6356,2.8812 l 30.2953,0 z"
       style="font-style:normal;font-variant:normal;font-weight:normal;font-stretch:normal;letter-spacing:normal;word-spacing:normal;text-anchor:start;fill:#000000;fill-opacity:1;fill-rule:evenodd;stroke:#000000;stroke-width:0;stroke-linecap:butt;stroke-linejoin:miter;stroke-miterlimit:10.43299961;stroke-dasharray:none;stroke-dashoffset:0;stroke-opacity:1" />
  </g>
  <g
     transform="matrix(0.76681214,0,0,0.76681214,-2485.7691,-1320.3382)"
     id="g14009">
    <path
       id="path13661"
       d="m 3835.4991,3491.8886 1.3814,-0.3039 1.3814,-0.3315 1.3814,-0.3868 1.3814,-0.4145 1.1051,-0.442 1.3814,-0.4973 1.3814,-0.5249 1.3814,-0.5526 1.1051,-0.6078 1.3814,-0.6355 1.3814,-0.663 1.1052,-0.6907 1.3814,-0.746 1.1051,-0.7736 1.1051,-0.8012 1.1051,-0.8288 1.1052,-0.8565 1.1051,-0.8841 0.8288,-0.9394 1.1051,-0.9669 0.8289,-0.967 0.8288,-1.0223 0.5526,-1.0498 0.8288,-1.0775 0.5526,-1.1051 0.5525,-1.1328 0.5526,-1.1604 0.2763,-1.188 0.2763,-1.2156 0.2762,-1.2433 0.2763,-1.2709 0,-1.2985 c 0,-11.8248 -12.4326,-20.6381 -30.3908,-20.6381 l -39.2318,0 c -2.7628,0 -4.1442,0 -4.1442,2.7628 0,1.5195 1.3814,1.5195 3.8679,1.5195 0.2763,0 3.0391,0 5.2493,0.2487 2.4866,0.3039 3.868,0.442 3.868,2.2102 0,0.5526 -0.2763,0.9946 -0.5526,2.6247 l -18.5108,73.905 c -1.3814,5.3874 -1.6577,6.4649 -12.4326,6.4649 -2.4865,0 -3.8679,0 -3.8679,2.7628 0,1.5196 1.6577,1.5196 1.9339,1.5196 3.868,0 13.5378,-0.4421 17.4057,-0.4421 3.8679,0 13.5377,0.4421 17.4057,0.4421 1.1051,0 2.7628,0 2.7628,-2.7628 0,-1.5196 -1.1052,-1.5196 -3.868,-1.5196 -4.973,0 -8.8409,0 -8.8409,-2.4589 0,-0.8012 0.2762,-1.4919 0.2762,-2.3207 l 9.1173,-36.469 16.5768,0 -0.2763,-3.0667 -15.4717,0 9.1173,-35.9165 c 0.8288,-3.2877 1.1051,-4.6691 3.8679,-5.1112 1.1051,-0.1105 5.5256,-0.1105 8.2884,-0.1105 9.6698,0 25.1415,0 25.1415,13.6207 0,4.6691 -2.2102,14.1731 -7.7358,19.533 -3.5917,3.564 -10.775,7.9845 -23.2076,7.9845 l 0.2763,3.0667 c 12.4326,0 14.9192,7.6806 14.9192,12.5155 0,2.0721 -1.1052,6.2992 -1.934,9.504 -1.1051,3.8403 -2.2103,8.9239 -2.2103,11.6867 0,14.8362 16.5769,14.8362 18.2345,14.8362 11.8801,0 16.5769,-13.8969 16.5769,-15.8308 0,-1.6301 -1.6577,-1.6301 -1.6577,-1.6301 -1.3814,0 -1.6577,0.9946 -1.934,1.934 -3.3153,10.1947 -9.1172,12.5155 -12.4326,12.5155 -4.4205,0 -5.5256,-3.0115 -5.5256,-8.4266 0,-4.2271 0.8288,-11.2446 1.3814,-15.6651 0.2763,-1.9339 0.5526,-4.531 0.5526,-6.4649 0,-10.5816 -9.1173,-14.8639 -12.9852,-16.2453 z"
       style="font-style:normal;font-variant:normal;font-weight:normal;font-stretch:normal;letter-spacing:normal;word-spacing:normal;text-anchor:start;fill:#000000;fill-opacity:1;fill-rule:evenodd;stroke:#000000;stroke-width:0;stroke-linecap:butt;stroke-linejoin:miter;stroke-miterlimit:10.43299961;stroke-dasharray:none;stroke-dashoffset:0;stroke-opacity:1" />
    <path
       id="path13663"
       d="m 3905.9506,3520.8151 0,0.083 -0.2763,0.083 0,0.083 -0.2763,0.083 0,0.083 -0.2763,0.1105 0,0.1105 -0.2763,0.083 0,0.1105 -0.2762,0.1105 0,0.1381 -0.2763,0.1106 0,0.1105 0,0.1381 -0.2763,0.1381 0,0.1382 0,0.1105 0,0.1658 -0.2763,0.1381 0,0.1381 0,0.1382 0,0.1658 -0.2763,0.1657 0,0.1382 0,0.1657 0,0.1658 0,0.1658 0,0.1657 0,0.1658 0,0.1934 0,0.1658 0,0.1657 c 0,2.6523 1.6577,4.531 4.4205,4.531 2.4866,0 4.6968,-1.63 4.6968,-4.6967 0,-8.5924 -13.5377,-8.5924 -16.3005,-8.5924 -14.3666,0 -23.2076,11.1065 -23.2076,22.1577 0,12.1287 10.2224,21.7433 22.9313,21.7433 14.3666,0 17.6819,-11.3551 17.6819,-12.5155 0,-1.1328 -1.3814,-1.1328 -1.6577,-1.1328 -1.3814,0 -1.3814,0.2763 -1.9339,1.6577 -1.934,5.9401 -7.1833,8.9239 -12.9852,8.9239 -6.6307,0 -15.1954,-4.9178 -15.1954,-18.7595 0,-12.2392 5.8019,-18.9528 14.6428,-18.9528 1.3814,0 6.0782,0 9.3936,1.409 z"
       style="font-style:normal;font-variant:normal;font-weight:normal;font-stretch:normal;letter-spacing:normal;word-spacing:normal;text-anchor:start;fill:#000000;fill-opacity:1;fill-rule:evenodd;stroke:#000000;stroke-width:0;stroke-linecap:butt;stroke-linejoin:miter;stroke-miterlimit:10.43299961;stroke-dasharray:none;stroke-dashoffset:0;stroke-opacity:1" />
    <path
       id="path13665"
       d="m 3960.1015,3537.3091 0,0 0.2763,0 0.2763,0 0,0 0.2762,0 0,0 0.2763,-0.028 0,0 0.2763,-0.028 0,0 0.2763,-0.028 0,-0.028 0,-0.028 0.2763,-0.028 0,-0.055 0,-0.055 0.2763,-0.055 0,-0.055 0,-0.055 0,-0.083 0.2762,-0.083 0,-0.083 0,-0.055 0,-0.055 0,-0.055 0,-0.055 0,-0.055 0,-0.055 0,-0.055 0,-0.083 0,-0.055 0,-0.083 0,-0.055 0,-0.083 0,-0.083 0,-0.083 0,-0.083 0,-0.083 0,-0.1105 0,-0.083 0,-0.083 0.2763,-0.1105 c 0,-8.4542 -4.973,-18.87 -19.3396,-18.87 -12.4326,0 -22.1024,10.029 -22.1024,21.8814 0,12.2393 10.7749,22.0196 23.4838,22.0196 12.9852,0 17.9582,-10.3882 17.9582,-12.5155 0,-0.3868 -0.2763,-1.3262 -1.6577,-1.3262 -1.3814,0 -1.6577,0.6079 -1.9339,1.5472 -3.0391,7.7635 -10.2224,9.2278 -13.5378,9.2278 -4.6967,0 -9.1172,-2.0169 -11.88,-5.6914 -3.5917,-4.4757 -3.5917,-10.3605 -3.5917,-14.1179 l 0,-2.5142 c 1.1052,-13.593 9.6698,-15.7756 13.2615,-15.7756 11.88,0 12.4326,13.372 12.4326,15.7756 l -25.6941,0 0,2.5142 z"
       style="font-style:normal;font-variant:normal;font-weight:normal;font-stretch:normal;letter-spacing:normal;word-spacing:normal;text-anchor:start;fill:#000000;fill-opacity:1;fill-rule:evenodd;stroke:#000000;stroke-width:0;stroke-linecap:butt;stroke-linejoin:miter;stroke-miterlimit:10.43299961;stroke-dasharray:none;stroke-dashoffset:0;stroke-opacity:1" />
    <path
       id="path13667"
       d="m 3986.6244,3492.4135 -14.3666,1.0775 0,3.4535 c 6.3545,0 7.1833,0.6907 7.1833,5.3875 l 0,49.316 c 0,4.1442 -1.1051,4.1442 -7.1833,4.1442 l 0,3.4535 c 0,0 6.9071,-0.3868 10.775,-0.3868 3.5916,0 7.1833,0.083 10.7749,0.3868 l 0,-3.4535 c -6.3544,0 -7.1833,0 -7.1833,-4.1442 z"
       style="font-style:normal;font-variant:normal;font-weight:normal;font-stretch:normal;letter-spacing:normal;word-spacing:normal;text-anchor:start;fill:#000000;fill-opacity:1;fill-rule:evenodd;stroke:#000000;stroke-width:0;stroke-linecap:butt;stroke-linejoin:miter;stroke-miterlimit:10.43299961;stroke-dasharray:none;stroke-dashoffset:0;stroke-opacity:1" />
    <path
       id="path13669"
       d="m 4017.5678,3492.4135 -14.3666,1.0775 0,3.4535 c 6.6308,0 7.1833,0.6907 7.1833,5.3875 l 0,49.316 c 0,4.1442 -0.8288,4.1442 -7.1833,4.1442 l 0,3.4535 c 0.2763,0 6.907,-0.3868 10.775,-0.3868 3.5916,0 7.1833,0.083 11.0512,0.3868 l 0,-3.4535 c -6.3545,0 -7.4596,0 -7.4596,-4.1442 z"
       style="font-style:normal;font-variant:normal;font-weight:normal;font-stretch:normal;letter-spacing:normal;word-spacing:normal;text-anchor:start;fill:#000000;fill-opacity:1;fill-rule:evenodd;stroke:#000000;stroke-width:0;stroke-linecap:butt;stroke-linejoin:miter;stroke-miterlimit:10.43299961;stroke-dasharray:none;stroke-dashoffset:0;stroke-opacity:1" />
  </g>
  <g
     transform="translate(-781.19909,-446.09168)"
     id="g14042">
    <path
       id="path13565"
       d="m 1672.3626,1491.6926 0,-0.1907 -0.021,-0.1694 -0.021,-0.1907 -0.021,-0.1907 -0.042,-0.1694 -0.042,-0.1695 -0.064,-0.1907 -0.063,-0.1695 -0.064,-0.1483 -0.085,-0.1694 -0.085,-0.1696 -0.085,-0.1483 -0.1059,-0.1483 -0.106,-0.1482 -0.1271,-0.1483 -0.1271,-0.1271 -0.1271,-0.1272 -0.1483,-0.127 -0.1483,-0.106 -0.1483,-0.1271 -0.1695,-0.085 -0.1483,-0.1059 -0.1907,-0.085 -0.1694,-0.085 -0.1907,-0.064 -0.1907,-0.064 -0.2118,-0.064 -0.2119,-0.042 -0.2119,-0.021 -0.2118,-0.042 -0.233,0 -0.2331,-0.022 c -2.4575,0 -5.593,2.4576 -5.593,5.593 0,2.1186 1.4618,3.8134 3.8982,3.8134 2.86,0 5.6989,-2.7541 5.6989,-5.5929 z"
       style="font-style:normal;font-variant:normal;font-weight:normal;font-stretch:normal;letter-spacing:normal;word-spacing:normal;text-anchor:start;fill:#000000;fill-opacity:1;fill-rule:evenodd;stroke:#000000;stroke-width:0;stroke-linecap:butt;stroke-linejoin:miter;stroke-miterlimit:10.43299961;stroke-dasharray:none;stroke-dashoffset:0;stroke-opacity:1" />
    <path
       id="path13567"
       d="m 1651.1559,1562.9395 -0.2118,0.7415 -0.2119,0.7415 -0.233,0.7203 -0.2543,0.6991 -0.2542,0.6991 -0.2966,0.678 -0.2966,0.6567 -0.2966,0.6356 -0.3389,0.6356 -0.339,0.6144 -0.339,0.5932 -0.3813,0.5508 -0.3814,0.5508 -0.3813,0.5296 -0.4237,0.5085 -0.4025,0.4872 -0.4237,0.4662 -0.4449,0.4236 -0.4449,0.4026 -0.4661,0.4025 -0.4661,0.3389 -0.4873,0.339 -0.4872,0.2966 -0.4873,0.2754 -0.5085,0.2543 -0.5084,0.2118 -0.5296,0.1695 -0.5297,0.1695 -0.5296,0.1059 -0.5297,0.085 -0.5508,0.064 -0.5508,0.022 c -0.6356,0 -2.2245,0 -4.1312,-0.9745 3.1779,-0.7627 4.7668,-3.4745 4.7668,-5.593 0,-1.6737 -1.1652,-3.7075 -4.0041,-3.7075 -2.6482,0 -5.6989,2.2245 -5.6989,6.0379 0,4.2371 4.1947,6.5463 9.2581,6.5463 7.3937,0 17.2238,-5.593 19.872,-16.0586 l 9.7029,-38.6212 c 0.5297,-2.1185 0.5297,-3.5804 0.5297,-3.9193 0,-6.0167 -4.449,-9.6818 -9.703,-9.6818 -10.7834,0 -16.7789,15.2748 -16.7789,16.2493 0,1.0593 1.0169,1.0593 1.2499,1.0593 0.9534,0 1.0593,-0.1483 1.8856,-2.1186 2.6481,-6.4616 7.5208,-12.8808 13.3044,-12.8808 1.5042,0 3.3897,0.4237 3.3897,4.8303 0,2.4575 -0.3389,3.6016 -0.7415,5.4023 z"
       style="font-style:normal;font-variant:normal;font-weight:normal;font-stretch:normal;letter-spacing:normal;word-spacing:normal;text-anchor:start;fill:#000000;fill-opacity:1;fill-rule:evenodd;stroke:#000000;stroke-width:0;stroke-linecap:butt;stroke-linejoin:miter;stroke-miterlimit:10.43299961;stroke-dasharray:none;stroke-dashoffset:0;stroke-opacity:1" />
    <polygon
       id="polygon13569"
       points="492.67,415.51 492.67,418.4 479.46,418.4 479.46,415.51 "
       style="font-style:normal;font-variant:normal;font-weight:normal;font-stretch:normal;letter-spacing:normal;word-spacing:normal;text-anchor:start;fill:#000000;fill-opacity:1;fill-rule:evenodd;stroke:#000000;stroke-width:0;stroke-linecap:butt;stroke-linejoin:miter;stroke-miterlimit:10.43299961;stroke-dasharray:none;stroke-dashoffset:0;stroke-opacity:1"
       transform="matrix(2.118551,0,0,-2.118551,665.41534,2418.2197)" />
    <path
       id="path13571"
       d="m 1733.3769,1515.4628 15.1052,0 0,-3.2838 -15.1052,0 0,-19.4271 -2.6482,0 c -0.1059,8.6437 -3.2838,19.9568 -13.6011,20.3593 l 0,2.3516 8.9615,0 0,29.1301 c 0,12.9655 9.8089,14.2366 13.6222,14.2366 7.4785,0 10.4445,-7.4785 10.4445,-14.2366 l 0,-6.0167 -2.6482,0 0,5.7836 c 0,7.8175 -3.1778,11.8215 -7.0759,11.8215 -7.0548,0 -7.0548,-9.597 -7.0548,-11.3978 z"
       style="font-style:normal;font-variant:normal;font-weight:normal;font-stretch:normal;letter-spacing:normal;word-spacing:normal;text-anchor:start;fill:#000000;fill-opacity:1;fill-rule:evenodd;stroke:#000000;stroke-width:0;stroke-linecap:butt;stroke-linejoin:miter;stroke-miterlimit:10.43299961;stroke-dasharray:none;stroke-dashoffset:0;stroke-opacity:1" />
    <path
       id="path13573"
       d="m 1767.655,1549.6562 0,0.2119 0,0.2118 -0.021,0.4025 -0.021,0.3814 -0.021,0.3602 -0.042,0.3177 -0.063,0.3178 -0.064,0.2754 -0.064,0.2542 -0.085,0.2331 -0.1059,0.233 -0.1271,0.1907 -0.1272,0.1906 -0.1483,0.1695 -0.1906,0.1483 -0.1907,0.1271 -0.1907,0.106 -0.233,0.1059 -0.2542,0.1059 -0.2754,0.064 -0.2966,0.085 -0.339,0.042 -0.339,0.064 -0.3813,0.021 -0.1907,0.021 -0.1907,0.022 -0.2118,0.022 -0.233,0 -0.2119,0.021 -0.233,0 -0.2543,0 -0.233,0.021 -0.2542,0 -0.2755,0 -0.2542,0 -0.2754,0 -0.2966,0 -0.2966,0 -0.2966,0 -0.3178,0 -0.3177,0 -0.3178,0 0,3.2838 c 3.7074,-0.106 9.0674,-0.339 11.9062,-0.339 2.7541,0 8.2412,0.233 11.8215,0.339 l 0,-3.2838 c -7.0547,0 -8.1988,0 -8.1988,-4.7243 l 0,-19.4271 c 0,-10.9953 7.4785,-16.8849 14.2155,-16.8849 6.6523,0 7.8175,5.6989 7.8175,11.7156 l 0,24.5964 c 0,4.7243 -1.1652,4.7243 -8.2412,4.7243 l 0,3.2838 c 3.7075,-0.106 9.1098,-0.339 11.9486,-0.339 2.7542,0 8.22,0.233 11.8216,0.339 l 0,-3.2838 c -5.5083,0 -8.1565,0 -8.2412,-3.1778 l 0,-20.1474 c 0,-9.0674 0,-12.3512 -3.2838,-16.1222 -1.4618,-1.8219 -4.9574,-3.8981 -11.0588,-3.8981 -8.8767,0 -13.5375,6.3133 -15.3171,10.3173 l 0,-36.9475 -15.19,1.1652 0,3.2837 c 7.3725,0 8.2411,0.7204 8.2411,5.9109 z"
       style="font-style:normal;font-variant:normal;font-weight:normal;font-stretch:normal;letter-spacing:normal;word-spacing:normal;text-anchor:start;fill:#000000;fill-opacity:1;fill-rule:evenodd;stroke:#000000;stroke-width:0;stroke-linecap:butt;stroke-linejoin:miter;stroke-miterlimit:10.43299961;stroke-dasharray:none;stroke-dashoffset:0;stroke-opacity:1" />
    <path
       style="font-style:normal;font-variant:normal;font-weight:normal;font-stretch:normal;letter-spacing:normal;word-spacing:normal;text-anchor:start;fill:#000000;fill-opacity:1;fill-rule:evenodd;stroke:#000000;stroke-width:0;stroke-linecap:butt;stroke-linejoin:miter;stroke-miterlimit:10.43299961;stroke-dasharray:none;stroke-dashoffset:0;stroke-opacity:1"
       d="m 1876.5743,1519.9965 0.9534,-0.2118 0.9321,-0.2119 0.9322,-0.2755 0.8898,-0.2753 0.8686,-0.2966 0.8474,-0.339 0.8474,-0.3602 0.8051,-0.3813 0.7838,-0.4025 0.7627,-0.4238 0.7415,-0.4449 0.6991,-0.4448 0.678,-0.4873 0.6567,-0.5085 0.6356,-0.5296 0.5932,-0.5297 0.572,-0.5508 0.5297,-0.5719 0.5084,-0.5932 0.4661,-0.5932 0.4449,-0.6144 0.4025,-0.6356 0.3602,-0.6356 0.3389,-0.6567 0.2966,-0.678 0.2542,-0.6779 0.2331,-0.6779 0.1906,-0.6991 0.1272,-0.7203 0.1059,-0.6992 0.064,-0.7203 0.021,-0.7415 c 0,-9.1733 -9.7241,-17.8382 -23.4312,-17.8382 l -0.7626,3.2838 c 10.2749,0 13.9401,8.9615 13.9401,14.5544 0,6.7582 -5.1693,15.635 -16.8849,15.635 l -15.2959,0 0,2.3091 19.8296,0 c 10.4657,0 14.8934,9.8301 14.8934,16.8849 0,7.5208 -5.487,16.1433 -16.3552,16.1433 l 0,0 -13.1986,0 c -4.9574,0 -5.1692,-0.7202 -5.1692,-4.1947 l 0,-28.8335 0,-2.3091 0,-25.9523 c 0,-3.5168 0.2118,-4.2371 5.1692,-4.2371 l 13.0715,0 0.7626,-3.2838 -38.6212,0 0,3.2838 2.4999,0 c 8.1565,0 8.3472,1.144 8.3472,4.9574 l 0,55.612 c 0,3.8133 -0.1907,4.9573 -8.3472,4.9573 l -2.4999,0 0,3.2838 41.3754,0 c 14.0248,0 23.5371,-9.4064 23.5371,-19.3212 0,-9.1733 -8.6861,-17.0967 -20.4017,-18.3466 z"
       id="path14029" />
    <path
       style="font-style:normal;font-variant:normal;font-weight:normal;font-stretch:normal;letter-spacing:normal;word-spacing:normal;text-anchor:start;fill:#000000;fill-opacity:1;fill-rule:evenodd;stroke:#000000;stroke-width:0;stroke-linecap:butt;stroke-linejoin:miter;stroke-miterlimit:10.43299961;stroke-dasharray:none;stroke-dashoffset:0;stroke-opacity:1"
       d="m 1939.8343,1516.7127 -13.5164,-3.2625 c -6.5463,-1.5889 -10.6563,-7.2879 -10.6563,-13.4105 0,-7.3937 5.6989,-13.8341 13.9401,-13.8341 17.6051,0 19.9356,17.3085 20.5499,22.0753 0.1059,0.6356 0.1059,1.2499 1.2923,1.2499 1.3559,0 1.3559,-0.5296 1.3559,-2.5422 l 0,-21.1855 c 0,-1.822 0,-2.5423 -1.144,-2.5423 -0.7415,0 -0.8686,0.085 -1.5889,1.3771 l -3.6863,5.9955 c -3.1778,-3.0507 -7.4996,-7.3726 -16.9061,-7.3726 -11.7155,0 -20.5711,9.3004 -20.5711,20.4864 0,8.7284 5.6142,16.44 13.813,19.3 1.1652,0.4237 6.5463,1.6737 13.94,3.4744 2.8389,0.7627 6.0167,1.483 8.9615,5.3811 2.2245,2.7541 3.2838,6.2286 3.2838,9.703 0,7.5209 -5.254,15.1053 -14.1308,15.1053 -3.0931,0 -11.1012,-0.5297 -16.6942,-5.6989 -6.1226,-5.699 -6.4615,-12.4359 -6.5462,-16.2493 -0.106,-1.0593 -0.9323,-1.0593 -1.25,-1.0593 -1.3771,0 -1.3771,0.7627 -1.3771,2.6482 l 0,21.1219 c 0,1.7796 0,2.4999 1.1652,2.4999 0.7415,0 0.8262,-0.1906 1.5466,-1.3559 0,-0.085 0.3389,-0.4236 3.8133,-6.0166 3.2838,3.5803 10.042,7.3725 19.4271,7.3725 12.3512,0 20.8043,-10.3173 20.8043,-21.927 0,-10.5716 -6.9701,-19.2152 -15.8256,-21.3338 z"
       id="path14031" />
  </g>
</svg>
