<?xml version="1.0" encoding="UTF-8" standalone="no"?>
<svg
   xmlns:dc="http://purl.org/dc/elements/1.1/"
   xmlns:cc="http://creativecommons.org/ns#"
   xmlns:rdf="http://www.w3.org/1999/02/22-rdf-syntax-ns#"
   xmlns:svg="http://www.w3.org/2000/svg"
   xmlns="http://www.w3.org/2000/svg"
   id="svg4155"
   version="1.1"
   viewBox="0 0 2919.8064 2912.0618"
   height="2912.0618pt"
   width="2919.8064pt">
  <defs
     id="defs4222" />
  <path
     id="path4158"
     d="m 799.90693,617.72262 0,304.8242 -263.98439,152.41018 -263.98437,-152.41018 0,-304.8242 263.98437,-152.41408 z m 0,0"
     style="fill:none;stroke:#000000;stroke-width:1.60000002;stroke-linecap:round;stroke-linejoin:round;stroke-miterlimit:4;stroke-dasharray:none;stroke-opacity:1" />
  <path
     id="path4160"
     d="m 1327.8795,617.72262 0,304.8242 -263.9843,152.41018 -263.98828,-152.41018 0,-304.8242 263.98828,-152.41408 z m 0,0"
     style="fill:none;stroke:#000000;stroke-width:1.60000002;stroke-linecap:round;stroke-linejoin:round;stroke-miterlimit:4;stroke-dasharray:none;stroke-opacity:1" />
  <path
     id="path4162"
     d="m 1855.8405,617.72262 0,304.8242 -263.9649,152.41018 -263.9961,-152.41018 0,-304.8242 263.9961,-152.41408 z m 0,0"
     style="fill:none;stroke:#000000;stroke-width:1.60000002;stroke-linecap:round;stroke-linejoin:round;stroke-miterlimit:4;stroke-dasharray:none;stroke-opacity:1" />
  <path
     id="path4164"
     d="m 1063.8952,160.40231 0,304.83201 -263.98828,152.4102 -263.98439,-152.4102 0,-304.83201 263.9844,-152.4023728 z m 0,0"
     style="fill:none;stroke:#000000;stroke-width:1.60000002;stroke-linecap:round;stroke-linejoin:round;stroke-miterlimit:4;stroke-dasharray:none;stroke-opacity:1" />
  <path
     id="path4166"
     d="m 1591.8756,160.40231 0,304.83201 -263.9961,152.4102 -263.9843,-152.4102 0,-304.83201 263.9843,-152.4023728 z m 0,0"
     style="fill:none;stroke:#000000;stroke-width:1.60000002;stroke-linecap:round;stroke-linejoin:round;stroke-miterlimit:4;stroke-dasharray:none;stroke-opacity:1" />
  <path
     id="path4168"
     d="m 1063.8952,1074.9492 0,304.8242 -263.98828,152.4101 -263.98439,-152.4101 0,-304.8242 263.98439,-152.41408 z m 0,0"
     style="fill:none;stroke:#000000;stroke-width:1.60000002;stroke-linecap:round;stroke-linejoin:round;stroke-miterlimit:4;stroke-dasharray:none;stroke-opacity:1" />
  <path
     id="path4170"
     d="m 1591.8756,1074.9492 0,304.8242 -263.9961,152.4101 -263.9843,-152.4101 0,-304.8242 263.9843,-152.41408 z m 0,0"
     style="fill:none;stroke:#000000;stroke-width:1.60000002;stroke-linecap:round;stroke-linejoin:round;stroke-miterlimit:4;stroke-dasharray:none;stroke-opacity:1" />
  <g
     transform="translate(5.999995,5.9999772)"
     id="g4750"
     style="stroke-width:1.60000002;stroke-miterlimit:4;stroke-dasharray:none">
    <path
       id="path4386"
       d="m 1849.8727,1526.2928 0,304.8242 -263.9844,152.4102 -263.9844,-152.4102 0,-304.8242 263.9844,-152.4141 z m 0,0"
       style="fill:none;stroke:#000000;stroke-width:1.60000002;stroke-linecap:round;stroke-linejoin:round;stroke-miterlimit:4;stroke-dasharray:none;stroke-opacity:1" />
    <path
       id="path4388"
       d="m 2377.8453,1526.2928 0,304.8242 -263.9843,152.4102 -263.9883,-152.4102 0,-304.8242 263.9883,-152.4141 z m 0,0"
       style="fill:none;stroke:#000000;stroke-width:1.60000002;stroke-linecap:round;stroke-linejoin:round;stroke-miterlimit:4;stroke-dasharray:none;stroke-opacity:1" />
    <path
       id="path4390"
       d="m 2905.8063,1526.2928 0,304.8242 -263.9649,152.4102 -263.9961,-152.4102 0,-304.8242 263.9961,-152.4141 z m 0,0"
       style="fill:none;stroke:#000000;stroke-width:1.60000002;stroke-linecap:round;stroke-linejoin:round;stroke-miterlimit:4;stroke-dasharray:none;stroke-opacity:1" />
    <path
       id="path4392"
       d="m 2113.861,1068.9725 0,304.832 -263.9883,152.4102 -263.9844,-152.4102 0,-304.832 263.9844,-152.40236 z m 0,0"
       style="fill:none;stroke:#000000;stroke-width:1.60000002;stroke-linecap:round;stroke-linejoin:round;stroke-miterlimit:4;stroke-dasharray:none;stroke-opacity:1" />
    <path
       id="path4394"
       d="m 2641.8414,1068.9725 0,304.832 -263.9961,152.4102 -263.9843,-152.4102 0,-304.832 263.9843,-152.40236 z m 0,0"
       style="fill:none;stroke:#000000;stroke-width:1.60000002;stroke-linecap:round;stroke-linejoin:round;stroke-miterlimit:4;stroke-dasharray:none;stroke-opacity:1" />
    <path
       id="path4396"
       d="m 2113.861,1983.5194 0,304.8242 -263.9883,152.4101 -263.9844,-152.4101 0,-304.8242 263.9844,-152.4141 z m 0,0"
       style="fill:none;stroke:#000000;stroke-width:1.60000002;stroke-linecap:round;stroke-linejoin:round;stroke-miterlimit:4;stroke-dasharray:none;stroke-opacity:1" />
    <path
       id="path4398"
       d="m 2641.8414,1983.5194 0,304.8242 -263.9961,152.4101 -263.9843,-152.4101 0,-304.8242 263.9843,-152.4141 z m 0,0"
       style="fill:none;stroke:#000000;stroke-width:1.60000002;stroke-linecap:round;stroke-linejoin:round;stroke-miterlimit:4;stroke-dasharray:none;stroke-opacity:1" />
  </g>
  <g
     transform="translate(5.999995,5.9999772)"
     id="g4777"
     style="stroke-width:1.60000002;stroke-miterlimit:4;stroke-dasharray:none">
    <path
       style="fill:none;stroke:#000000;stroke-width:1.60000002;stroke-linecap:round;stroke-linejoin:round;stroke-miterlimit:4;stroke-dasharray:none;stroke-opacity:1"
       d="m 529.96876,1983.6009 0,304.8242 L 265.98437,2440.8353 2,2288.4251 2,1983.6009 265.98437,1831.1868 Z m 0,0"
       id="path4402" />
    <path
       style="fill:none;stroke:#000000;stroke-width:1.60000002;stroke-linecap:round;stroke-linejoin:round;stroke-miterlimit:4;stroke-dasharray:none;stroke-opacity:1"
       d="m 1057.9414,1983.6009 0,304.8242 -263.98437,152.4102 -263.98827,-152.4102 0,-304.8242 263.98827,-152.4141 z m 0,0"
       id="path4404" />
    <path
       style="fill:none;stroke:#000000;stroke-width:1.60000002;stroke-linecap:round;stroke-linejoin:round;stroke-miterlimit:4;stroke-dasharray:none;stroke-opacity:1"
       d="m 1585.9024,1983.6009 0,304.8242 -263.9649,152.4102 -263.9961,-152.4102 0,-304.8242 263.9961,-152.4141 z m 0,0"
       id="path4406" />
    <path
       style="fill:none;stroke:#000000;stroke-width:1.60000002;stroke-linecap:round;stroke-linejoin:round;stroke-miterlimit:4;stroke-dasharray:none;stroke-opacity:1"
       d="m 793.95703,1526.2806 0,304.832 -263.98827,152.4102 -263.98439,-152.4102 0,-304.832 263.98439,-152.4024 z m 0,0"
       id="path4408" />
    <path
       style="fill:none;stroke:#000000;stroke-width:1.60000002;stroke-linecap:round;stroke-linejoin:round;stroke-miterlimit:4;stroke-dasharray:none;stroke-opacity:1"
       d="m 1321.9375,1526.2806 0,304.832 -263.9961,152.4102 -263.98437,-152.4102 0,-304.832 263.98437,-152.4024 z"
       id="path4860" />
    <path
       style="fill:none;stroke:#000000;stroke-width:1.60000002;stroke-linecap:round;stroke-linejoin:round;stroke-miterlimit:4;stroke-dasharray:none;stroke-opacity:1"
       d="M 1321.9375,1526.2806"
       id="path4410" />
    <path
       style="fill:none;stroke:#000000;stroke-width:1.60000002;stroke-linecap:round;stroke-linejoin:round;stroke-miterlimit:4;stroke-dasharray:none;stroke-opacity:1"
       d="m 793.95703,2440.8275 0,304.8242 -263.98827,152.4101 -263.98439,-152.4101 0,-304.8242 263.98439,-152.4141 z m 0,0"
       id="path4412" />
    <path
       style="fill:none;stroke:#000000;stroke-width:1.60000002;stroke-linecap:round;stroke-linejoin:round;stroke-miterlimit:4;stroke-dasharray:none;stroke-opacity:1"
       d="m 1321.9375,2440.8275 0,304.8242 -263.9961,152.4101 -263.98437,-152.4101 0,-304.8242 263.98437,-152.4141 z m 0,0"
       id="path4414" />
  </g>
  <text
     xml:space="preserve"
     style="font-style:normal;font-weight:normal;font-size:32px;line-height:125%;font-family:Sans;letter-spacing:0px;word-spacing:0px;fill:#000000;fill-opacity:1;stroke:none;stroke-width:1px;stroke-linecap:butt;stroke-linejoin:miter;stroke-opacity:1"
     x="741.72888"
     y="386.58713"
     id="text4495"><tspan
       id="tspan4497"
       x="741.72888"
       y="386.58713" /></text>
  <metadata
     id="metadata4499">
    <rdf:RDF>
      <cc:Work
         rdf:about="">
        <dc:title></dc:title>
        <dc:format>image/svg+xml</dc:format>
        <dc:type
           rdf:resource="http://purl.org/dc/dcmitype/StillImage" />
      </cc:Work>
    </rdf:RDF>
  </metadata>
  <path
     id="path4938"
     style="fill:none;stroke:#000000;stroke-width:12;stroke-linecap:round;stroke-linejoin:round;stroke-miterlimit:4;stroke-dasharray:none;stroke-opacity:1"
     d="m 1591.9024,1989.6008 0,304.8242 -263.9649,152.4063 0,304.8203 -263.9961,152.4102 -263.98438,-152.4102 -263.98823,152.4102 -263.9844,-152.4102 0,-304.8202 L 8,2294.425 l 0,-304.8242 263.98439,-152.4511 0,-304.8691 263.9844,-152.4024 263.98822,152.4024 263.98439,-152.4024 263.9961,152.4024 0,304.8691 z" />
  <path
     d="m 1855.8405,617.72251 0,304.8242 -263.9649,152.40629 0,304.8203 -263.9961,152.4102 -263.9843,-152.4102 -263.98828,152.4102 -263.9844,-152.4102 0,-304.8202 -263.98439,-152.40639 0,-304.8242 263.98439,-152.4511 0,-304.8691 L 799.90692,7.9999072 1063.8952,160.40231 1327.8795,7.9999072 1591.8756,160.40231 l 0,304.8691 z"
     style="fill:none;stroke:#000000;stroke-width:12;stroke-linecap:round;stroke-linejoin:round;stroke-miterlimit:4;stroke-dasharray:none;stroke-opacity:1"
     id="path4945" />
  <path
     id="path4972"
     style="fill:none;stroke:#000000;stroke-width:12;stroke-linecap:round;stroke-linejoin:round;stroke-miterlimit:4;stroke-dasharray:none;stroke-opacity:1"
     d="m 2911.8063,1532.2927 0,304.8242 -263.9649,152.4063 0,304.8203 -263.9961,152.4102 -263.9843,-152.4102 -263.9883,152.4102 -263.9844,-152.4102 0,-304.8202 -263.9844,-152.4064 0,-304.8242 263.9844,-152.4511 0,-304.8691 263.9844,-152.40238 263.9883,152.40238 263.9843,-152.40238 263.9961,152.40238 0,304.8691 z" />
  <g
     id="g5775"
     transform="translate(-509.47705,342.59353)">
    <g
       word-spacing="normal"
       letter-spacing="normal"
       font-size-adjust="none"
       font-stretch="normal"
       font-weight="normal"
       font-variant="normal"
       font-style="normal"
       stroke-miterlimit="10.433"
       xml:space="preserve"
       transform="matrix(4.1429454,0,0,-4.1429454,-725.01545,2180.8548)"
       id="content"
       style="font-style:normal;font-variant:normal;font-weight:normal;font-stretch:normal;letter-spacing:normal;word-spacing:normal;text-anchor:start;fill:none;fill-opacity:1;fill-rule:evenodd;stroke:#000000;stroke-linecap:butt;stroke-linejoin:miter;stroke-miterlimit:10.43299961;stroke-dasharray:none;stroke-dashoffset:0;stroke-opacity:1"><path
         id="path5778"
         d="m 458.32,423.23 0.02,-0.96 0.07,-0.94 0.11,-0.93 0.16,-0.91 0.2,-0.89 0.24,-0.87 0.28,-0.85 0.32,-0.83 0.36,-0.81 0.39,-0.78 0.43,-0.76 0.46,-0.74 0.49,-0.7 0.52,-0.68 0.55,-0.66 0.59,-0.62 0.6,-0.59 0.64,-0.56 0.66,-0.53 0.68,-0.5 0.7,-0.46 0.73,-0.43 0.74,-0.39 0.77,-0.35 0.78,-0.32 0.79,-0.28 0.82,-0.23 0.82,-0.2 0.84,-0.15 0.84,-0.11 0.86,-0.07 0.86,-0.02 c 8.13,0 13,6.92 13,12.7 0,0.5 0,0.84 -0.64,0.84 -0.54,0 -0.54,-0.29 -0.59,-0.79 -0.41,-7.13 -5.73,-11.21 -11.17,-11.21 -3.03,0 -12.8,1.69 -12.8,16.53 0,14.91 9.72,16.6 12.75,16.6 5.44,0 9.88,-4.53 10.86,-11.82 0.11,-0.68 0.11,-0.84 0.8,-0.84 0.79,0 0.79,0.16 0.79,1.2 l 0,11.8 c 0,0.86 0,1.2 -0.54,1.2 -0.19,0 -0.39,0 -0.8,-0.59 l -2.48,-3.69 c -1.85,1.8 -4.39,4.28 -9.18,4.28 -9.31,0 -17.32,-7.92 -17.32,-18.09 z"
         style="fill:#000000;stroke-width:0" /><path
         id="path5780"
         d="m 500.33,440.78 -7.17,-0.55 0,-1.55 c 3.48,0 3.89,-0.34 3.89,-2.79 l 0,-25.91 c 0,-2.23 -0.55,-2.23 -3.89,-2.23 l 0,-1.55 c 1.64,0.05 4.28,0.16 5.53,0.16 1.25,0 3.69,-0.11 5.53,-0.16 l 0,1.55 c -3.34,0 -3.89,0 -3.89,2.23 z"
         style="fill:#000000;stroke-width:0" /><path
         id="path5782"
         d="m 524.8,410.14 0,-4.49 7.17,0.55 0,1.55 c -3.48,0 -3.89,0.34 -3.89,2.78 l 0,17.68 -7.33,-0.54 0,-1.55 c 3.5,0 3.9,-0.34 3.9,-2.78 l 0,-8.88 c 0,-4.32 -2.4,-7.71 -6.04,-7.71 -4.17,0 -4.37,2.34 -4.37,4.93 l 0,16.53 -7.33,-0.54 0,-1.55 c 3.89,0 3.89,-0.14 3.89,-4.58 l 0,-7.47 c 0,-3.89 0,-8.42 7.56,-8.42 2.8,0 4.99,1.39 6.44,4.49 z"
         style="fill:#000000;stroke-width:0" /><path
         id="path5784"
         d="m 543.4,415.87 0.11,-0.02 0.12,-0.02 0.15,-0.03 0.15,-0.04 0.17,-0.04 0.18,-0.04 0.19,-0.05 0.2,-0.06 0.2,-0.06 0.21,-0.07 0.22,-0.08 0.22,-0.08 0.22,-0.1 0.22,-0.1 0.22,-0.11 0.22,-0.12 0.21,-0.14 0.22,-0.14 0.2,-0.15 0.2,-0.16 0.19,-0.18 0.18,-0.19 0.17,-0.2 0.16,-0.21 0.14,-0.22 0.06,-0.12 0.07,-0.12 0.06,-0.13 0.05,-0.12 0.05,-0.14 0.04,-0.13 0.04,-0.14 0.04,-0.14 0.03,-0.15 0.03,-0.15 0.02,-0.16 0.01,-0.15 0.01,-0.17 0,-0.16 c 0,-2.53 -1.75,-4.53 -5.62,-4.53 -4.19,0 -5.99,2.84 -6.94,7.07 -0.14,0.64 -0.19,0.85 -0.69,0.85 -0.65,0 -0.65,-0.35 -0.65,-1.25 l 0,-6.58 c 0,-0.84 0,-1.19 0.54,-1.19 0.25,0 0.3,0.05 1.25,1 0.1,0.1 0.1,0.19 1,1.14 2.19,-2.09 4.44,-2.14 5.49,-2.14 5.72,0 8.01,3.35 8.01,6.92 0,2.64 -1.5,4.14 -2.09,4.74 -1.64,1.59 -3.6,2 -5.69,2.39 -2.78,0.55 -6.12,1.2 -6.12,4.09 0,1.74 1.29,3.78 5.58,3.78 5.48,0 5.73,-4.48 5.82,-6.03 0.06,-0.45 0.5,-0.45 0.61,-0.45 0.64,0 0.64,0.25 0.64,1.2 l 0,5.03 c 0,0.85 0,1.19 -0.54,1.19 -0.25,0 -0.35,0 -1,-0.59 -0.15,-0.21 -0.65,-0.64 -0.85,-0.8 -1.89,1.39 -3.93,1.39 -4.68,1.39 -6.08,0 -7.97,-3.33 -7.97,-6.12 0,-1.74 0.79,-3.14 2.14,-4.24 1.59,-1.29 3,-1.59 6.58,-2.28 z"
         style="fill:#000000;stroke-width:0" /><path
         id="path5786"
         d="m 561.34,426.12 7.13,0 0,1.55 -7.13,0 0,9.17 -1.25,0 c -0.05,-4.08 -1.55,-9.42 -6.42,-9.61 l 0,-1.11 4.23,0 0,-13.75 c 0,-6.12 4.63,-6.72 6.42,-6.72 3.53,0 4.94,3.53 4.94,6.72 l 0,2.84 -1.25,0 0,-2.73 c 0,-3.69 -1.5,-5.58 -3.34,-5.58 -3.33,0 -3.33,4.53 -3.33,5.38 z"
         style="fill:#000000;stroke-width:0" /><path
         id="path5788"
         d="m 577.56,417.71 0.05,1.05 c 0.3,7.42 4.48,8.66 6.19,8.66 5.12,0 5.62,-6.72 5.62,-8.66 l -11.81,0 -0.05,-1.05 13.91,0 c 1.09,0 1.23,0 1.23,1.05 0,4.92 -2.68,9.75 -8.9,9.75 -5.78,0 -10.38,-5.12 -10.38,-11.36 0,-6.67 5.24,-11.5 10.97,-11.5 6.08,0 8.31,5.53 8.31,6.47 0,0.5 -0.39,0.61 -0.64,0.61 -0.45,0 -0.54,-0.3 -0.65,-0.7 -1.74,-5.13 -6.22,-5.13 -6.72,-5.13 -2.5,0 -4.49,1.49 -5.63,3.33 -1.5,2.39 -1.5,5.69 -1.5,7.48 z"
         style="fill:#000000;stroke-width:0" /><path
         id="path5790"
         d="m 602.42,422.75 0,5.46 -6.92,-0.54 0,-1.55 c 3.48,0 3.89,-0.34 3.89,-2.78 l 0,-13.36 c 0,-2.23 -0.55,-2.23 -3.89,-2.23 l 0,-1.55 c 1.95,0.05 4.28,0.16 5.69,0.16 1.98,0 4.33,0 6.33,-0.16 l 0,1.55 -1.05,0 c -3.69,0 -3.8,0.54 -3.8,2.34 l 0,7.67 c 0,4.92 2.1,9.36 5.89,9.36 0.35,0 0.44,0 0.55,-0.05 -0.16,-0.04 -1.16,-0.64 -1.16,-1.93 0,-1.41 1.05,-2.14 2.16,-2.14 0.89,0 2.14,0.59 2.14,2.18 0,1.6 -1.55,3.03 -3.69,3.03 -3.64,0 -5.44,-3.32 -6.14,-5.46 z"
         style="fill:#000000;stroke-width:0" /><path
         id="path5792"
         d="m 644.99,438.09 0,0.05 0,0.06 0,0.05 0,0.05 0,0.05 0,0.05 0,0.04 0,0.05 -0.01,0.04 0,0.04 0,0.04 0,0.04 0,0.04 0,0.03 -0.01,0.04 0,0.03 -0.01,0.07 -0.01,0.06 -0.01,0.05 -0.01,0.05 -0.02,0.05 -0.02,0.04 -0.02,0.04 -0.02,0.03 -0.03,0.03 -0.03,0.03 -0.04,0.03 -0.04,0.02 -0.04,0.02 -0.03,0.01 -0.02,0.01 -0.03,0 -0.03,0.01 -0.02,0.01 -0.03,0 -0.03,0.01 -0.04,0 -0.03,0.01 -0.03,0 -0.04,0 -0.04,0.01 -0.04,0 -0.04,0 -0.04,0 -0.04,0 -0.05,0 -0.04,0.01 -0.05,0 -0.05,0 -0.05,0 -0.05,0 c -3.1,-3.19 -7.47,-3.19 -9.07,-3.19 l 0,-1.55 c 1,0 3.94,0 6.52,1.3 l 0,-25.81 c 0,-1.8 -0.14,-2.39 -4.62,-2.39 l -1.6,0 0,-1.55 c 1.75,0.16 6.08,0.16 8.07,0.16 2,0 6.32,0 8.07,-0.16 l 0,1.55 -1.59,0 c -4.48,0 -4.64,0.54 -4.64,2.39 z"
         style="fill:#000000;stroke-width:0" /></g>  </g>
  <g
     id="g5880"
     transform="translate(-776.52239,1714.4718)">
    <g
       id="g5882"
       transform="matrix(4.1429454,0,0,-4.1429454,-725.01545,2180.8548)"
       xml:space="preserve"
       stroke-miterlimit="10.433"
       font-style="normal"
       font-variant="normal"
       font-weight="normal"
       font-stretch="normal"
       font-size-adjust="none"
       letter-spacing="normal"
       word-spacing="normal"
       style="font-style:normal;font-variant:normal;font-weight:normal;font-stretch:normal;letter-spacing:normal;word-spacing:normal;text-anchor:start;fill:none;fill-opacity:1;fill-rule:evenodd;stroke:#000000;stroke-linecap:butt;stroke-linejoin:miter;stroke-miterlimit:10.43299961;stroke-dasharray:none;stroke-dashoffset:0;stroke-opacity:1"><path
         d="m 458.32,423.23 0.02,-0.96 0.07,-0.94 0.11,-0.93 0.16,-0.91 0.2,-0.89 0.24,-0.87 0.28,-0.85 0.32,-0.83 0.36,-0.81 0.39,-0.78 0.43,-0.76 0.46,-0.74 0.49,-0.7 0.52,-0.68 0.55,-0.66 0.59,-0.62 0.6,-0.59 0.64,-0.56 0.66,-0.53 0.68,-0.5 0.7,-0.46 0.73,-0.43 0.74,-0.39 0.77,-0.35 0.78,-0.32 0.79,-0.28 0.82,-0.23 0.82,-0.2 0.84,-0.15 0.84,-0.11 0.86,-0.07 0.86,-0.02 c 8.13,0 13,6.92 13,12.7 0,0.5 0,0.84 -0.64,0.84 -0.54,0 -0.54,-0.29 -0.59,-0.79 -0.41,-7.13 -5.73,-11.21 -11.17,-11.21 -3.03,0 -12.8,1.69 -12.8,16.53 0,14.91 9.72,16.6 12.75,16.6 5.44,0 9.88,-4.53 10.86,-11.82 0.11,-0.68 0.11,-0.84 0.8,-0.84 0.79,0 0.79,0.16 0.79,1.2 l 0,11.8 c 0,0.86 0,1.2 -0.54,1.2 -0.19,0 -0.39,0 -0.8,-0.59 l -2.48,-3.69 c -1.85,1.8 -4.39,4.28 -9.18,4.28 -9.31,0 -17.32,-7.92 -17.32,-18.09 z"
         id="path5884"
         style="fill:#000000;stroke-width:0" /><path
         d="m 500.33,440.78 -7.17,-0.55 0,-1.55 c 3.48,0 3.89,-0.34 3.89,-2.79 l 0,-25.91 c 0,-2.23 -0.55,-2.23 -3.89,-2.23 l 0,-1.55 c 1.64,0.05 4.28,0.16 5.53,0.16 1.25,0 3.69,-0.11 5.53,-0.16 l 0,1.55 c -3.34,0 -3.89,0 -3.89,2.23 z"
         id="path5886"
         style="fill:#000000;stroke-width:0" /><path
         d="m 524.8,410.14 0,-4.49 7.17,0.55 0,1.55 c -3.48,0 -3.89,0.34 -3.89,2.78 l 0,17.68 -7.33,-0.54 0,-1.55 c 3.5,0 3.9,-0.34 3.9,-2.78 l 0,-8.88 c 0,-4.32 -2.4,-7.71 -6.04,-7.71 -4.17,0 -4.37,2.34 -4.37,4.93 l 0,16.53 -7.33,-0.54 0,-1.55 c 3.89,0 3.89,-0.14 3.89,-4.58 l 0,-7.47 c 0,-3.89 0,-8.42 7.56,-8.42 2.8,0 4.99,1.39 6.44,4.49 z"
         id="path5888"
         style="fill:#000000;stroke-width:0" /><path
         d="m 543.4,415.87 0.11,-0.02 0.12,-0.02 0.15,-0.03 0.15,-0.04 0.17,-0.04 0.18,-0.04 0.19,-0.05 0.2,-0.06 0.2,-0.06 0.21,-0.07 0.22,-0.08 0.22,-0.08 0.22,-0.1 0.22,-0.1 0.22,-0.11 0.22,-0.12 0.21,-0.14 0.22,-0.14 0.2,-0.15 0.2,-0.16 0.19,-0.18 0.18,-0.19 0.17,-0.2 0.16,-0.21 0.14,-0.22 0.06,-0.12 0.07,-0.12 0.06,-0.13 0.05,-0.12 0.05,-0.14 0.04,-0.13 0.04,-0.14 0.04,-0.14 0.03,-0.15 0.03,-0.15 0.02,-0.16 0.01,-0.15 0.01,-0.17 0,-0.16 c 0,-2.53 -1.75,-4.53 -5.62,-4.53 -4.19,0 -5.99,2.84 -6.94,7.07 -0.14,0.64 -0.19,0.85 -0.69,0.85 -0.65,0 -0.65,-0.35 -0.65,-1.25 l 0,-6.58 c 0,-0.84 0,-1.19 0.54,-1.19 0.25,0 0.3,0.05 1.25,1 0.1,0.1 0.1,0.19 1,1.14 2.19,-2.09 4.44,-2.14 5.49,-2.14 5.72,0 8.01,3.35 8.01,6.92 0,2.64 -1.5,4.14 -2.09,4.74 -1.64,1.59 -3.6,2 -5.69,2.39 -2.78,0.55 -6.12,1.2 -6.12,4.09 0,1.74 1.29,3.78 5.58,3.78 5.48,0 5.73,-4.48 5.82,-6.03 0.06,-0.45 0.5,-0.45 0.61,-0.45 0.64,0 0.64,0.25 0.64,1.2 l 0,5.03 c 0,0.85 0,1.19 -0.54,1.19 -0.25,0 -0.35,0 -1,-0.59 -0.15,-0.21 -0.65,-0.64 -0.85,-0.8 -1.89,1.39 -3.93,1.39 -4.68,1.39 -6.08,0 -7.97,-3.33 -7.97,-6.12 0,-1.74 0.79,-3.14 2.14,-4.24 1.59,-1.29 3,-1.59 6.58,-2.28 z"
         id="path5890"
         style="fill:#000000;stroke-width:0" /><path
         d="m 561.34,426.12 7.13,0 0,1.55 -7.13,0 0,9.17 -1.25,0 c -0.05,-4.08 -1.55,-9.42 -6.42,-9.61 l 0,-1.11 4.23,0 0,-13.75 c 0,-6.12 4.63,-6.72 6.42,-6.72 3.53,0 4.94,3.53 4.94,6.72 l 0,2.84 -1.25,0 0,-2.73 c 0,-3.69 -1.5,-5.58 -3.34,-5.58 -3.33,0 -3.33,4.53 -3.33,5.38 z"
         id="path5892"
         style="fill:#000000;stroke-width:0" /><path
         d="m 577.56,417.71 0.05,1.05 c 0.3,7.42 4.48,8.66 6.19,8.66 5.12,0 5.62,-6.72 5.62,-8.66 l -11.81,0 -0.05,-1.05 13.91,0 c 1.09,0 1.23,0 1.23,1.05 0,4.92 -2.68,9.75 -8.9,9.75 -5.78,0 -10.38,-5.12 -10.38,-11.36 0,-6.67 5.24,-11.5 10.97,-11.5 6.08,0 8.31,5.53 8.31,6.47 0,0.5 -0.39,0.61 -0.64,0.61 -0.45,0 -0.54,-0.3 -0.65,-0.7 -1.74,-5.13 -6.22,-5.13 -6.72,-5.13 -2.5,0 -4.49,1.49 -5.63,3.33 -1.5,2.39 -1.5,5.69 -1.5,7.48 z"
         id="path5894"
         style="fill:#000000;stroke-width:0" /><path
         d="m 602.42,422.75 0,5.46 -6.92,-0.54 0,-1.55 c 3.48,0 3.89,-0.34 3.89,-2.78 l 0,-13.36 c 0,-2.23 -0.55,-2.23 -3.89,-2.23 l 0,-1.55 c 1.95,0.05 4.28,0.16 5.69,0.16 1.98,0 4.33,0 6.33,-0.16 l 0,1.55 -1.05,0 c -3.69,0 -3.8,0.54 -3.8,2.34 l 0,7.67 c 0,4.92 2.1,9.36 5.89,9.36 0.35,0 0.44,0 0.55,-0.05 -0.16,-0.04 -1.16,-0.64 -1.16,-1.93 0,-1.41 1.05,-2.14 2.16,-2.14 0.89,0 2.14,0.59 2.14,2.18 0,1.6 -1.55,3.03 -3.69,3.03 -3.64,0 -5.44,-3.32 -6.14,-5.46 z"
         id="path5896"
         style="fill:#000000;stroke-width:0" /><path
         d="m 636.68,410.04 5.28,5.13 c 7.76,6.87 10.76,9.56 10.76,14.54 0,5.69 -4.48,9.68 -10.56,9.68 -5.64,0 -9.33,-4.6 -9.33,-9.03 0,-2.79 2.5,-2.79 2.64,-2.79 0.86,0 2.6,0.6 2.6,2.64 0,1.3 -0.89,2.6 -2.64,2.6 -0.4,0 -0.5,0 -0.65,-0.05 1.15,3.24 3.83,5.08 6.72,5.08 4.53,0 6.69,-4.05 6.69,-8.13 0,-3.98 -2.5,-7.92 -5.23,-11.01 l -9.56,-10.66 c -0.57,-0.54 -0.57,-0.64 -0.57,-1.84 l 18.49,0 1.4,8.67 -1.25,0 c -0.25,-1.5 -0.59,-3.69 -1.09,-4.44 -0.36,-0.39 -3.64,-0.39 -4.73,-0.39 z"
         id="path5898"
         style="fill:#000000;stroke-width:0" /></g>  </g>
  <g
     id="g6006"
     transform="translate(542.57363,1257.1638)">
    <g
       word-spacing="normal"
       letter-spacing="normal"
       font-size-adjust="none"
       font-stretch="normal"
       font-weight="normal"
       font-variant="normal"
       font-style="normal"
       stroke-miterlimit="10.433"
       xml:space="preserve"
       transform="matrix(4.1429454,0,0,-4.1429454,-725.01545,2180.8548)"
       id="g6008"
       style="font-style:normal;font-variant:normal;font-weight:normal;font-stretch:normal;letter-spacing:normal;word-spacing:normal;text-anchor:start;fill:none;fill-opacity:1;fill-rule:evenodd;stroke:#000000;stroke-linecap:butt;stroke-linejoin:miter;stroke-miterlimit:10.43299961;stroke-dasharray:none;stroke-dashoffset:0;stroke-opacity:1"><path
         id="path6010"
         d="m 458.32,423.23 0.02,-0.96 0.07,-0.94 0.11,-0.93 0.16,-0.91 0.2,-0.89 0.24,-0.87 0.28,-0.85 0.32,-0.83 0.36,-0.81 0.39,-0.78 0.43,-0.76 0.46,-0.74 0.49,-0.7 0.52,-0.68 0.55,-0.66 0.59,-0.62 0.6,-0.59 0.64,-0.56 0.66,-0.53 0.68,-0.5 0.7,-0.46 0.73,-0.43 0.74,-0.39 0.77,-0.35 0.78,-0.32 0.79,-0.28 0.82,-0.23 0.82,-0.2 0.84,-0.15 0.84,-0.11 0.86,-0.07 0.86,-0.02 c 8.13,0 13,6.92 13,12.7 0,0.5 0,0.84 -0.64,0.84 -0.54,0 -0.54,-0.29 -0.59,-0.79 -0.41,-7.13 -5.73,-11.21 -11.17,-11.21 -3.03,0 -12.8,1.69 -12.8,16.53 0,14.91 9.72,16.6 12.75,16.6 5.44,0 9.88,-4.53 10.86,-11.82 0.11,-0.68 0.11,-0.84 0.8,-0.84 0.79,0 0.79,0.16 0.79,1.2 l 0,11.8 c 0,0.86 0,1.2 -0.54,1.2 -0.19,0 -0.39,0 -0.8,-0.59 l -2.48,-3.69 c -1.85,1.8 -4.39,4.28 -9.18,4.28 -9.31,0 -17.32,-7.92 -17.32,-18.09 z"
         style="fill:#000000;stroke-width:0" /><path
         id="path6012"
         d="m 500.33,440.78 -7.17,-0.55 0,-1.55 c 3.48,0 3.89,-0.34 3.89,-2.79 l 0,-25.91 c 0,-2.23 -0.55,-2.23 -3.89,-2.23 l 0,-1.55 c 1.64,0.05 4.28,0.16 5.53,0.16 1.25,0 3.69,-0.11 5.53,-0.16 l 0,1.55 c -3.34,0 -3.89,0 -3.89,2.23 z"
         style="fill:#000000;stroke-width:0" /><path
         id="path6014"
         d="m 524.8,410.14 0,-4.49 7.17,0.55 0,1.55 c -3.48,0 -3.89,0.34 -3.89,2.78 l 0,17.68 -7.33,-0.54 0,-1.55 c 3.5,0 3.9,-0.34 3.9,-2.78 l 0,-8.88 c 0,-4.32 -2.4,-7.71 -6.04,-7.71 -4.17,0 -4.37,2.34 -4.37,4.93 l 0,16.53 -7.33,-0.54 0,-1.55 c 3.89,0 3.89,-0.14 3.89,-4.58 l 0,-7.47 c 0,-3.89 0,-8.42 7.56,-8.42 2.8,0 4.99,1.39 6.44,4.49 z"
         style="fill:#000000;stroke-width:0" /><path
         id="path6016"
         d="m 543.4,415.87 0.11,-0.02 0.12,-0.02 0.15,-0.03 0.15,-0.04 0.17,-0.04 0.18,-0.04 0.19,-0.05 0.2,-0.06 0.2,-0.06 0.21,-0.07 0.22,-0.08 0.22,-0.08 0.22,-0.1 0.22,-0.1 0.22,-0.11 0.22,-0.12 0.21,-0.14 0.22,-0.14 0.2,-0.15 0.2,-0.16 0.19,-0.18 0.18,-0.19 0.17,-0.2 0.16,-0.21 0.14,-0.22 0.06,-0.12 0.07,-0.12 0.06,-0.13 0.05,-0.12 0.05,-0.14 0.04,-0.13 0.04,-0.14 0.04,-0.14 0.03,-0.15 0.03,-0.15 0.02,-0.16 0.01,-0.15 0.01,-0.17 0,-0.16 c 0,-2.53 -1.75,-4.53 -5.62,-4.53 -4.19,0 -5.99,2.84 -6.94,7.07 -0.14,0.64 -0.19,0.85 -0.69,0.85 -0.65,0 -0.65,-0.35 -0.65,-1.25 l 0,-6.58 c 0,-0.84 0,-1.19 0.54,-1.19 0.25,0 0.3,0.05 1.25,1 0.1,0.1 0.1,0.19 1,1.14 2.19,-2.09 4.44,-2.14 5.49,-2.14 5.72,0 8.01,3.35 8.01,6.92 0,2.64 -1.5,4.14 -2.09,4.74 -1.64,1.59 -3.6,2 -5.69,2.39 -2.78,0.55 -6.12,1.2 -6.12,4.09 0,1.74 1.29,3.78 5.58,3.78 5.48,0 5.73,-4.48 5.82,-6.03 0.06,-0.45 0.5,-0.45 0.61,-0.45 0.64,0 0.64,0.25 0.64,1.2 l 0,5.03 c 0,0.85 0,1.19 -0.54,1.19 -0.25,0 -0.35,0 -1,-0.59 -0.15,-0.21 -0.65,-0.64 -0.85,-0.8 -1.89,1.39 -3.93,1.39 -4.68,1.39 -6.08,0 -7.97,-3.33 -7.97,-6.12 0,-1.74 0.79,-3.14 2.14,-4.24 1.59,-1.29 3,-1.59 6.58,-2.28 z"
         style="fill:#000000;stroke-width:0" /><path
         id="path6018"
         d="m 561.34,426.12 7.13,0 0,1.55 -7.13,0 0,9.17 -1.25,0 c -0.05,-4.08 -1.55,-9.42 -6.42,-9.61 l 0,-1.11 4.23,0 0,-13.75 c 0,-6.12 4.63,-6.72 6.42,-6.72 3.53,0 4.94,3.53 4.94,6.72 l 0,2.84 -1.25,0 0,-2.73 c 0,-3.69 -1.5,-5.58 -3.34,-5.58 -3.33,0 -3.33,4.53 -3.33,5.38 z"
         style="fill:#000000;stroke-width:0" /><path
         id="path6020"
         d="m 577.56,417.71 0.05,1.05 c 0.3,7.42 4.48,8.66 6.19,8.66 5.12,0 5.62,-6.72 5.62,-8.66 l -11.81,0 -0.05,-1.05 13.91,0 c 1.09,0 1.23,0 1.23,1.05 0,4.92 -2.68,9.75 -8.9,9.75 -5.78,0 -10.38,-5.12 -10.38,-11.36 0,-6.67 5.24,-11.5 10.97,-11.5 6.08,0 8.31,5.53 8.31,6.47 0,0.5 -0.39,0.61 -0.64,0.61 -0.45,0 -0.54,-0.3 -0.65,-0.7 -1.74,-5.13 -6.22,-5.13 -6.72,-5.13 -2.5,0 -4.49,1.49 -5.63,3.33 -1.5,2.39 -1.5,5.69 -1.5,7.48 z"
         style="fill:#000000;stroke-width:0" /><path
         id="path6022"
         d="m 602.42,422.75 0,5.46 -6.92,-0.54 0,-1.55 c 3.48,0 3.89,-0.34 3.89,-2.78 l 0,-13.36 c 0,-2.23 -0.55,-2.23 -3.89,-2.23 l 0,-1.55 c 1.95,0.05 4.28,0.16 5.69,0.16 1.98,0 4.33,0 6.33,-0.16 l 0,1.55 -1.05,0 c -3.69,0 -3.8,0.54 -3.8,2.34 l 0,7.67 c 0,4.92 2.1,9.36 5.89,9.36 0.35,0 0.44,0 0.55,-0.05 -0.16,-0.04 -1.16,-0.64 -1.16,-1.93 0,-1.41 1.05,-2.14 2.16,-2.14 0.89,0 2.14,0.59 2.14,2.18 0,1.6 -1.55,3.03 -3.69,3.03 -3.64,0 -5.44,-3.32 -6.14,-5.46 z"
         style="fill:#000000;stroke-width:0" /><path
         id="path6024"
         d="m 644.8,423.73 0.38,0.13 0.37,0.15 0.37,0.15 0.35,0.17 0.35,0.18 0.34,0.19 0.33,0.2 0.32,0.22 0.31,0.22 0.3,0.23 0.3,0.24 0.28,0.25 0.27,0.26 0.26,0.27 0.25,0.27 0.23,0.29 0.23,0.29 0.21,0.3 0.2,0.3 0.19,0.32 0.17,0.32 0.17,0.32 0.14,0.33 0.13,0.34 0.12,0.34 0.11,0.34 0.08,0.35 0.08,0.36 0.06,0.36 0.04,0.36 0.02,0.36 0.01,0.37 c 0,4.08 -4.39,6.88 -9.17,6.88 -5.03,0 -8.82,-3 -8.82,-6.78 0,-1.65 1.1,-2.6 2.55,-2.6 1.53,0 2.53,1.1 2.53,2.55 0,2.48 -2.34,2.48 -3.08,2.48 1.54,2.44 4.83,3.1 6.63,3.1 2.03,0 4.78,-1.1 4.78,-5.58 0,-0.61 -0.11,-3.49 -1.41,-5.69 -1.48,-2.39 -3.18,-2.53 -4.42,-2.59 -0.4,-0.05 -1.59,-0.14 -1.95,-0.14 -0.39,-0.05 -0.75,-0.1 -0.75,-0.6 0,-0.54 0.36,-0.54 1.2,-0.54 l 2.19,0 c 4.1,0 5.94,-3.39 5.94,-8.29 0,-6.76 -3.44,-8.21 -5.64,-8.21 -2.14,0 -5.88,0.84 -7.61,3.78 1.73,-0.24 3.28,0.86 3.28,2.75 0,1.79 -1.34,2.78 -2.8,2.78 -1.19,0 -2.78,-0.69 -2.78,-2.89 0,-4.53 4.63,-7.81 10.06,-7.81 6.08,0 10.61,4.53 10.61,9.6 0,4.1 -3.14,7.97 -8.31,9.02 z"
         style="fill:#000000;stroke-width:0" /></g>  </g>
</svg>
