<?xml version="1.0" encoding="UTF-8" standalone="no"?>
<svg
   xmlns:dc="http://purl.org/dc/elements/1.1/"
   xmlns:cc="http://creativecommons.org/ns#"
   xmlns:rdf="http://www.w3.org/1999/02/22-rdf-syntax-ns#"
   xmlns:svg="http://www.w3.org/2000/svg"
   xmlns="http://www.w3.org/2000/svg"
   width="2919.8064pt"
   height="2912.0618pt"
   viewBox="0 0 2919.8064 2912.0618"
   version="1.1"
   id="svg4155">
  <defs
     id="defs4222" />
  <g
     style="stroke-width:1.6;stroke-miterlimit:4;stroke-dasharray:none"
     transform="translate(5.999995,5.9999772)"
     id="g4947">
    <path
       style="fill:none;stroke:#000000;stroke-width:1.6;stroke-linecap:round;stroke-linejoin:round;stroke-miterlimit:4;stroke-opacity:1;stroke-dasharray:none"
       d="m 793.90693,611.72264 0,304.8242 -263.98439,152.41016 -263.98437,-152.41016 0,-304.8242 263.98437,-152.41408 z m 0,0"
       id="path4158" />
    <path
       style="fill:none;stroke:#000000;stroke-width:1.6;stroke-linecap:round;stroke-linejoin:round;stroke-miterlimit:4;stroke-opacity:1;stroke-dasharray:none"
       d="m 1321.8795,611.72264 0,304.8242 -263.9843,152.41016 -263.98827,-152.41016 0,-304.8242 263.98827,-152.41408 z m 0,0"
       id="path4160" />
    <path
       style="fill:none;stroke:#000000;stroke-width:1.6;stroke-linecap:round;stroke-linejoin:round;stroke-miterlimit:4;stroke-opacity:1;stroke-dasharray:none"
       d="m 1849.8405,611.72264 0,304.8242 -263.9649,152.41016 -263.9961,-152.41016 0,-304.8242 263.9961,-152.41408 z m 0,0"
       id="path4162" />
    <path
       style="fill:none;stroke:#000000;stroke-width:1.6;stroke-linecap:round;stroke-linejoin:round;stroke-miterlimit:4;stroke-opacity:1;stroke-dasharray:none"
       d="m 1057.8952,154.40233 0,304.83201 -263.98827,152.4102 -263.98439,-152.4102 0,-304.83201 L 793.90693,1.99996 Z m 0,0"
       id="path4164" />
    <path
       style="fill:none;stroke:#000000;stroke-width:1.6;stroke-linecap:round;stroke-linejoin:round;stroke-miterlimit:4;stroke-opacity:1;stroke-dasharray:none"
       d="m 1585.8756,154.40233 0,304.83201 -263.9961,152.4102 -263.9843,-152.4102 0,-304.83201 263.9843,-152.40237 z m 0,0"
       id="path4166" />
    <path
       style="fill:none;stroke:#000000;stroke-width:1.6;stroke-linecap:round;stroke-linejoin:round;stroke-miterlimit:4;stroke-opacity:1;stroke-dasharray:none"
       d="m 1057.8952,1068.9492 0,304.8242 -263.98827,152.4101 -263.98439,-152.4101 0,-304.8242 263.98439,-152.41406 z m 0,0"
       id="path4168" />
    <path
       style="fill:none;stroke:#000000;stroke-width:1.6;stroke-linecap:round;stroke-linejoin:round;stroke-miterlimit:4;stroke-opacity:1;stroke-dasharray:none"
       d="m 1585.8756,1068.9492 0,304.8242 -263.9961,152.4101 -263.9843,-152.4101 0,-304.8242 263.9843,-152.41406 z m 0,0"
       id="path4170" />
  </g>
  <g
     style="stroke-width:1.6;stroke-miterlimit:4;stroke-dasharray:none"
     transform="translate(5.999995,5.9999772)"
     id="g4750">
    <path
       id="path4386"
       d="m 1849.8727,1526.2928 0,304.8242 -263.9844,152.4102 -263.9844,-152.4102 0,-304.8242 263.9844,-152.4141 z m 0,0"
       style="fill:none;stroke:#000000;stroke-width:1.6;stroke-linecap:round;stroke-linejoin:round;stroke-miterlimit:4;stroke-opacity:1;stroke-dasharray:none" />
    <path
       id="path4388"
       d="m 2377.8453,1526.2928 0,304.8242 -263.9843,152.4102 -263.9883,-152.4102 0,-304.8242 263.9883,-152.4141 z m 0,0"
       style="fill:none;stroke:#000000;stroke-width:1.6;stroke-linecap:round;stroke-linejoin:round;stroke-miterlimit:4;stroke-opacity:1;stroke-dasharray:none" />
    <path
       id="path4390"
       d="m 2905.8063,1526.2928 0,304.8242 -263.9649,152.4102 -263.9961,-152.4102 0,-304.8242 263.9961,-152.4141 z m 0,0"
       style="fill:none;stroke:#000000;stroke-width:1.6;stroke-linecap:round;stroke-linejoin:round;stroke-miterlimit:4;stroke-opacity:1;stroke-dasharray:none" />
    <path
       id="path4392"
       d="m 2113.861,1068.9725 0,304.832 -263.9883,152.4102 -263.9844,-152.4102 0,-304.832 263.9844,-152.40236 z m 0,0"
       style="fill:none;stroke:#000000;stroke-width:1.6;stroke-linecap:round;stroke-linejoin:round;stroke-miterlimit:4;stroke-opacity:1;stroke-dasharray:none" />
    <path
       id="path4394"
       d="m 2641.8414,1068.9725 0,304.832 -263.9961,152.4102 -263.9843,-152.4102 0,-304.832 263.9843,-152.40236 z m 0,0"
       style="fill:none;stroke:#000000;stroke-width:1.6;stroke-linecap:round;stroke-linejoin:round;stroke-miterlimit:4;stroke-opacity:1;stroke-dasharray:none" />
    <path
       id="path4396"
       d="m 2113.861,1983.5194 0,304.8242 -263.9883,152.4101 -263.9844,-152.4101 0,-304.8242 263.9844,-152.4141 z m 0,0"
       style="fill:none;stroke:#000000;stroke-width:1.6;stroke-linecap:round;stroke-linejoin:round;stroke-miterlimit:4;stroke-opacity:1;stroke-dasharray:none" />
    <path
       id="path4398"
       d="m 2641.8414,1983.5194 0,304.8242 -263.9961,152.4101 -263.9843,-152.4101 0,-304.8242 263.9843,-152.4141 z m 0,0"
       style="fill:none;stroke:#000000;stroke-width:1.6;stroke-linecap:round;stroke-linejoin:round;stroke-miterlimit:4;stroke-opacity:1;stroke-dasharray:none" />
  </g>
  <g
     style="stroke-width:1.6;stroke-miterlimit:4;stroke-dasharray:none"
     transform="translate(5.999995,5.9999772)"
     id="g4777">
    <path
       style="fill:none;stroke:#000000;stroke-width:1.6;stroke-linecap:round;stroke-linejoin:round;stroke-miterlimit:4;stroke-opacity:1;stroke-dasharray:none"
       d="m 529.96876,1983.6009 0,304.8242 L 265.98437,2440.8353 2,2288.4251 2,1983.6009 265.98437,1831.1868 Z m 0,0"
       id="path4402" />
    <path
       style="fill:none;stroke:#000000;stroke-width:1.6;stroke-linecap:round;stroke-linejoin:round;stroke-miterlimit:4;stroke-opacity:1;stroke-dasharray:none"
       d="m 1057.9414,1983.6009 0,304.8242 -263.98437,152.4102 -263.98827,-152.4102 0,-304.8242 263.98827,-152.4141 z m 0,0"
       id="path4404" />
    <path
       style="fill:none;stroke:#000000;stroke-width:1.6;stroke-linecap:round;stroke-linejoin:round;stroke-miterlimit:4;stroke-opacity:1;stroke-dasharray:none"
       d="m 1585.9024,1983.6009 0,304.8242 -263.9649,152.4102 -263.9961,-152.4102 0,-304.8242 263.9961,-152.4141 z m 0,0"
       id="path4406" />
    <path
       style="fill:none;stroke:#000000;stroke-width:1.6;stroke-linecap:round;stroke-linejoin:round;stroke-miterlimit:4;stroke-opacity:1;stroke-dasharray:none"
       d="m 793.95703,1526.2806 0,304.832 -263.98827,152.4102 -263.98439,-152.4102 0,-304.832 263.98439,-152.4024 z m 0,0"
       id="path4408" />
    <path
       style="fill:none;stroke:#000000;stroke-width:1.6;stroke-linecap:round;stroke-linejoin:round;stroke-miterlimit:4;stroke-dasharray:none;stroke-opacity:1"
       d="m 1321.9375,1526.2806 0,304.832 -263.9961,152.4102 -263.98437,-152.4102 0,-304.832 263.98437,-152.4024 z"
       id="path4860" />
    <path
       style="fill:none;stroke:#000000;stroke-width:1.6;stroke-linecap:round;stroke-linejoin:round;stroke-miterlimit:4;stroke-dasharray:none;stroke-opacity:1"
       d="M 1321.9375,1526.2806"
       id="path4410" />
    <path
       style="fill:none;stroke:#000000;stroke-width:1.6;stroke-linecap:round;stroke-linejoin:round;stroke-miterlimit:4;stroke-opacity:1;stroke-dasharray:none"
       d="m 793.95703,2440.8275 0,304.8242 -263.98827,152.4101 -263.98439,-152.4101 0,-304.8242 263.98439,-152.4141 z m 0,0"
       id="path4412" />
    <path
       style="fill:none;stroke:#000000;stroke-width:1.6;stroke-linecap:round;stroke-linejoin:round;stroke-miterlimit:4;stroke-opacity:1;stroke-dasharray:none"
       d="m 1321.9375,2440.8275 0,304.8242 -263.9961,152.4101 -263.98437,-152.4101 0,-304.8242 263.98437,-152.4141 z m 0,0"
       id="path4414" />
  </g>
  <text
     xml:space="preserve"
     style="font-style:normal;font-weight:normal;font-size:32px;line-height:125%;font-family:Sans;letter-spacing:0px;word-spacing:0px;fill:#000000;fill-opacity:1;stroke:none;stroke-width:1px;stroke-linecap:butt;stroke-linejoin:miter;stroke-opacity:1"
     x="741.72888"
     y="386.58713"
     id="text4495"><tspan
       id="tspan4497"
       x="741.72888"
       y="386.58713" /></text>
  <metadata
     id="metadata4499">
    <rdf:RDF>
      <cc:Work
         rdf:about="">
        <dc:title></dc:title>
        <dc:format>image/svg+xml</dc:format>
        <dc:type
           rdf:resource="http://purl.org/dc/dcmitype/StillImage" />
      </cc:Work>
    </rdf:RDF>
  </metadata>
  <g
     transform="translate(5.999995,5.9999772)"
     id="g4812">
    <g
       style="font-style:normal;font-variant:normal;font-weight:normal;font-stretch:normal;letter-spacing:normal;word-spacing:normal;text-anchor:start;fill:none;fill-opacity:1;fill-rule:evenodd;stroke:#000000;stroke-linecap:butt;stroke-linejoin:miter;stroke-miterlimit:10.43299961;stroke-dasharray:none;stroke-dashoffset:0;stroke-opacity:1"
       id="content"
       transform="matrix(2.9748004,0,0,-2.9748004,-616.66711,1568.2417)"
       xml:space="preserve"
       stroke-miterlimit="10.433"
       font-style="normal"
       font-variant="normal"
       font-weight="normal"
       font-stretch="normal"
       font-size-adjust="none"
       letter-spacing="normal"
       word-spacing="normal"><path
         style="fill:#000000;stroke-width:0"
         d="m 475.35,440.87 -0.03,0.06 -0.02,0.06 -0.02,0.06 -0.02,0.05 -0.02,0.06 -0.02,0.05 -0.02,0.05 -0.02,0.04 -0.03,0.05 -0.02,0.04 -0.02,0.05 -0.02,0.04 -0.03,0.03 -0.02,0.04 -0.03,0.03 -0.03,0.04 -0.03,0.03 -0.03,0.03 -0.03,0.02 -0.04,0.03 -0.04,0.02 -0.04,0.02 -0.04,0.02 -0.04,0.02 -0.05,0.01 -0.05,0.01 -0.06,0.02 -0.06,0 -0.06,0.01 -0.06,0.01 -0.07,0 -0.04,0 -0.03,0 c -0.8,0 -0.96,-0.3 -1.21,-1 l -10.31,-29.8 c -0.89,-2.53 -2.89,-3.28 -5.58,-3.32 l 0,-1.55 c 1.14,0.05 3.28,0.16 5.08,0.16 1.55,0 4.14,-0.11 5.74,-0.16 l 0,1.55 c -2.49,0 -3.74,1.25 -3.74,2.53 0,0.15 0.05,0.65 0.1,0.75 l 2.29,6.53 0.55,1.55 5.58,16.18 5.62,-16.18 -11.2,0 -0.55,-1.55 12.3,0 2.64,-7.63 c 0.06,-0.2 0.16,-0.5 0.16,-0.68 0,-1.5 -2.8,-1.5 -4.14,-1.5 l 0,-1.55 c 1.79,0.16 5.28,0.16 7.18,0.16 2.14,0 4.42,-0.07 6.52,-0.16 l 0,1.55 -0.89,0 c -3,0 -3.69,0.34 -4.24,1.98 z"
         id="path4534" /></g>    <path
       id="path4604"
       d="m 1338.8121,304.54653 1.3386,-0.29749 1.309,-0.29748 1.3089,-0.38672 1.2494,-0.38673 1.2196,-0.41647 1.19,-0.47596 1.1899,-0.50572 1.1304,-0.53546 1.1007,-0.56522 1.0709,-0.59496 1.0412,-0.62471 0.9817,-0.62471 0.9519,-0.68419 0.9222,-0.71396 0.8924,-0.7437 0.833,-0.7437 0.8032,-0.77345 0.7436,-0.80319 0.7141,-0.83295 0.6544,-0.83294 0.6247,-0.8627 0.5652,-0.89243 0.5057,-0.89244 0.476,-0.92219 0.4165,-0.95194 0.3569,-0.95193 0.3272,-0.95194 0.2678,-0.98169 0.1785,-1.01143 0.1487,-0.98168 0.089,-1.01143 0.03,-1.04118 c 0,-12.88089 -13.6544,-25.04782 -32.9013,-25.04782 l -1.071,4.61094 c 14.4278,0 19.5743,12.5834 19.5743,20.43688 0,9.48961 -7.2586,21.95402 -23.7092,21.95402 l -21.478,0 0,3.24253 27.844,0 c 14.6956,0 20.9129,13.80308 20.9129,23.70917 0,10.56054 -7.7047,22.66797 -22.9654,22.66797 l 0,0 -18.5331,0 c -6.961,0 -7.2584,-1.01143 -7.2584,-5.8901 l 0,-40.48704 0,-3.24253 0,-36.4413 c 0,-4.93817 0.2974,-5.9496 7.2584,-5.9496 l 18.3545,0 1.071,-4.61094 -54.2306,0 0,4.61094 3.5103,0 c 11.4529,0 11.7207,1.60639 11.7207,6.96103 l 0,78.08851 c 0,5.35464 -0.2678,6.96103 -11.7207,6.96103 l -3.5103,0 0,4.61095 58.0978,0 c 19.6932,0 33.05,-13.20812 33.05,-27.13018 0,-12.88089 -12.1966,-24.00664 -28.6472,-25.76177 z"
       style="font-style:normal;font-variant:normal;font-weight:normal;font-stretch:normal;letter-spacing:normal;word-spacing:normal;text-anchor:start;fill:#000000;fill-opacity:1;fill-rule:evenodd;stroke:#000000;stroke-width:0;stroke-linecap:butt;stroke-linejoin:miter;stroke-miterlimit:10.43299961;stroke-dasharray:none;stroke-dashoffset:0;stroke-opacity:1" />
    <path
       id="path4606"
       d="m 484.80966,764.08816 0.0893,2.85581 0.20823,2.7963 0.32728,2.76657 0.47592,2.70707 0.59497,2.64758 0.71394,2.58807 0.83293,2.52858 0.95198,2.46909 1.04116,2.40958 1.18993,2.32035 1.24939,2.26085 1.36844,2.20135 1.48742,2.08236 1.54687,2.02286 1.63613,1.96337 1.72538,1.84438 1.81463,1.75513 1.90388,1.66589 1.93361,1.57664 2.05266,1.4874 2.08232,1.36841 2.17164,1.27916 2.20129,1.16017 2.29062,1.04118 2.32035,0.95194 2.35007,0.83295 2.4096,0.6842 2.46913,0.59496 2.46905,0.44622 2.52858,0.32723 2.5583,0.20823 2.55838,0.0595 c 24.18509,0 38.67241,-20.58562 38.67241,-37.77997 0,-1.4874 0,-2.49883 -1.90388,-2.49883 -1.63613,0 -1.63613,0.86269 -1.75511,2.3501 -1.21973,21.21032 -17.07542,33.3475 -33.22852,33.3475 -9.04343,0 -38.07752,-5.0274 -38.07752,-49.17344 0,-44.35428 28.91512,-49.38169 37.92874,-49.38169 16.1829,0 29.3613,13.47584 32.30634,35.16214 0.32722,2.02286 0.32722,2.49883 2.35008,2.49883 2.37987,0 2.37987,-0.47597 2.37987,-3.56976 l 0,-35.10264 c 0,-2.55833 0,-3.56976 -1.63613,-3.56976 -0.53551,0 -1.16021,0 -2.35014,1.75513 l -7.40723,10.97701 c -5.47362,-5.35464 -13.05935,-12.73214 -27.27891,-12.73214 -27.69538,0 -51.55334,23.56041 -51.55334,53.81414 z"
       style="font-style:normal;font-variant:normal;font-weight:normal;font-stretch:normal;letter-spacing:normal;word-spacing:normal;text-anchor:start;fill:#000000;fill-opacity:1;fill-rule:evenodd;stroke:#000000;stroke-width:0;stroke-linecap:butt;stroke-linejoin:miter;stroke-miterlimit:10.43299961;stroke-dasharray:none;stroke-dashoffset:0;stroke-opacity:1" />
    <path
       id="path4608"
       d="m 1008.1099,713.51655 0,4.61094 3.54,0 c 11.4233,0 11.691,1.60639 11.691,6.96103 l 0,78.08851 c 0,5.35464 -0.2677,6.96103 -11.691,6.96103 l -3.54,0 0,4.61095 54.2306,0 -3.9862,-4.61095 -15.0227,0 c -6.9313,0 -7.2288,-1.01143 -7.2288,-5.8901 l 0,-80.17087 c 0,-4.93817 0.2975,-5.9496 7.2288,-5.9496 l 14.8442,0 c 9.1922,0 19.4255,3.24253 27.0112,13.80307 6.3661,8.71617 7.6453,21.47806 7.6453,33.05003 0,16.45065 -2.7667,25.31556 -8.1213,32.57407 -2.9748,3.98623 -11.3935,12.5834 -26.3567,12.5834 l 3.9862,4.61095 c 24.8694,0 45.336,-21.92428 45.336,-49.76842 0,-28.17135 -19.9907,-51.46404 -45.336,-51.46404 z"
       style="font-style:normal;font-variant:normal;font-weight:normal;font-stretch:normal;letter-spacing:normal;word-spacing:normal;text-anchor:start;fill:#000000;fill-opacity:1;fill-rule:evenodd;stroke:#000000;stroke-width:0;stroke-linecap:butt;stroke-linejoin:miter;stroke-miterlimit:10.43299961;stroke-dasharray:none;stroke-dashoffset:0;stroke-opacity:1" />
    <path
       id="path4610"
       d="m 1555.2786,802.93964 0,0.47597 0,0.47596 -0.029,0.44623 0,0.44622 -0.029,0.38672 -0.06,0.38672 -0.06,0.38673 -0.06,0.32723 -0.089,0.35697 -0.089,0.29748 -0.1487,0.29748 -0.1488,0.26774 -0.1785,0.26772 -0.2082,0.23799 -0.238,0.23798 -0.2677,0.20824 -0.2975,0.17849 -0.3272,0.17848 -0.1785,0.0892 -0.1785,0.0892 -0.2082,0.0595 -0.2083,0.0892 -0.238,0.0595 -0.2082,0.0595 -0.2379,0.0595 -0.2678,0.0595 -0.2678,0.0595 -0.2676,0.0595 -0.2975,0.0595 -0.2975,0.0297 -0.2975,0.0297 -0.3272,0.0595 -0.357,0.0297 -0.3272,0.0297 -0.3868,0.0297 -0.3569,0.0297 -0.4165,0.0297 -0.3867,0.0297 -0.4165,0 -0.4462,0.0297 -0.4462,0 -0.4463,0.0297 -0.5057,0 -0.476,0 -0.5057,0 -0.5354,0 -3.5698,0 0,4.61094 85.5255,0 6.2173,-38.25593 -3.7185,0 c -3.659,22.81671 -7.1097,33.64499 -32.574,33.64499 l -19.7229,0 c -6.961,0 -7.2883,-1.01143 -7.2883,-5.89011 l 0,-39.59459 13.3271,0 c 14.4278,0 16.0639,4.72993 16.0639,17.34309 l 3.6591,0 0,-39.29712 -3.6591,0 c 0,12.79165 -1.6361,17.34309 -16.0639,17.34309 l -13.3271,0 0,-35.54886 c 0,-4.87868 0.3273,-5.91986 7.2883,-5.91986 l 19.1279,0 c 22.668,0 26.6543,8.15095 29.0341,28.73658 l 3.7185,0 -4.1945,-33.31777 -83.4134,0 0,4.58119 3.5698,0 c 11.3935,0 11.7207,1.63614 11.7207,6.93129 z"
       style="font-style:normal;font-variant:normal;font-weight:normal;font-stretch:normal;letter-spacing:normal;word-spacing:normal;text-anchor:start;fill:#000000;fill-opacity:1;fill-rule:evenodd;stroke:#000000;stroke-width:0;stroke-linecap:butt;stroke-linejoin:miter;stroke-miterlimit:10.43299961;stroke-dasharray:none;stroke-dashoffset:0;stroke-opacity:1" />
    <path
       id="path4612"
       d="m 832.53662,1170.9811 -81.39048,0 0,4.5812 3.59946,0 c 11.36378,0 11.69099,1.6361 11.69099,6.9312 l 0,77.6721 c 0,5.3546 -0.32721,6.961 -11.69099,6.961 l -3.59946,0 0,4.611 c 5.20586,-0.476 16.77787,-0.476 22.54897,-0.476 6.09831,0 19.5742,0 24.92884,0.476 l 0,-4.611 -4.93818,0 c -14.10058,0 -14.10058,-1.9039 -14.10058,-7.1097 l 0,-36.4413 12.79167,0 c 14.21956,0 15.70691,4.7596 15.70691,17.3431 l 3.68878,0 0,-39.2674 -3.68878,0 c 0,12.4644 -1.48735,17.3431 -15.70691,17.3431 l -12.79167,0 0,-37.5123 c 0,-4.8786 0.35701,-5.9198 7.31805,-5.9198 l 17.7595,0 c 22.25155,0 25.94027,8.27 28.29041,28.7365 l 3.71845,0 z"
       style="font-style:normal;font-variant:normal;font-weight:normal;font-stretch:normal;letter-spacing:normal;word-spacing:normal;text-anchor:start;fill:#000000;fill-opacity:1;fill-rule:evenodd;stroke:#000000;stroke-width:0;stroke-linecap:butt;stroke-linejoin:miter;stroke-miterlimit:10.43299961;stroke-dasharray:none;stroke-dashoffset:0;stroke-opacity:1" />
    <path
       id="path4614"
       d="m 1351.1436,1262.6357 0.1784,0.3273 0.2083,0.3272 0.238,0.3272 0.2678,0.357 0.2676,0.357 0.2678,0.357 0.2975,0.3867 0.3272,0.3569 0.3272,0.3868 0.3273,0.3867 0.6841,0.7734 0.714,0.7438 0.7437,0.7436 0.357,0.3272 0.357,0.3571 0.3569,0.3272 0.357,0.2975 0.3272,0.2974 0.3272,0.2975 0.3273,0.238 0.3271,0.238 0.2976,0.238 0.2676,0.1785 0.2679,0.1785 0.2677,0.1487 0.238,0.089 0.2082,0.089 0.089,0.029 0.089,0.03 0.089,0 0.089,0 c 1.3387,0 1.3387,-1.19 1.3387,-3.4211 l 0,-25.7617 c 0,-5.8009 0.5652,-6.5446 10.2333,-6.5446 l 0,-4.5514 c -5.5034,0.1189 -13.6841,0.4164 -18.0868,0.4164 -5.9496,0 -18.5628,0 -23.8876,-0.4164 l 0,4.5514 4.7299,0 c 13.3568,0 13.803,1.6361 13.803,7.1098 l 0,9.4896 c 0,16.6291 -18.8304,17.938 -22.9654,17.938 -9.6681,0 -38.9996,-5.1761 -38.9996,-49.3221 0,-44.3543 29.2125,-49.233 38.0774,-49.233 15.8853,0 29.391,13.3569 32.3658,35.1621 0.2678,2.0229 0.2678,2.4989 2.3501,2.4989 2.3799,0 2.3799,-0.476 2.3799,-3.5698 l 0,-35.1027 c 0,-2.5583 0,-3.5697 -1.6362,-3.5697 -0.5949,0 -1.1899,0 -2.4096,1.7551 l -7.3775,10.9771 c -4.7596,-4.7597 -12.7619,-12.7322 -27.4277,-12.7322 -27.5764,0 -51.5532,23.4117 -51.5532,53.8142 0,30.3429 23.7092,53.9033 51.8805,53.9033 10.7688,0 22.6382,-3.8375 27.6954,-12.5834 z"
       style="font-style:normal;font-variant:normal;font-weight:normal;font-stretch:normal;letter-spacing:normal;word-spacing:normal;text-anchor:start;fill:#000000;fill-opacity:1;fill-rule:evenodd;stroke:#000000;stroke-width:0;stroke-linecap:butt;stroke-linejoin:miter;stroke-miterlimit:10.43299961;stroke-dasharray:none;stroke-dashoffset:0;stroke-opacity:1" />
  </g>
  <g
     id="g4822"
     transform="translate(1061.5846,920.16953)">
    <g
       word-spacing="normal"
       letter-spacing="normal"
       font-size-adjust="none"
       font-stretch="normal"
       font-weight="normal"
       font-variant="normal"
       font-style="normal"
       stroke-miterlimit="10.433"
       xml:space="preserve"
       transform="matrix(2.9748004,0,0,-2.9748004,-616.66711,1568.2417)"
       id="g4824"
       style="font-style:normal;font-variant:normal;font-weight:normal;font-stretch:normal;letter-spacing:normal;word-spacing:normal;text-anchor:start;fill:none;fill-opacity:1;fill-rule:evenodd;stroke:#000000;stroke-linecap:butt;stroke-linejoin:miter;stroke-miterlimit:10.43299961;stroke-dasharray:none;stroke-dashoffset:0;stroke-opacity:1"><path
         id="path4826"
         d="m 475.35,440.87 -0.03,0.06 -0.02,0.06 -0.02,0.06 -0.02,0.05 -0.02,0.06 -0.02,0.05 -0.02,0.05 -0.02,0.04 -0.03,0.05 -0.02,0.04 -0.02,0.05 -0.02,0.04 -0.03,0.03 -0.02,0.04 -0.03,0.03 -0.03,0.04 -0.03,0.03 -0.03,0.03 -0.03,0.02 -0.04,0.03 -0.04,0.02 -0.04,0.02 -0.04,0.02 -0.04,0.02 -0.05,0.01 -0.05,0.01 -0.06,0.02 -0.06,0 -0.06,0.01 -0.06,0.01 -0.07,0 -0.04,0 -0.03,0 c -0.8,0 -0.96,-0.3 -1.21,-1 l -10.31,-29.8 c -0.89,-2.53 -2.89,-3.28 -5.58,-3.32 l 0,-1.55 c 1.14,0.05 3.28,0.16 5.08,0.16 1.55,0 4.14,-0.11 5.74,-0.16 l 0,1.55 c -2.49,0 -3.74,1.25 -3.74,2.53 0,0.15 0.05,0.65 0.1,0.75 l 2.29,6.53 0.55,1.55 5.58,16.18 5.62,-16.18 -11.2,0 -0.55,-1.55 12.3,0 2.64,-7.63 c 0.06,-0.2 0.16,-0.5 0.16,-0.68 0,-1.5 -2.8,-1.5 -4.14,-1.5 l 0,-1.55 c 1.79,0.16 5.28,0.16 7.18,0.16 2.14,0 4.42,-0.07 6.52,-0.16 l 0,1.55 -0.89,0 c -3,0 -3.69,0.34 -4.24,1.98 z"
         style="fill:#000000;stroke-width:0" /></g>    <path
       style="font-style:normal;font-variant:normal;font-weight:normal;font-stretch:normal;letter-spacing:normal;word-spacing:normal;text-anchor:start;fill:#000000;fill-opacity:1;fill-rule:evenodd;stroke:#000000;stroke-width:0;stroke-linecap:butt;stroke-linejoin:miter;stroke-miterlimit:10.43299961;stroke-dasharray:none;stroke-dashoffset:0;stroke-opacity:1"
       d="m 1338.8121,304.54653 1.3386,-0.29749 1.309,-0.29748 1.3089,-0.38672 1.2494,-0.38673 1.2196,-0.41647 1.19,-0.47596 1.1899,-0.50572 1.1304,-0.53546 1.1007,-0.56522 1.0709,-0.59496 1.0412,-0.62471 0.9817,-0.62471 0.9519,-0.68419 0.9222,-0.71396 0.8924,-0.7437 0.833,-0.7437 0.8032,-0.77345 0.7436,-0.80319 0.7141,-0.83295 0.6544,-0.83294 0.6247,-0.8627 0.5652,-0.89243 0.5057,-0.89244 0.476,-0.92219 0.4165,-0.95194 0.3569,-0.95193 0.3272,-0.95194 0.2678,-0.98169 0.1785,-1.01143 0.1487,-0.98168 0.089,-1.01143 0.03,-1.04118 c 0,-12.88089 -13.6544,-25.04782 -32.9013,-25.04782 l -1.071,4.61094 c 14.4278,0 19.5743,12.5834 19.5743,20.43688 0,9.48961 -7.2586,21.95402 -23.7092,21.95402 l -21.478,0 0,3.24253 27.844,0 c 14.6956,0 20.9129,13.80308 20.9129,23.70917 0,10.56054 -7.7047,22.66797 -22.9654,22.66797 l 0,0 -18.5331,0 c -6.961,0 -7.2584,-1.01143 -7.2584,-5.8901 l 0,-40.48704 0,-3.24253 0,-36.4413 c 0,-4.93817 0.2974,-5.9496 7.2584,-5.9496 l 18.3545,0 1.071,-4.61094 -54.2306,0 0,4.61094 3.5103,0 c 11.4529,0 11.7207,1.60639 11.7207,6.96103 l 0,78.08851 c 0,5.35464 -0.2678,6.96103 -11.7207,6.96103 l -3.5103,0 0,4.61095 58.0978,0 c 19.6932,0 33.05,-13.20812 33.05,-27.13018 0,-12.88089 -12.1966,-24.00664 -28.6472,-25.76177 z"
       id="path4828" />
    <path
       style="font-style:normal;font-variant:normal;font-weight:normal;font-stretch:normal;letter-spacing:normal;word-spacing:normal;text-anchor:start;fill:#000000;fill-opacity:1;fill-rule:evenodd;stroke:#000000;stroke-width:0;stroke-linecap:butt;stroke-linejoin:miter;stroke-miterlimit:10.43299961;stroke-dasharray:none;stroke-dashoffset:0;stroke-opacity:1"
       d="m 484.80966,764.08816 0.0893,2.85581 0.20823,2.7963 0.32728,2.76657 0.47592,2.70707 0.59497,2.64758 0.71394,2.58807 0.83293,2.52858 0.95198,2.46909 1.04116,2.40958 1.18993,2.32035 1.24939,2.26085 1.36844,2.20135 1.48742,2.08236 1.54687,2.02286 1.63613,1.96337 1.72538,1.84438 1.81463,1.75513 1.90388,1.66589 1.93361,1.57664 2.05266,1.4874 2.08232,1.36841 2.17164,1.27916 2.20129,1.16017 2.29062,1.04118 2.32035,0.95194 2.35007,0.83295 2.4096,0.6842 2.46913,0.59496 2.46905,0.44622 2.52858,0.32723 2.5583,0.20823 2.55838,0.0595 c 24.18509,0 38.67241,-20.58562 38.67241,-37.77997 0,-1.4874 0,-2.49883 -1.90388,-2.49883 -1.63613,0 -1.63613,0.86269 -1.75511,2.3501 -1.21973,21.21032 -17.07542,33.3475 -33.22852,33.3475 -9.04343,0 -38.07752,-5.0274 -38.07752,-49.17344 0,-44.35428 28.91512,-49.38169 37.92874,-49.38169 16.1829,0 29.3613,13.47584 32.30634,35.16214 0.32722,2.02286 0.32722,2.49883 2.35008,2.49883 2.37987,0 2.37987,-0.47597 2.37987,-3.56976 l 0,-35.10264 c 0,-2.55833 0,-3.56976 -1.63613,-3.56976 -0.53551,0 -1.16021,0 -2.35014,1.75513 l -7.40723,10.97701 c -5.47362,-5.35464 -13.05935,-12.73214 -27.27891,-12.73214 -27.69538,0 -51.55334,23.56041 -51.55334,53.81414 z"
       id="path4830" />
    <path
       style="font-style:normal;font-variant:normal;font-weight:normal;font-stretch:normal;letter-spacing:normal;word-spacing:normal;text-anchor:start;fill:#000000;fill-opacity:1;fill-rule:evenodd;stroke:#000000;stroke-width:0;stroke-linecap:butt;stroke-linejoin:miter;stroke-miterlimit:10.43299961;stroke-dasharray:none;stroke-dashoffset:0;stroke-opacity:1"
       d="m 1008.1099,713.51655 0,4.61094 3.54,0 c 11.4233,0 11.691,1.60639 11.691,6.96103 l 0,78.08851 c 0,5.35464 -0.2677,6.96103 -11.691,6.96103 l -3.54,0 0,4.61095 54.2306,0 -3.9862,-4.61095 -15.0227,0 c -6.9313,0 -7.2288,-1.01143 -7.2288,-5.8901 l 0,-80.17087 c 0,-4.93817 0.2975,-5.9496 7.2288,-5.9496 l 14.8442,0 c 9.1922,0 19.4255,3.24253 27.0112,13.80307 6.3661,8.71617 7.6453,21.47806 7.6453,33.05003 0,16.45065 -2.7667,25.31556 -8.1213,32.57407 -2.9748,3.98623 -11.3935,12.5834 -26.3567,12.5834 l 3.9862,4.61095 c 24.8694,0 45.336,-21.92428 45.336,-49.76842 0,-28.17135 -19.9907,-51.46404 -45.336,-51.46404 z"
       id="path4832" />
    <path
       style="font-style:normal;font-variant:normal;font-weight:normal;font-stretch:normal;letter-spacing:normal;word-spacing:normal;text-anchor:start;fill:#000000;fill-opacity:1;fill-rule:evenodd;stroke:#000000;stroke-width:0;stroke-linecap:butt;stroke-linejoin:miter;stroke-miterlimit:10.43299961;stroke-dasharray:none;stroke-dashoffset:0;stroke-opacity:1"
       d="m 1555.2786,802.93964 0,0.47597 0,0.47596 -0.029,0.44623 0,0.44622 -0.029,0.38672 -0.06,0.38672 -0.06,0.38673 -0.06,0.32723 -0.089,0.35697 -0.089,0.29748 -0.1487,0.29748 -0.1488,0.26774 -0.1785,0.26772 -0.2082,0.23799 -0.238,0.23798 -0.2677,0.20824 -0.2975,0.17849 -0.3272,0.17848 -0.1785,0.0892 -0.1785,0.0892 -0.2082,0.0595 -0.2083,0.0892 -0.238,0.0595 -0.2082,0.0595 -0.2379,0.0595 -0.2678,0.0595 -0.2678,0.0595 -0.2676,0.0595 -0.2975,0.0595 -0.2975,0.0297 -0.2975,0.0297 -0.3272,0.0595 -0.357,0.0297 -0.3272,0.0297 -0.3868,0.0297 -0.3569,0.0297 -0.4165,0.0297 -0.3867,0.0297 -0.4165,0 -0.4462,0.0297 -0.4462,0 -0.4463,0.0297 -0.5057,0 -0.476,0 -0.5057,0 -0.5354,0 -3.5698,0 0,4.61094 85.5255,0 6.2173,-38.25593 -3.7185,0 c -3.659,22.81671 -7.1097,33.64499 -32.574,33.64499 l -19.7229,0 c -6.961,0 -7.2883,-1.01143 -7.2883,-5.89011 l 0,-39.59459 13.3271,0 c 14.4278,0 16.0639,4.72993 16.0639,17.34309 l 3.6591,0 0,-39.29712 -3.6591,0 c 0,12.79165 -1.6361,17.34309 -16.0639,17.34309 l -13.3271,0 0,-35.54886 c 0,-4.87868 0.3273,-5.91986 7.2883,-5.91986 l 19.1279,0 c 22.668,0 26.6543,8.15095 29.0341,28.73658 l 3.7185,0 -4.1945,-33.31777 -83.4134,0 0,4.58119 3.5698,0 c 11.3935,0 11.7207,1.63614 11.7207,6.93129 z"
       id="path4834" />
    <path
       style="font-style:normal;font-variant:normal;font-weight:normal;font-stretch:normal;letter-spacing:normal;word-spacing:normal;text-anchor:start;fill:#000000;fill-opacity:1;fill-rule:evenodd;stroke:#000000;stroke-width:0;stroke-linecap:butt;stroke-linejoin:miter;stroke-miterlimit:10.43299961;stroke-dasharray:none;stroke-dashoffset:0;stroke-opacity:1"
       d="m 832.53662,1170.9811 -81.39048,0 0,4.5812 3.59946,0 c 11.36378,0 11.69099,1.6361 11.69099,6.9312 l 0,77.6721 c 0,5.3546 -0.32721,6.961 -11.69099,6.961 l -3.59946,0 0,4.611 c 5.20586,-0.476 16.77787,-0.476 22.54897,-0.476 6.09831,0 19.5742,0 24.92884,0.476 l 0,-4.611 -4.93818,0 c -14.10058,0 -14.10058,-1.9039 -14.10058,-7.1097 l 0,-36.4413 12.79167,0 c 14.21956,0 15.70691,4.7596 15.70691,17.3431 l 3.68878,0 0,-39.2674 -3.68878,0 c 0,12.4644 -1.48735,17.3431 -15.70691,17.3431 l -12.79167,0 0,-37.5123 c 0,-4.8786 0.35701,-5.9198 7.31805,-5.9198 l 17.7595,0 c 22.25155,0 25.94027,8.27 28.29041,28.7365 l 3.71845,0 z"
       id="path4836" />
    <path
       style="font-style:normal;font-variant:normal;font-weight:normal;font-stretch:normal;letter-spacing:normal;word-spacing:normal;text-anchor:start;fill:#000000;fill-opacity:1;fill-rule:evenodd;stroke:#000000;stroke-width:0;stroke-linecap:butt;stroke-linejoin:miter;stroke-miterlimit:10.43299961;stroke-dasharray:none;stroke-dashoffset:0;stroke-opacity:1"
       d="m 1351.1436,1262.6357 0.1784,0.3273 0.2083,0.3272 0.238,0.3272 0.2678,0.357 0.2676,0.357 0.2678,0.357 0.2975,0.3867 0.3272,0.3569 0.3272,0.3868 0.3273,0.3867 0.6841,0.7734 0.714,0.7438 0.7437,0.7436 0.357,0.3272 0.357,0.3571 0.3569,0.3272 0.357,0.2975 0.3272,0.2974 0.3272,0.2975 0.3273,0.238 0.3271,0.238 0.2976,0.238 0.2676,0.1785 0.2679,0.1785 0.2677,0.1487 0.238,0.089 0.2082,0.089 0.089,0.029 0.089,0.03 0.089,0 0.089,0 c 1.3387,0 1.3387,-1.19 1.3387,-3.4211 l 0,-25.7617 c 0,-5.8009 0.5652,-6.5446 10.2333,-6.5446 l 0,-4.5514 c -5.5034,0.1189 -13.6841,0.4164 -18.0868,0.4164 -5.9496,0 -18.5628,0 -23.8876,-0.4164 l 0,4.5514 4.7299,0 c 13.3568,0 13.803,1.6361 13.803,7.1098 l 0,9.4896 c 0,16.6291 -18.8304,17.938 -22.9654,17.938 -9.6681,0 -38.9996,-5.1761 -38.9996,-49.3221 0,-44.3543 29.2125,-49.233 38.0774,-49.233 15.8853,0 29.391,13.3569 32.3658,35.1621 0.2678,2.0229 0.2678,2.4989 2.3501,2.4989 2.3799,0 2.3799,-0.476 2.3799,-3.5698 l 0,-35.1027 c 0,-2.5583 0,-3.5697 -1.6362,-3.5697 -0.5949,0 -1.1899,0 -2.4096,1.7551 l -7.3775,10.9771 c -4.7596,-4.7597 -12.7619,-12.7322 -27.4277,-12.7322 -27.5764,0 -51.5532,23.4117 -51.5532,53.8142 0,30.3429 23.7092,53.9033 51.8805,53.9033 10.7688,0 22.6382,-3.8375 27.6954,-12.5834 z"
       id="path4838" />
  </g>
  <g
     transform="translate(-258.31933,1377.4776)"
     id="g4840">
    <g
       style="font-style:normal;font-variant:normal;font-weight:normal;font-stretch:normal;letter-spacing:normal;word-spacing:normal;text-anchor:start;fill:none;fill-opacity:1;fill-rule:evenodd;stroke:#000000;stroke-linecap:butt;stroke-linejoin:miter;stroke-miterlimit:10.43299961;stroke-dasharray:none;stroke-dashoffset:0;stroke-opacity:1"
       id="g4842"
       transform="matrix(2.9748004,0,0,-2.9748004,-616.66711,1568.2417)"
       xml:space="preserve"
       stroke-miterlimit="10.433"
       font-style="normal"
       font-variant="normal"
       font-weight="normal"
       font-stretch="normal"
       font-size-adjust="none"
       letter-spacing="normal"
       word-spacing="normal"><path
         style="fill:#000000;stroke-width:0"
         d="m 475.35,440.87 -0.03,0.06 -0.02,0.06 -0.02,0.06 -0.02,0.05 -0.02,0.06 -0.02,0.05 -0.02,0.05 -0.02,0.04 -0.03,0.05 -0.02,0.04 -0.02,0.05 -0.02,0.04 -0.03,0.03 -0.02,0.04 -0.03,0.03 -0.03,0.04 -0.03,0.03 -0.03,0.03 -0.03,0.02 -0.04,0.03 -0.04,0.02 -0.04,0.02 -0.04,0.02 -0.04,0.02 -0.05,0.01 -0.05,0.01 -0.06,0.02 -0.06,0 -0.06,0.01 -0.06,0.01 -0.07,0 -0.04,0 -0.03,0 c -0.8,0 -0.96,-0.3 -1.21,-1 l -10.31,-29.8 c -0.89,-2.53 -2.89,-3.28 -5.58,-3.32 l 0,-1.55 c 1.14,0.05 3.28,0.16 5.08,0.16 1.55,0 4.14,-0.11 5.74,-0.16 l 0,1.55 c -2.49,0 -3.74,1.25 -3.74,2.53 0,0.15 0.05,0.65 0.1,0.75 l 2.29,6.53 0.55,1.55 5.58,16.18 5.62,-16.18 -11.2,0 -0.55,-1.55 12.3,0 2.64,-7.63 c 0.06,-0.2 0.16,-0.5 0.16,-0.68 0,-1.5 -2.8,-1.5 -4.14,-1.5 l 0,-1.55 c 1.79,0.16 5.28,0.16 7.18,0.16 2.14,0 4.42,-0.07 6.52,-0.16 l 0,1.55 -0.89,0 c -3,0 -3.69,0.34 -4.24,1.98 z"
         id="path4844" /></g>    <path
       id="path4846"
       d="m 1338.8121,304.54653 1.3386,-0.29749 1.309,-0.29748 1.3089,-0.38672 1.2494,-0.38673 1.2196,-0.41647 1.19,-0.47596 1.1899,-0.50572 1.1304,-0.53546 1.1007,-0.56522 1.0709,-0.59496 1.0412,-0.62471 0.9817,-0.62471 0.9519,-0.68419 0.9222,-0.71396 0.8924,-0.7437 0.833,-0.7437 0.8032,-0.77345 0.7436,-0.80319 0.7141,-0.83295 0.6544,-0.83294 0.6247,-0.8627 0.5652,-0.89243 0.5057,-0.89244 0.476,-0.92219 0.4165,-0.95194 0.3569,-0.95193 0.3272,-0.95194 0.2678,-0.98169 0.1785,-1.01143 0.1487,-0.98168 0.089,-1.01143 0.03,-1.04118 c 0,-12.88089 -13.6544,-25.04782 -32.9013,-25.04782 l -1.071,4.61094 c 14.4278,0 19.5743,12.5834 19.5743,20.43688 0,9.48961 -7.2586,21.95402 -23.7092,21.95402 l -21.478,0 0,3.24253 27.844,0 c 14.6956,0 20.9129,13.80308 20.9129,23.70917 0,10.56054 -7.7047,22.66797 -22.9654,22.66797 l 0,0 -18.5331,0 c -6.961,0 -7.2584,-1.01143 -7.2584,-5.8901 l 0,-40.48704 0,-3.24253 0,-36.4413 c 0,-4.93817 0.2974,-5.9496 7.2584,-5.9496 l 18.3545,0 1.071,-4.61094 -54.2306,0 0,4.61094 3.5103,0 c 11.4529,0 11.7207,1.60639 11.7207,6.96103 l 0,78.08851 c 0,5.35464 -0.2678,6.96103 -11.7207,6.96103 l -3.5103,0 0,4.61095 58.0978,0 c 19.6932,0 33.05,-13.20812 33.05,-27.13018 0,-12.88089 -12.1966,-24.00664 -28.6472,-25.76177 z"
       style="font-style:normal;font-variant:normal;font-weight:normal;font-stretch:normal;letter-spacing:normal;word-spacing:normal;text-anchor:start;fill:#000000;fill-opacity:1;fill-rule:evenodd;stroke:#000000;stroke-width:0;stroke-linecap:butt;stroke-linejoin:miter;stroke-miterlimit:10.43299961;stroke-dasharray:none;stroke-dashoffset:0;stroke-opacity:1" />
    <path
       id="path4848"
       d="m 484.80966,764.08816 0.0893,2.85581 0.20823,2.7963 0.32728,2.76657 0.47592,2.70707 0.59497,2.64758 0.71394,2.58807 0.83293,2.52858 0.95198,2.46909 1.04116,2.40958 1.18993,2.32035 1.24939,2.26085 1.36844,2.20135 1.48742,2.08236 1.54687,2.02286 1.63613,1.96337 1.72538,1.84438 1.81463,1.75513 1.90388,1.66589 1.93361,1.57664 2.05266,1.4874 2.08232,1.36841 2.17164,1.27916 2.20129,1.16017 2.29062,1.04118 2.32035,0.95194 2.35007,0.83295 2.4096,0.6842 2.46913,0.59496 2.46905,0.44622 2.52858,0.32723 2.5583,0.20823 2.55838,0.0595 c 24.18509,0 38.67241,-20.58562 38.67241,-37.77997 0,-1.4874 0,-2.49883 -1.90388,-2.49883 -1.63613,0 -1.63613,0.86269 -1.75511,2.3501 -1.21973,21.21032 -17.07542,33.3475 -33.22852,33.3475 -9.04343,0 -38.07752,-5.0274 -38.07752,-49.17344 0,-44.35428 28.91512,-49.38169 37.92874,-49.38169 16.1829,0 29.3613,13.47584 32.30634,35.16214 0.32722,2.02286 0.32722,2.49883 2.35008,2.49883 2.37987,0 2.37987,-0.47597 2.37987,-3.56976 l 0,-35.10264 c 0,-2.55833 0,-3.56976 -1.63613,-3.56976 -0.53551,0 -1.16021,0 -2.35014,1.75513 l -7.40723,10.97701 c -5.47362,-5.35464 -13.05935,-12.73214 -27.27891,-12.73214 -27.69538,0 -51.55334,23.56041 -51.55334,53.81414 z"
       style="font-style:normal;font-variant:normal;font-weight:normal;font-stretch:normal;letter-spacing:normal;word-spacing:normal;text-anchor:start;fill:#000000;fill-opacity:1;fill-rule:evenodd;stroke:#000000;stroke-width:0;stroke-linecap:butt;stroke-linejoin:miter;stroke-miterlimit:10.43299961;stroke-dasharray:none;stroke-dashoffset:0;stroke-opacity:1" />
    <path
       id="path4850"
       d="m 1008.1099,713.51655 0,4.61094 3.54,0 c 11.4233,0 11.691,1.60639 11.691,6.96103 l 0,78.08851 c 0,5.35464 -0.2677,6.96103 -11.691,6.96103 l -3.54,0 0,4.61095 54.2306,0 -3.9862,-4.61095 -15.0227,0 c -6.9313,0 -7.2288,-1.01143 -7.2288,-5.8901 l 0,-80.17087 c 0,-4.93817 0.2975,-5.9496 7.2288,-5.9496 l 14.8442,0 c 9.1922,0 19.4255,3.24253 27.0112,13.80307 6.3661,8.71617 7.6453,21.47806 7.6453,33.05003 0,16.45065 -2.7667,25.31556 -8.1213,32.57407 -2.9748,3.98623 -11.3935,12.5834 -26.3567,12.5834 l 3.9862,4.61095 c 24.8694,0 45.336,-21.92428 45.336,-49.76842 0,-28.17135 -19.9907,-51.46404 -45.336,-51.46404 z"
       style="font-style:normal;font-variant:normal;font-weight:normal;font-stretch:normal;letter-spacing:normal;word-spacing:normal;text-anchor:start;fill:#000000;fill-opacity:1;fill-rule:evenodd;stroke:#000000;stroke-width:0;stroke-linecap:butt;stroke-linejoin:miter;stroke-miterlimit:10.43299961;stroke-dasharray:none;stroke-dashoffset:0;stroke-opacity:1" />
    <path
       id="path4852"
       d="m 1555.2786,802.93964 0,0.47597 0,0.47596 -0.029,0.44623 0,0.44622 -0.029,0.38672 -0.06,0.38672 -0.06,0.38673 -0.06,0.32723 -0.089,0.35697 -0.089,0.29748 -0.1487,0.29748 -0.1488,0.26774 -0.1785,0.26772 -0.2082,0.23799 -0.238,0.23798 -0.2677,0.20824 -0.2975,0.17849 -0.3272,0.17848 -0.1785,0.0892 -0.1785,0.0892 -0.2082,0.0595 -0.2083,0.0892 -0.238,0.0595 -0.2082,0.0595 -0.2379,0.0595 -0.2678,0.0595 -0.2678,0.0595 -0.2676,0.0595 -0.2975,0.0595 -0.2975,0.0297 -0.2975,0.0297 -0.3272,0.0595 -0.357,0.0297 -0.3272,0.0297 -0.3868,0.0297 -0.3569,0.0297 -0.4165,0.0297 -0.3867,0.0297 -0.4165,0 -0.4462,0.0297 -0.4462,0 -0.4463,0.0297 -0.5057,0 -0.476,0 -0.5057,0 -0.5354,0 -3.5698,0 0,4.61094 85.5255,0 6.2173,-38.25593 -3.7185,0 c -3.659,22.81671 -7.1097,33.64499 -32.574,33.64499 l -19.7229,0 c -6.961,0 -7.2883,-1.01143 -7.2883,-5.89011 l 0,-39.59459 13.3271,0 c 14.4278,0 16.0639,4.72993 16.0639,17.34309 l 3.6591,0 0,-39.29712 -3.6591,0 c 0,12.79165 -1.6361,17.34309 -16.0639,17.34309 l -13.3271,0 0,-35.54886 c 0,-4.87868 0.3273,-5.91986 7.2883,-5.91986 l 19.1279,0 c 22.668,0 26.6543,8.15095 29.0341,28.73658 l 3.7185,0 -4.1945,-33.31777 -83.4134,0 0,4.58119 3.5698,0 c 11.3935,0 11.7207,1.63614 11.7207,6.93129 z"
       style="font-style:normal;font-variant:normal;font-weight:normal;font-stretch:normal;letter-spacing:normal;word-spacing:normal;text-anchor:start;fill:#000000;fill-opacity:1;fill-rule:evenodd;stroke:#000000;stroke-width:0;stroke-linecap:butt;stroke-linejoin:miter;stroke-miterlimit:10.43299961;stroke-dasharray:none;stroke-dashoffset:0;stroke-opacity:1" />
    <path
       id="path4854"
       d="m 832.53662,1170.9811 -81.39048,0 0,4.5812 3.59946,0 c 11.36378,0 11.69099,1.6361 11.69099,6.9312 l 0,77.6721 c 0,5.3546 -0.32721,6.961 -11.69099,6.961 l -3.59946,0 0,4.611 c 5.20586,-0.476 16.77787,-0.476 22.54897,-0.476 6.09831,0 19.5742,0 24.92884,0.476 l 0,-4.611 -4.93818,0 c -14.10058,0 -14.10058,-1.9039 -14.10058,-7.1097 l 0,-36.4413 12.79167,0 c 14.21956,0 15.70691,4.7596 15.70691,17.3431 l 3.68878,0 0,-39.2674 -3.68878,0 c 0,12.4644 -1.48735,17.3431 -15.70691,17.3431 l -12.79167,0 0,-37.5123 c 0,-4.8786 0.35701,-5.9198 7.31805,-5.9198 l 17.7595,0 c 22.25155,0 25.94027,8.27 28.29041,28.7365 l 3.71845,0 z"
       style="font-style:normal;font-variant:normal;font-weight:normal;font-stretch:normal;letter-spacing:normal;word-spacing:normal;text-anchor:start;fill:#000000;fill-opacity:1;fill-rule:evenodd;stroke:#000000;stroke-width:0;stroke-linecap:butt;stroke-linejoin:miter;stroke-miterlimit:10.43299961;stroke-dasharray:none;stroke-dashoffset:0;stroke-opacity:1" />
    <path
       id="path4856"
       d="m 1351.1436,1262.6357 0.1784,0.3273 0.2083,0.3272 0.238,0.3272 0.2678,0.357 0.2676,0.357 0.2678,0.357 0.2975,0.3867 0.3272,0.3569 0.3272,0.3868 0.3273,0.3867 0.6841,0.7734 0.714,0.7438 0.7437,0.7436 0.357,0.3272 0.357,0.3571 0.3569,0.3272 0.357,0.2975 0.3272,0.2974 0.3272,0.2975 0.3273,0.238 0.3271,0.238 0.2976,0.238 0.2676,0.1785 0.2679,0.1785 0.2677,0.1487 0.238,0.089 0.2082,0.089 0.089,0.029 0.089,0.03 0.089,0 0.089,0 c 1.3387,0 1.3387,-1.19 1.3387,-3.4211 l 0,-25.7617 c 0,-5.8009 0.5652,-6.5446 10.2333,-6.5446 l 0,-4.5514 c -5.5034,0.1189 -13.6841,0.4164 -18.0868,0.4164 -5.9496,0 -18.5628,0 -23.8876,-0.4164 l 0,4.5514 4.7299,0 c 13.3568,0 13.803,1.6361 13.803,7.1098 l 0,9.4896 c 0,16.6291 -18.8304,17.938 -22.9654,17.938 -9.6681,0 -38.9996,-5.1761 -38.9996,-49.3221 0,-44.3543 29.2125,-49.233 38.0774,-49.233 15.8853,0 29.391,13.3569 32.3658,35.1621 0.2678,2.0229 0.2678,2.4989 2.3501,2.4989 2.3799,0 2.3799,-0.476 2.3799,-3.5698 l 0,-35.1027 c 0,-2.5583 0,-3.5697 -1.6362,-3.5697 -0.5949,0 -1.1899,0 -2.4096,1.7551 l -7.3775,10.9771 c -4.7596,-4.7597 -12.7619,-12.7322 -27.4277,-12.7322 -27.5764,0 -51.5532,23.4117 -51.5532,53.8142 0,30.3429 23.7092,53.9033 51.8805,53.9033 10.7688,0 22.6382,-3.8375 27.6954,-12.5834 z"
       style="font-style:normal;font-variant:normal;font-weight:normal;font-stretch:normal;letter-spacing:normal;word-spacing:normal;text-anchor:start;fill:#000000;fill-opacity:1;fill-rule:evenodd;stroke:#000000;stroke-width:0;stroke-linecap:butt;stroke-linejoin:miter;stroke-miterlimit:10.43299961;stroke-dasharray:none;stroke-dashoffset:0;stroke-opacity:1" />
  </g>
  <path
     id="path4938"
     style="fill:none;stroke:#000000;stroke-width:12;stroke-linecap:round;stroke-linejoin:round;stroke-miterlimit:4;stroke-dasharray:none;stroke-opacity:1"
     d="m 1591.9024,1989.6008 0,304.8242 -263.9649,152.4063 0,304.8203 -263.9961,152.4102 -263.98438,-152.4102 -263.98823,152.4102 -263.9844,-152.4102 0,-304.8202 L 8,2294.425 l 0,-304.8242 263.98439,-152.4511 0,-304.8691 263.9844,-152.4024 263.98822,152.4024 263.98439,-152.4024 263.9961,152.4024 0,304.8691 z" />
  <path
     d="m 1855.8405,617.72251 0,304.8242 -263.9649,152.40629 0,304.8203 -263.9961,152.4102 -263.9843,-152.4102 -263.98828,152.4102 -263.9844,-152.4102 0,-304.8202 -263.98439,-152.40639 0,-304.8242 263.98439,-152.4511 0,-304.8691 L 799.90692,7.9999072 1063.8952,160.40231 1327.8795,7.9999072 1591.8756,160.40231 l 0,304.8691 z"
     style="fill:none;stroke:#000000;stroke-width:12;stroke-linecap:round;stroke-linejoin:round;stroke-miterlimit:4;stroke-dasharray:none;stroke-opacity:1"
     id="path4945" />
  <path
     id="path4972"
     style="fill:none;stroke:#000000;stroke-width:12;stroke-linecap:round;stroke-linejoin:round;stroke-miterlimit:4;stroke-dasharray:none;stroke-opacity:1"
     d="m 2911.8063,1532.2927 0,304.8242 -263.9649,152.4063 0,304.8203 -263.9961,152.4102 -263.9843,-152.4102 -263.9883,152.4102 -263.9844,-152.4102 0,-304.8202 -263.9844,-152.4064 0,-304.8242 263.9844,-152.4511 0,-304.8691 263.9844,-152.40238 263.9883,152.40238 263.9843,-152.40238 263.9961,152.40238 0,304.8691 z" />
</svg>
